solid OpenSCAD_Model
  facet normal -0 0 1
    outer loop
      vertex -13.5 3 2
      vertex 13.5 -3 2
      vertex 13.5 3 2
    endloop
  endfacet
  facet normal 0 0 1
    outer loop
      vertex 13.5 -3 2
      vertex -13.5 3 2
      vertex -13.5 -3 2
    endloop
  endfacet
  facet normal 0 0 -1
    outer loop
      vertex -13.5 -3 -2
      vertex 13.5 3 -2
      vertex 13.5 -3 -2
    endloop
  endfacet
  facet normal -0 0 -1
    outer loop
      vertex 13.5 3 -2
      vertex -13.5 -3 -2
      vertex -13.5 3 -2
    endloop
  endfacet
  facet normal 0 -1 0
    outer loop
      vertex -13.5 -3 -2
      vertex 13.5 -3 2
      vertex -13.5 -3 2
    endloop
  endfacet
  facet normal 0 -1 -0
    outer loop
      vertex 13.5 -3 2
      vertex -13.5 -3 -2
      vertex 13.5 -3 -2
    endloop
  endfacet
  facet normal 1 -0 0
    outer loop
      vertex 13.5 -3 2
      vertex 13.5 3 -2
      vertex 13.5 3 2
    endloop
  endfacet
  facet normal 1 0 0
    outer loop
      vertex 13.5 3 -2
      vertex 13.5 -3 2
      vertex 13.5 -3 -2
    endloop
  endfacet
  facet normal 0 1 -0
    outer loop
      vertex 13.5 3 -2
      vertex -13.5 3 2
      vertex 13.5 3 2
    endloop
  endfacet
  facet normal 0 1 0
    outer loop
      vertex -13.5 3 2
      vertex 13.5 3 -2
      vertex -13.5 3 -2
    endloop
  endfacet
  facet normal -1 0 0
    outer loop
      vertex -13.5 -3 -2
      vertex -13.5 3 2
      vertex -13.5 3 -2
    endloop
  endfacet
  facet normal -1 -0 0
    outer loop
      vertex -13.5 3 2
      vertex -13.5 -3 -2
      vertex -13.5 -3 2
    endloop
  endfacet
endsolid OpenSCAD_Model
