solid OpenSCAD_Model
  facet normal -0.295535 0.147966 0.943803
    outer loop
      vertex 38.7 -33.5 6.5
      vertex 42.7 -28.7 7
      vertex 36.525 -25.725 4.6
    endloop
  endfacet
  facet normal 0 -0.226382 0.974039
    outer loop
      vertex 38.7 -8.5 6.5
      vertex 27.475 -16.675 4.6
      vertex 36.525 -16.675 4.6
    endloop
  endfacet
  facet normal 0 -0.226382 0.974039
    outer loop
      vertex 27.475 -16.675 4.6
      vertex 38.7 -8.5 6.5
      vertex 18.7 -8.5 6.5
    endloop
  endfacet
  facet normal 0 -0.928477 0.371391
    outer loop
      vertex 18.7 -8.5 6.5
      vertex 18.8 -7.9 8
      vertex 11.8 -7.9 8
    endloop
  endfacet
  facet normal 0 -0.928477 0.371391
    outer loop
      vertex 18.8 -7.9 8
      vertex 18.7 -8.5 6.5
      vertex 38.7 -8.5 6.5
    endloop
  endfacet
  facet normal -0.0301371 -0.999546 0
    outer loop
      vertex 18.8 -7.9 8
      vertex 38.7 -8.5 8.75
      vertex 18.8 -7.9 8.75
    endloop
  endfacet
  facet normal -0.0301371 -0.999546 -0
    outer loop
      vertex 38.7 -8.5 8.75
      vertex 18.8 -7.9 8
      vertex 38.7 -8.5 6.5
    endloop
  endfacet
  facet normal 0.0838324 0.146261 0.985688
    outer loop
      vertex 18.7 -33.5 6.5
      vertex 27.475 -25.725 4.6
      vertex 10.5 -28.8 6.5
    endloop
  endfacet
  facet normal 0 0 1
    outer loop
      vertex 36.525 -16.675 4.6
      vertex 35.8 -21.2 4.6
      vertex 36.525 -25.725 4.6
    endloop
  endfacet
  facet normal 0 0 1
    outer loop
      vertex 36.525 -16.675 4.6
      vertex 35.7792 -20.8028 4.6
      vertex 35.8 -21.2 4.6
    endloop
  endfacet
  facet normal 0 0 1
    outer loop
      vertex 36.525 -16.675 4.6
      vertex 35.717 -20.4099 4.6
      vertex 35.7792 -20.8028 4.6
    endloop
  endfacet
  facet normal 0 0 1
    outer loop
      vertex 36.525 -16.675 4.6
      vertex 35.614 -20.0257 4.6
      vertex 35.717 -20.4099 4.6
    endloop
  endfacet
  facet normal 0 0 1
    outer loop
      vertex 36.525 -16.675 4.6
      vertex 35.4715 -19.6544 4.6
      vertex 35.614 -20.0257 4.6
    endloop
  endfacet
  facet normal 0 0 1
    outer loop
      vertex 36.525 -16.675 4.6
      vertex 35.2909 -19.3 4.6
      vertex 35.4715 -19.6544 4.6
    endloop
  endfacet
  facet normal 0 0 1
    outer loop
      vertex 36.525 -16.675 4.6
      vertex 35.0743 -18.9664 4.6
      vertex 35.2909 -19.3 4.6
    endloop
  endfacet
  facet normal 0 0 1
    outer loop
      vertex 36.525 -16.675 4.6
      vertex 34.824 -18.6573 4.6
      vertex 35.0743 -18.9664 4.6
    endloop
  endfacet
  facet normal 0 0 1
    outer loop
      vertex 36.525 -16.675 4.6
      vertex 34.5427 -18.376 4.6
      vertex 34.824 -18.6573 4.6
    endloop
  endfacet
  facet normal 0 0 1
    outer loop
      vertex 36.525 -16.675 4.6
      vertex 34.2336 -18.1257 4.6
      vertex 34.5427 -18.376 4.6
    endloop
  endfacet
  facet normal 0 0 1
    outer loop
      vertex 36.525 -16.675 4.6
      vertex 33.9 -17.9091 4.6
      vertex 34.2336 -18.1257 4.6
    endloop
  endfacet
  facet normal 0 0 1
    outer loop
      vertex 36.525 -16.675 4.6
      vertex 33.5456 -17.7285 4.6
      vertex 33.9 -17.9091 4.6
    endloop
  endfacet
  facet normal 0 0 1
    outer loop
      vertex 36.525 -16.675 4.6
      vertex 33.1743 -17.586 4.6
      vertex 33.5456 -17.7285 4.6
    endloop
  endfacet
  facet normal 0 0 1
    outer loop
      vertex 36.525 -16.675 4.6
      vertex 32.7901 -17.483 4.6
      vertex 33.1743 -17.586 4.6
    endloop
  endfacet
  facet normal 0 0 1
    outer loop
      vertex 36.525 -16.675 4.6
      vertex 32.3972 -17.4208 4.6
      vertex 32.7901 -17.483 4.6
    endloop
  endfacet
  facet normal 0 0 1
    outer loop
      vertex 36.525 -16.675 4.6
      vertex 32 -17.4 4.6
      vertex 32.3972 -17.4208 4.6
    endloop
  endfacet
  facet normal -0 0 1
    outer loop
      vertex 27.475 -16.675 4.6
      vertex 32 -17.4 4.6
      vertex 36.525 -16.675 4.6
    endloop
  endfacet
  facet normal 0 0 1
    outer loop
      vertex 28.2208 -20.8028 4.6
      vertex 27.475 -16.675 4.6
      vertex 28.2 -21.2 4.6
    endloop
  endfacet
  facet normal 0 0 1
    outer loop
      vertex 28.283 -20.4099 4.6
      vertex 27.475 -16.675 4.6
      vertex 28.2208 -20.8028 4.6
    endloop
  endfacet
  facet normal 0 0 1
    outer loop
      vertex 28.386 -20.0257 4.6
      vertex 27.475 -16.675 4.6
      vertex 28.283 -20.4099 4.6
    endloop
  endfacet
  facet normal 0 0 1
    outer loop
      vertex 28.5285 -19.6544 4.6
      vertex 27.475 -16.675 4.6
      vertex 28.386 -20.0257 4.6
    endloop
  endfacet
  facet normal 0 0 1
    outer loop
      vertex 28.7091 -19.3 4.6
      vertex 27.475 -16.675 4.6
      vertex 28.5285 -19.6544 4.6
    endloop
  endfacet
  facet normal 0 0 1
    outer loop
      vertex 28.9257 -18.9664 4.6
      vertex 27.475 -16.675 4.6
      vertex 28.7091 -19.3 4.6
    endloop
  endfacet
  facet normal 0 0 1
    outer loop
      vertex 29.176 -18.6573 4.6
      vertex 27.475 -16.675 4.6
      vertex 28.9257 -18.9664 4.6
    endloop
  endfacet
  facet normal 0 0 1
    outer loop
      vertex 29.4573 -18.376 4.6
      vertex 27.475 -16.675 4.6
      vertex 29.176 -18.6573 4.6
    endloop
  endfacet
  facet normal 0 0 1
    outer loop
      vertex 29.7664 -18.1257 4.6
      vertex 27.475 -16.675 4.6
      vertex 29.4573 -18.376 4.6
    endloop
  endfacet
  facet normal 0 0 1
    outer loop
      vertex 30.1 -17.9091 4.6
      vertex 27.475 -16.675 4.6
      vertex 29.7664 -18.1257 4.6
    endloop
  endfacet
  facet normal 0 0 1
    outer loop
      vertex 30.4544 -17.7285 4.6
      vertex 27.475 -16.675 4.6
      vertex 30.1 -17.9091 4.6
    endloop
  endfacet
  facet normal 0 0 1
    outer loop
      vertex 30.8257 -17.586 4.6
      vertex 27.475 -16.675 4.6
      vertex 30.4544 -17.7285 4.6
    endloop
  endfacet
  facet normal 0 0 1
    outer loop
      vertex 31.2099 -17.483 4.6
      vertex 27.475 -16.675 4.6
      vertex 30.8257 -17.586 4.6
    endloop
  endfacet
  facet normal 0 0 1
    outer loop
      vertex 31.6028 -17.4208 4.6
      vertex 27.475 -16.675 4.6
      vertex 31.2099 -17.483 4.6
    endloop
  endfacet
  facet normal 0 0 1
    outer loop
      vertex 32 -17.4 4.6
      vertex 27.475 -16.675 4.6
      vertex 31.6028 -17.4208 4.6
    endloop
  endfacet
  facet normal -0 0 1
    outer loop
      vertex 35.7792 -21.5972 4.6
      vertex 36.525 -25.725 4.6
      vertex 35.8 -21.2 4.6
    endloop
  endfacet
  facet normal -0 0 1
    outer loop
      vertex 35.717 -21.9901 4.6
      vertex 36.525 -25.725 4.6
      vertex 35.7792 -21.5972 4.6
    endloop
  endfacet
  facet normal -0 0 1
    outer loop
      vertex 35.614 -22.3743 4.6
      vertex 36.525 -25.725 4.6
      vertex 35.717 -21.9901 4.6
    endloop
  endfacet
  facet normal -0 0 1
    outer loop
      vertex 35.4715 -22.7456 4.6
      vertex 36.525 -25.725 4.6
      vertex 35.614 -22.3743 4.6
    endloop
  endfacet
  facet normal -0 0 1
    outer loop
      vertex 35.2909 -23.1 4.6
      vertex 36.525 -25.725 4.6
      vertex 35.4715 -22.7456 4.6
    endloop
  endfacet
  facet normal -0 0 1
    outer loop
      vertex 35.0743 -23.4336 4.6
      vertex 36.525 -25.725 4.6
      vertex 35.2909 -23.1 4.6
    endloop
  endfacet
  facet normal -0 0 1
    outer loop
      vertex 34.824 -23.7427 4.6
      vertex 36.525 -25.725 4.6
      vertex 35.0743 -23.4336 4.6
    endloop
  endfacet
  facet normal -0 0 1
    outer loop
      vertex 34.5427 -24.0239 4.6
      vertex 36.525 -25.725 4.6
      vertex 34.824 -23.7427 4.6
    endloop
  endfacet
  facet normal -0 0 1
    outer loop
      vertex 34.2336 -24.2743 4.6
      vertex 36.525 -25.725 4.6
      vertex 34.5427 -24.0239 4.6
    endloop
  endfacet
  facet normal -0 0 1
    outer loop
      vertex 33.9 -24.4909 4.6
      vertex 36.525 -25.725 4.6
      vertex 34.2336 -24.2743 4.6
    endloop
  endfacet
  facet normal -0 0 1
    outer loop
      vertex 33.5456 -24.6715 4.6
      vertex 36.525 -25.725 4.6
      vertex 33.9 -24.4909 4.6
    endloop
  endfacet
  facet normal -0 0 1
    outer loop
      vertex 33.1743 -24.814 4.6
      vertex 36.525 -25.725 4.6
      vertex 33.5456 -24.6715 4.6
    endloop
  endfacet
  facet normal -0 0 1
    outer loop
      vertex 32.7901 -24.917 4.6
      vertex 36.525 -25.725 4.6
      vertex 33.1743 -24.814 4.6
    endloop
  endfacet
  facet normal -0 0 1
    outer loop
      vertex 32.3972 -24.9792 4.6
      vertex 36.525 -25.725 4.6
      vertex 32.7901 -24.917 4.6
    endloop
  endfacet
  facet normal -0 0 1
    outer loop
      vertex 32 -25 4.6
      vertex 36.525 -25.725 4.6
      vertex 32.3972 -24.9792 4.6
    endloop
  endfacet
  facet normal 0 0 1
    outer loop
      vertex 27.475 -25.725 4.6
      vertex 32 -25 4.6
      vertex 31.6028 -24.9792 4.6
    endloop
  endfacet
  facet normal 0 0 1
    outer loop
      vertex 27.475 -25.725 4.6
      vertex 28.2 -21.2 4.6
      vertex 27.475 -16.675 4.6
    endloop
  endfacet
  facet normal 0 0 1
    outer loop
      vertex 32 -25 4.6
      vertex 27.475 -25.725 4.6
      vertex 36.525 -25.725 4.6
    endloop
  endfacet
  facet normal 0 0 1
    outer loop
      vertex 31.2099 -24.917 4.6
      vertex 27.475 -25.725 4.6
      vertex 31.6028 -24.9792 4.6
    endloop
  endfacet
  facet normal 0 0 1
    outer loop
      vertex 30.8257 -24.814 4.6
      vertex 27.475 -25.725 4.6
      vertex 31.2099 -24.917 4.6
    endloop
  endfacet
  facet normal 0 0 1
    outer loop
      vertex 30.4544 -24.6715 4.6
      vertex 27.475 -25.725 4.6
      vertex 30.8257 -24.814 4.6
    endloop
  endfacet
  facet normal 0 0 1
    outer loop
      vertex 30.1 -24.4909 4.6
      vertex 27.475 -25.725 4.6
      vertex 30.4544 -24.6715 4.6
    endloop
  endfacet
  facet normal 0 0 1
    outer loop
      vertex 29.7664 -24.2743 4.6
      vertex 27.475 -25.725 4.6
      vertex 30.1 -24.4909 4.6
    endloop
  endfacet
  facet normal 0 0 1
    outer loop
      vertex 29.4573 -24.0239 4.6
      vertex 27.475 -25.725 4.6
      vertex 29.7664 -24.2743 4.6
    endloop
  endfacet
  facet normal 0 0 1
    outer loop
      vertex 29.176 -23.7427 4.6
      vertex 27.475 -25.725 4.6
      vertex 29.4573 -24.0239 4.6
    endloop
  endfacet
  facet normal 0 0 1
    outer loop
      vertex 28.9257 -23.4336 4.6
      vertex 27.475 -25.725 4.6
      vertex 29.176 -23.7427 4.6
    endloop
  endfacet
  facet normal 0 0 1
    outer loop
      vertex 28.7091 -23.1 4.6
      vertex 27.475 -25.725 4.6
      vertex 28.9257 -23.4336 4.6
    endloop
  endfacet
  facet normal 0 0 1
    outer loop
      vertex 28.5285 -22.7456 4.6
      vertex 27.475 -25.725 4.6
      vertex 28.7091 -23.1 4.6
    endloop
  endfacet
  facet normal 0 0 1
    outer loop
      vertex 28.386 -22.3743 4.6
      vertex 27.475 -25.725 4.6
      vertex 28.5285 -22.7456 4.6
    endloop
  endfacet
  facet normal 0 0 1
    outer loop
      vertex 28.283 -21.9901 4.6
      vertex 27.475 -25.725 4.6
      vertex 28.386 -22.3743 4.6
    endloop
  endfacet
  facet normal 0 0 1
    outer loop
      vertex 28.2208 -21.5972 4.6
      vertex 27.475 -25.725 4.6
      vertex 28.283 -21.9901 4.6
    endloop
  endfacet
  facet normal 0 0 1
    outer loop
      vertex 28.2 -21.2 4.6
      vertex 27.475 -25.725 4.6
      vertex 28.2208 -21.5972 4.6
    endloop
  endfacet
  facet normal -0.792624 -0.609711 0
    outer loop
      vertex 42.7 -13.7 7
      vertex 38.7 -8.5 8.75
      vertex 38.7 -8.5 6.5
    endloop
  endfacet
  facet normal -0.792624 -0.609711 0
    outer loop
      vertex 38.7 -8.5 8.75
      vertex 42.7 -13.7 7
      vertex 42.7 -13.7 8.75
    endloop
  endfacet
  facet normal 0.111235 -0 0.993794
    outer loop
      vertex 10.5 -28.8 6.5
      vertex 27.475 -16.675 4.6
      vertex 10.5 -12.3 6.5
    endloop
  endfacet
  facet normal 0.111235 0 0.993794
    outer loop
      vertex 27.475 -16.675 4.6
      vertex 10.5 -28.8 6.5
      vertex 27.475 -25.725 4.6
    endloop
  endfacet
  facet normal 0.959018 -0.283346 0
    outer loop
      vertex 10.5 -12.3 8.75
      vertex 11.8 -7.9 8
      vertex 11.8 -7.9 8.75
    endloop
  endfacet
  facet normal 0.959018 -0.283346 0
    outer loop
      vertex 11.8 -7.9 8
      vertex 10.5 -12.3 8.75
      vertex 10.5 -12.3 6.5
    endloop
  endfacet
  facet normal -0.299537 -0.139662 0.943807
    outer loop
      vertex 42.7 -13.7 7
      vertex 38.7 -8.5 6.5
      vertex 36.525 -16.675 4.6
    endloop
  endfacet
  facet normal -0 0.237388 0.971415
    outer loop
      vertex 27.475 -25.725 4.6
      vertex 38.7 -33.5 6.5
      vertex 36.525 -25.725 4.6
    endloop
  endfacet
  facet normal 0 0.237388 0.971415
    outer loop
      vertex 38.7 -33.5 6.5
      vertex 27.475 -25.725 4.6
      vertex 18.7 -33.5 6.5
    endloop
  endfacet
  facet normal -0.768221 0.640184 0
    outer loop
      vertex 38.7 -33.5 8.75
      vertex 42.7 -28.7 7
      vertex 38.7 -33.5 6.5
    endloop
  endfacet
  facet normal -0.768221 0.640184 0
    outer loop
      vertex 42.7 -28.7 7
      vertex 38.7 -33.5 8.75
      vertex 42.7 -28.7 8.75
    endloop
  endfacet
  facet normal 0.0322413 0.99948 0
    outer loop
      vertex 18.7 -33.5 8.75
      vertex 12.5 -33.3 7.8
      vertex 12.5 -33.3 8.75
    endloop
  endfacet
  facet normal 0.0322413 0.99948 0
    outer loop
      vertex 12.5 -33.3 7.8
      vertex 18.7 -33.5 8.75
      vertex 18.7 -33.5 6.5
    endloop
  endfacet
  facet normal 0 0 1
    outer loop
      vertex 44.05 -6.25 10
      vertex 42.8 -7.5 10
      vertex 44.05 -36.15 10
    endloop
  endfacet
  facet normal 0 0 1
    outer loop
      vertex 44.05 -6.25 10
      vertex 2.5 -7.5 10
      vertex 42.8 -7.5 10
    endloop
  endfacet
  facet normal 0 0 1
    outer loop
      vertex 2.5 -7.5 10
      vertex 1.25 -6.25 10
      vertex 2.5 -34.9 10
    endloop
  endfacet
  facet normal -0 0 1
    outer loop
      vertex 1.25 -6.25 10
      vertex 2.5 -7.5 10
      vertex 44.05 -6.25 10
    endloop
  endfacet
  facet normal -0 0 1
    outer loop
      vertex 42.8 -34.9 10
      vertex 44.05 -36.15 10
      vertex 42.8 -7.5 10
    endloop
  endfacet
  facet normal -0 0 1
    outer loop
      vertex 2.5 -34.9 10
      vertex 44.05 -36.15 10
      vertex 42.8 -34.9 10
    endloop
  endfacet
  facet normal 0 0 1
    outer loop
      vertex 2.5 -34.9 10
      vertex 1.25 -36.15 10
      vertex 44.05 -36.15 10
    endloop
  endfacet
  facet normal 0 0 1
    outer loop
      vertex 1.25 -36.15 10
      vertex 2.5 -34.9 10
      vertex 1.25 -6.25 10
    endloop
  endfacet
  facet normal -1 0 0
    outer loop
      vertex 42.7 -28.7 7
      vertex 42.7 -13.7 8.75
      vertex 42.7 -13.7 7
    endloop
  endfacet
  facet normal -1 -0 0
    outer loop
      vertex 42.7 -13.7 8.75
      vertex 42.7 -28.7 7
      vertex 42.7 -28.7 8.75
    endloop
  endfacet
  facet normal -0.362264 0 0.932075
    outer loop
      vertex 36.525 -16.675 4.6
      vertex 42.7 -28.7 7
      vertex 42.7 -13.7 7
    endloop
  endfacet
  facet normal -0.362264 0 0.932075
    outer loop
      vertex 42.7 -28.7 7
      vertex 36.525 -16.675 4.6
      vertex 36.525 -25.725 4.6
    endloop
  endfacet
  facet normal 0.202855 0.353917 0.913013
    outer loop
      vertex 12.5 -33.3 7.8
      vertex 18.7 -33.5 6.5
      vertex 10.5 -28.8 6.5
    endloop
  endfacet
  facet normal 0 1 -0
    outer loop
      vertex 38.7 -33.5 6.5
      vertex 18.7 -33.5 8.75
      vertex 38.7 -33.5 8.75
    endloop
  endfacet
  facet normal 0 1 0
    outer loop
      vertex 18.7 -33.5 8.75
      vertex 38.7 -33.5 6.5
      vertex 18.7 -33.5 6.5
    endloop
  endfacet
  facet normal 0 -1 0
    outer loop
      vertex 11.8 -7.9 8
      vertex 18.8 -7.9 8.75
      vertex 11.8 -7.9 8.75
    endloop
  endfacet
  facet normal 0 -1 -0
    outer loop
      vertex 18.8 -7.9 8.75
      vertex 11.8 -7.9 8
      vertex 18.8 -7.9 8
    endloop
  endfacet
  facet normal 1 -0 0
    outer loop
      vertex 10.5 -28.8 8.75
      vertex 10.5 -12.3 6.5
      vertex 10.5 -12.3 8.75
    endloop
  endfacet
  facet normal 1 0 0
    outer loop
      vertex 10.5 -12.3 6.5
      vertex 10.5 -28.8 8.75
      vertex 10.5 -28.8 6.5
    endloop
  endfacet
  facet normal 0.913812 0.406138 -0
    outer loop
      vertex 12.5 -33.3 7.8
      vertex 10.5 -28.8 8.75
      vertex 12.5 -33.3 8.75
    endloop
  endfacet
  facet normal 0.913812 0.406138 0
    outer loop
      vertex 10.5 -28.8 8.75
      vertex 12.5 -33.3 7.8
      vertex 10.5 -28.8 6.5
    endloop
  endfacet
  facet normal 0.16783 -0.36216 0.916882
    outer loop
      vertex 18.7 -8.5 6.5
      vertex 11.8 -7.9 8
      vertex 10.5 -12.3 6.5
    endloop
  endfacet
  facet normal 0.0708968 -0.152988 0.985682
    outer loop
      vertex 27.475 -16.675 4.6
      vertex 18.7 -8.5 6.5
      vertex 10.5 -12.3 6.5
    endloop
  endfacet
  facet normal 1 -0 0
    outer loop
      vertex 2.5 -34.9 10
      vertex 2.5 -7.5 8.75
      vertex 2.5 -7.5 10
    endloop
  endfacet
  facet normal 1 0 0
    outer loop
      vertex 2.5 -7.5 8.75
      vertex 2.5 -34.9 10
      vertex 2.5 -34.9 8.75
    endloop
  endfacet
  facet normal 0 0 1
    outer loop
      vertex 42.8 -7.5 8.75
      vertex 42.7 -13.7 8.75
      vertex 42.8 -34.9 8.75
    endloop
  endfacet
  facet normal 0 0 1
    outer loop
      vertex 42.8 -7.5 8.75
      vertex 38.7 -8.5 8.75
      vertex 42.7 -13.7 8.75
    endloop
  endfacet
  facet normal 0 0 1
    outer loop
      vertex 42.8 -7.5 8.75
      vertex 18.8 -7.9 8.75
      vertex 38.7 -8.5 8.75
    endloop
  endfacet
  facet normal -0 0 1
    outer loop
      vertex 2.5 -7.5 8.75
      vertex 18.8 -7.9 8.75
      vertex 42.8 -7.5 8.75
    endloop
  endfacet
  facet normal 0 0 1
    outer loop
      vertex 10.5 -12.3 8.75
      vertex 2.5 -7.5 8.75
      vertex 10.5 -28.8 8.75
    endloop
  endfacet
  facet normal 0 0 1
    outer loop
      vertex 11.8 -7.9 8.75
      vertex 2.5 -7.5 8.75
      vertex 10.5 -12.3 8.75
    endloop
  endfacet
  facet normal 0 0 1
    outer loop
      vertex 18.8 -7.9 8.75
      vertex 2.5 -7.5 8.75
      vertex 11.8 -7.9 8.75
    endloop
  endfacet
  facet normal -0 0 1
    outer loop
      vertex 42.7 -28.7 8.75
      vertex 42.8 -34.9 8.75
      vertex 42.7 -13.7 8.75
    endloop
  endfacet
  facet normal -0 0 1
    outer loop
      vertex 38.7 -33.5 8.75
      vertex 42.8 -34.9 8.75
      vertex 42.7 -28.7 8.75
    endloop
  endfacet
  facet normal -0 0 1
    outer loop
      vertex 18.7 -33.5 8.75
      vertex 42.8 -34.9 8.75
      vertex 38.7 -33.5 8.75
    endloop
  endfacet
  facet normal 0 0 1
    outer loop
      vertex 2.5 -34.9 8.75
      vertex 18.7 -33.5 8.75
      vertex 12.5 -33.3 8.75
    endloop
  endfacet
  facet normal 0 0 1
    outer loop
      vertex 18.7 -33.5 8.75
      vertex 2.5 -34.9 8.75
      vertex 42.8 -34.9 8.75
    endloop
  endfacet
  facet normal 0 0 1
    outer loop
      vertex 10.5 -28.8 8.75
      vertex 2.5 -34.9 8.75
      vertex 12.5 -33.3 8.75
    endloop
  endfacet
  facet normal 0 0 1
    outer loop
      vertex 2.5 -34.9 8.75
      vertex 10.5 -28.8 8.75
      vertex 2.5 -7.5 8.75
    endloop
  endfacet
  facet normal -1 0 0
    outer loop
      vertex 42.8 -34.9 8.75
      vertex 42.8 -7.5 10
      vertex 42.8 -7.5 8.75
    endloop
  endfacet
  facet normal -1 -0 0
    outer loop
      vertex 42.8 -7.5 10
      vertex 42.8 -34.9 8.75
      vertex 42.8 -34.9 10
    endloop
  endfacet
  facet normal 0 1 -0
    outer loop
      vertex 42.8 -34.9 8.75
      vertex 2.5 -34.9 10
      vertex 42.8 -34.9 10
    endloop
  endfacet
  facet normal 0 1 0
    outer loop
      vertex 2.5 -34.9 10
      vertex 42.8 -34.9 8.75
      vertex 2.5 -34.9 8.75
    endloop
  endfacet
  facet normal 0 -1 0
    outer loop
      vertex 2.5 -7.5 8.75
      vertex 42.8 -7.5 10
      vertex 2.5 -7.5 10
    endloop
  endfacet
  facet normal 0 -1 -0
    outer loop
      vertex 42.8 -7.5 10
      vertex 2.5 -7.5 8.75
      vertex 42.8 -7.5 8.75
    endloop
  endfacet
  facet normal -0.544564 0.838719 0
    outer loop
      vertex 34.2336 -24.2743 2.15
      vertex 33.9 -24.4909 4.6
      vertex 34.2336 -24.2743 4.6
    endloop
  endfacet
  facet normal -0.544564 0.838719 0
    outer loop
      vertex 33.9 -24.4909 4.6
      vertex 34.2336 -24.2743 2.15
      vertex 33.9 -24.4909 2.15
    endloop
  endfacet
  facet normal 0.358305 0.933605 -0
    outer loop
      vertex 30.8257 -24.814 2.15
      vertex 30.4544 -24.6715 4.6
      vertex 30.8257 -24.814 4.6
    endloop
  endfacet
  facet normal 0.358305 0.933605 0
    outer loop
      vertex 30.4544 -24.6715 4.6
      vertex 30.8257 -24.814 2.15
      vertex 30.4544 -24.6715 2.15
    endloop
  endfacet
  facet normal 0.933605 0.358305 0
    outer loop
      vertex 28.5285 -22.7456 4.6
      vertex 28.386 -22.3743 2.15
      vertex 28.386 -22.3743 4.6
    endloop
  endfacet
  facet normal 0.933605 0.358305 0
    outer loop
      vertex 28.386 -22.3743 2.15
      vertex 28.5285 -22.7456 4.6
      vertex 28.5285 -22.7456 2.15
    endloop
  endfacet
  facet normal -0.933605 -0.358305 0
    outer loop
      vertex 35.614 -20.0257 2.15
      vertex 35.4715 -19.6544 4.6
      vertex 35.4715 -19.6544 2.15
    endloop
  endfacet
  facet normal -0.933605 -0.358305 0
    outer loop
      vertex 35.4715 -19.6544 4.6
      vertex 35.614 -20.0257 2.15
      vertex 35.614 -20.0257 4.6
    endloop
  endfacet
  facet normal -0.890982 0.454039 0
    outer loop
      vertex 35.2909 -23.1 2.15
      vertex 35.4715 -22.7456 4.6
      vertex 35.4715 -22.7456 2.15
    endloop
  endfacet
  facet normal -0.890982 0.454039 0
    outer loop
      vertex 35.4715 -22.7456 4.6
      vertex 35.2909 -23.1 2.15
      vertex 35.2909 -23.1 4.6
    endloop
  endfacet
  facet normal -0.838719 0.544564 0
    outer loop
      vertex 35.0743 -23.4336 2.15
      vertex 35.2909 -23.1 4.6
      vertex 35.2909 -23.1 2.15
    endloop
  endfacet
  facet normal -0.838719 0.544564 0
    outer loop
      vertex 35.2909 -23.1 4.6
      vertex 35.0743 -23.4336 2.15
      vertex 35.0743 -23.4336 4.6
    endloop
  endfacet
  facet normal -0.258946 0.965892 0
    outer loop
      vertex 33.1743 -24.814 2.15
      vertex 32.7901 -24.917 4.6
      vertex 33.1743 -24.814 4.6
    endloop
  endfacet
  facet normal -0.258946 0.965892 0
    outer loop
      vertex 32.7901 -24.917 4.6
      vertex 33.1743 -24.814 2.15
      vertex 32.7901 -24.917 2.15
    endloop
  endfacet
  facet normal -0.156363 0.9877 0
    outer loop
      vertex 32.7901 -24.917 2.15
      vertex 32.3972 -24.9792 4.6
      vertex 32.7901 -24.917 4.6
    endloop
  endfacet
  facet normal -0.156363 0.9877 0
    outer loop
      vertex 32.3972 -24.9792 4.6
      vertex 32.7901 -24.917 2.15
      vertex 32.3972 -24.9792 2.15
    endloop
  endfacet
  facet normal 0.998632 0.0522949 0
    outer loop
      vertex 28.2208 -21.5972 4.6
      vertex 28.2 -21.2 2.15
      vertex 28.2 -21.2 4.6
    endloop
  endfacet
  facet normal 0.998632 0.0522949 0
    outer loop
      vertex 28.2 -21.2 2.15
      vertex 28.2208 -21.5972 4.6
      vertex 28.2208 -21.5972 2.15
    endloop
  endfacet
  facet normal 0.777151 0.629314 0
    outer loop
      vertex 29.176 -23.7427 4.6
      vertex 28.9257 -23.4336 2.15
      vertex 28.9257 -23.4336 4.6
    endloop
  endfacet
  facet normal 0.777151 0.629314 0
    outer loop
      vertex 28.9257 -23.4336 2.15
      vertex 29.176 -23.7427 4.6
      vertex 29.176 -23.7427 2.15
    endloop
  endfacet
  facet normal 0.156363 0.9877 -0
    outer loop
      vertex 31.6028 -24.9792 2.15
      vertex 31.2099 -24.917 4.6
      vertex 31.6028 -24.9792 4.6
    endloop
  endfacet
  facet normal 0.156363 0.9877 0
    outer loop
      vertex 31.2099 -24.917 4.6
      vertex 31.6028 -24.9792 2.15
      vertex 31.2099 -24.917 2.15
    endloop
  endfacet
  facet normal -0.998632 -0.0522949 0
    outer loop
      vertex 35.8 -21.2 2.15
      vertex 35.7792 -20.8028 4.6
      vertex 35.7792 -20.8028 2.15
    endloop
  endfacet
  facet normal -0.998632 -0.0522949 0
    outer loop
      vertex 35.7792 -20.8028 4.6
      vertex 35.8 -21.2 2.15
      vertex 35.8 -21.2 4.6
    endloop
  endfacet
  facet normal -0.777151 -0.629314 0
    outer loop
      vertex 35.0743 -18.9664 2.15
      vertex 34.824 -18.6573 4.6
      vertex 34.824 -18.6573 2.15
    endloop
  endfacet
  facet normal -0.777151 -0.629314 0
    outer loop
      vertex 34.824 -18.6573 4.6
      vertex 35.0743 -18.9664 2.15
      vertex 35.0743 -18.9664 4.6
    endloop
  endfacet
  facet normal 0.156363 -0.9877 0
    outer loop
      vertex 31.2099 -17.483 2.15
      vertex 31.6028 -17.4208 4.6
      vertex 31.2099 -17.483 4.6
    endloop
  endfacet
  facet normal 0.156363 -0.9877 0
    outer loop
      vertex 31.6028 -17.4208 4.6
      vertex 31.2099 -17.483 2.15
      vertex 31.6028 -17.4208 2.15
    endloop
  endfacet
  facet normal 0.707107 -0.707107 0
    outer loop
      vertex 29.176 -18.6573 4.6
      vertex 29.4573 -18.376 2.15
      vertex 29.4573 -18.376 4.6
    endloop
  endfacet
  facet normal 0.707107 -0.707107 0
    outer loop
      vertex 29.4573 -18.376 2.15
      vertex 29.176 -18.6573 4.6
      vertex 29.176 -18.6573 2.15
    endloop
  endfacet
  facet normal 0.998632 -0.0522949 0
    outer loop
      vertex 28.2 -21.2 4.6
      vertex 28.2208 -20.8028 2.15
      vertex 28.2208 -20.8028 4.6
    endloop
  endfacet
  facet normal 0.998632 -0.0522949 0
    outer loop
      vertex 28.2208 -20.8028 2.15
      vertex 28.2 -21.2 4.6
      vertex 28.2 -21.2 2.15
    endloop
  endfacet
  facet normal -0.9877 0.156363 0
    outer loop
      vertex 35.717 -21.9901 2.15
      vertex 35.7792 -21.5972 4.6
      vertex 35.7792 -21.5972 2.15
    endloop
  endfacet
  facet normal -0.9877 0.156363 0
    outer loop
      vertex 35.7792 -21.5972 4.6
      vertex 35.717 -21.9901 2.15
      vertex 35.717 -21.9901 4.6
    endloop
  endfacet
  facet normal -0.965892 0.258946 0
    outer loop
      vertex 35.614 -22.3743 2.15
      vertex 35.717 -21.9901 4.6
      vertex 35.717 -21.9901 2.15
    endloop
  endfacet
  facet normal -0.965892 0.258946 0
    outer loop
      vertex 35.717 -21.9901 4.6
      vertex 35.614 -22.3743 2.15
      vertex 35.614 -22.3743 4.6
    endloop
  endfacet
  facet normal -0.933605 0.358305 0
    outer loop
      vertex 35.4715 -22.7456 2.15
      vertex 35.614 -22.3743 4.6
      vertex 35.614 -22.3743 2.15
    endloop
  endfacet
  facet normal -0.933605 0.358305 0
    outer loop
      vertex 35.614 -22.3743 4.6
      vertex 35.4715 -22.7456 2.15
      vertex 35.4715 -22.7456 4.6
    endloop
  endfacet
  facet normal -0.706981 0.707232 0
    outer loop
      vertex 34.824 -23.7427 2.15
      vertex 34.5427 -24.0239 4.6
      vertex 34.824 -23.7427 4.6
    endloop
  endfacet
  facet normal -0.706981 0.707232 0
    outer loop
      vertex 34.5427 -24.0239 4.6
      vertex 34.824 -23.7427 2.15
      vertex 34.5427 -24.0239 2.15
    endloop
  endfacet
  facet normal -0.777151 0.629314 0
    outer loop
      vertex 34.824 -23.7427 2.15
      vertex 35.0743 -23.4336 4.6
      vertex 35.0743 -23.4336 2.15
    endloop
  endfacet
  facet normal -0.777151 0.629314 0
    outer loop
      vertex 35.0743 -23.4336 4.6
      vertex 34.824 -23.7427 2.15
      vertex 34.824 -23.7427 4.6
    endloop
  endfacet
  facet normal -0.629466 0.777028 0
    outer loop
      vertex 34.5427 -24.0239 2.15
      vertex 34.2336 -24.2743 4.6
      vertex 34.5427 -24.0239 4.6
    endloop
  endfacet
  facet normal -0.629466 0.777028 0
    outer loop
      vertex 34.2336 -24.2743 4.6
      vertex 34.5427 -24.0239 2.15
      vertex 34.2336 -24.2743 2.15
    endloop
  endfacet
  facet normal -0.454039 0.890982 0
    outer loop
      vertex 33.9 -24.4909 2.15
      vertex 33.5456 -24.6715 4.6
      vertex 33.9 -24.4909 4.6
    endloop
  endfacet
  facet normal -0.454039 0.890982 0
    outer loop
      vertex 33.5456 -24.6715 4.6
      vertex 33.9 -24.4909 2.15
      vertex 33.5456 -24.6715 2.15
    endloop
  endfacet
  facet normal 0.0522949 0.998632 -0
    outer loop
      vertex 32 -25 2.15
      vertex 31.6028 -24.9792 4.6
      vertex 32 -25 4.6
    endloop
  endfacet
  facet normal 0.0522949 0.998632 0
    outer loop
      vertex 31.6028 -24.9792 4.6
      vertex 32 -25 2.15
      vertex 31.6028 -24.9792 2.15
    endloop
  endfacet
  facet normal -0.358305 0.933605 0
    outer loop
      vertex 33.5456 -24.6715 2.15
      vertex 33.1743 -24.814 4.6
      vertex 33.5456 -24.6715 4.6
    endloop
  endfacet
  facet normal -0.358305 0.933605 0
    outer loop
      vertex 33.1743 -24.814 4.6
      vertex 33.5456 -24.6715 2.15
      vertex 33.1743 -24.814 2.15
    endloop
  endfacet
  facet normal 0.965892 0.258946 0
    outer loop
      vertex 28.386 -22.3743 4.6
      vertex 28.283 -21.9901 2.15
      vertex 28.283 -21.9901 4.6
    endloop
  endfacet
  facet normal 0.965892 0.258946 0
    outer loop
      vertex 28.283 -21.9901 2.15
      vertex 28.386 -22.3743 4.6
      vertex 28.386 -22.3743 2.15
    endloop
  endfacet
  facet normal 0.9877 0.156363 0
    outer loop
      vertex 28.283 -21.9901 4.6
      vertex 28.2208 -21.5972 2.15
      vertex 28.2208 -21.5972 4.6
    endloop
  endfacet
  facet normal 0.9877 0.156363 0
    outer loop
      vertex 28.2208 -21.5972 2.15
      vertex 28.283 -21.9901 4.6
      vertex 28.283 -21.9901 2.15
    endloop
  endfacet
  facet normal 0.890982 0.454039 0
    outer loop
      vertex 28.7091 -23.1 4.6
      vertex 28.5285 -22.7456 2.15
      vertex 28.5285 -22.7456 4.6
    endloop
  endfacet
  facet normal 0.890982 0.454039 0
    outer loop
      vertex 28.5285 -22.7456 2.15
      vertex 28.7091 -23.1 4.6
      vertex 28.7091 -23.1 2.15
    endloop
  endfacet
  facet normal 0.838719 0.544564 0
    outer loop
      vertex 28.9257 -23.4336 4.6
      vertex 28.7091 -23.1 2.15
      vertex 28.7091 -23.1 4.6
    endloop
  endfacet
  facet normal 0.838719 0.544564 0
    outer loop
      vertex 28.7091 -23.1 2.15
      vertex 28.9257 -23.4336 4.6
      vertex 28.9257 -23.4336 2.15
    endloop
  endfacet
  facet normal 0.258946 0.965892 -0
    outer loop
      vertex 31.2099 -24.917 2.15
      vertex 30.8257 -24.814 4.6
      vertex 31.2099 -24.917 4.6
    endloop
  endfacet
  facet normal 0.258946 0.965892 0
    outer loop
      vertex 30.8257 -24.814 4.6
      vertex 31.2099 -24.917 2.15
      vertex 30.8257 -24.814 2.15
    endloop
  endfacet
  facet normal 0.544564 0.838719 -0
    outer loop
      vertex 30.1 -24.4909 2.15
      vertex 29.7664 -24.2743 4.6
      vertex 30.1 -24.4909 4.6
    endloop
  endfacet
  facet normal 0.544564 0.838719 0
    outer loop
      vertex 29.7664 -24.2743 4.6
      vertex 30.1 -24.4909 2.15
      vertex 29.7664 -24.2743 2.15
    endloop
  endfacet
  facet normal 0.629466 0.777028 -0
    outer loop
      vertex 29.7664 -24.2743 2.15
      vertex 29.4573 -24.0239 4.6
      vertex 29.7664 -24.2743 4.6
    endloop
  endfacet
  facet normal 0.629466 0.777028 0
    outer loop
      vertex 29.4573 -24.0239 4.6
      vertex 29.7664 -24.2743 2.15
      vertex 29.4573 -24.0239 2.15
    endloop
  endfacet
  facet normal 0.454039 0.890982 -0
    outer loop
      vertex 30.4544 -24.6715 2.15
      vertex 30.1 -24.4909 4.6
      vertex 30.4544 -24.6715 4.6
    endloop
  endfacet
  facet normal 0.454039 0.890982 0
    outer loop
      vertex 30.1 -24.4909 4.6
      vertex 30.4544 -24.6715 2.15
      vertex 30.1 -24.4909 2.15
    endloop
  endfacet
  facet normal 0.706981 0.707232 0
    outer loop
      vertex 29.4573 -24.0239 4.6
      vertex 29.176 -23.7427 2.15
      vertex 29.176 -23.7427 4.6
    endloop
  endfacet
  facet normal 0.706981 0.707232 0
    outer loop
      vertex 29.176 -23.7427 2.15
      vertex 29.4573 -24.0239 4.6
      vertex 29.4573 -24.0239 2.15
    endloop
  endfacet
  facet normal -0.998632 0.0522949 0
    outer loop
      vertex 35.7792 -21.5972 2.15
      vertex 35.8 -21.2 4.6
      vertex 35.8 -21.2 2.15
    endloop
  endfacet
  facet normal -0.998632 0.0522949 0
    outer loop
      vertex 35.8 -21.2 4.6
      vertex 35.7792 -21.5972 2.15
      vertex 35.7792 -21.5972 4.6
    endloop
  endfacet
  facet normal -0.0522949 -0.998632 0
    outer loop
      vertex 32 -17.4 2.15
      vertex 32.3972 -17.4208 4.6
      vertex 32 -17.4 4.6
    endloop
  endfacet
  facet normal -0.0522949 -0.998632 -0
    outer loop
      vertex 32.3972 -17.4208 4.6
      vertex 32 -17.4 2.15
      vertex 32.3972 -17.4208 2.15
    endloop
  endfacet
  facet normal -0.156363 -0.9877 0
    outer loop
      vertex 32.3972 -17.4208 2.15
      vertex 32.7901 -17.483 4.6
      vertex 32.3972 -17.4208 4.6
    endloop
  endfacet
  facet normal -0.156363 -0.9877 -0
    outer loop
      vertex 32.7901 -17.483 4.6
      vertex 32.3972 -17.4208 2.15
      vertex 32.7901 -17.483 2.15
    endloop
  endfacet
  facet normal -0.258946 -0.965892 0
    outer loop
      vertex 32.7901 -17.483 2.15
      vertex 33.1743 -17.586 4.6
      vertex 32.7901 -17.483 4.6
    endloop
  endfacet
  facet normal -0.258946 -0.965892 -0
    outer loop
      vertex 33.1743 -17.586 4.6
      vertex 32.7901 -17.483 2.15
      vertex 33.1743 -17.586 2.15
    endloop
  endfacet
  facet normal -0.629314 -0.777151 0
    outer loop
      vertex 34.2336 -18.1257 2.15
      vertex 34.5427 -18.376 4.6
      vertex 34.2336 -18.1257 4.6
    endloop
  endfacet
  facet normal -0.629314 -0.777151 -0
    outer loop
      vertex 34.5427 -18.376 4.6
      vertex 34.2336 -18.1257 2.15
      vertex 34.5427 -18.376 2.15
    endloop
  endfacet
  facet normal -0.454039 -0.890982 0
    outer loop
      vertex 33.5456 -17.7285 2.15
      vertex 33.9 -17.9091 4.6
      vertex 33.5456 -17.7285 4.6
    endloop
  endfacet
  facet normal -0.454039 -0.890982 -0
    outer loop
      vertex 33.9 -17.9091 4.6
      vertex 33.5456 -17.7285 2.15
      vertex 33.9 -17.9091 2.15
    endloop
  endfacet
  facet normal -0.890982 -0.454039 0
    outer loop
      vertex 35.4715 -19.6544 2.15
      vertex 35.2909 -19.3 4.6
      vertex 35.2909 -19.3 2.15
    endloop
  endfacet
  facet normal -0.890982 -0.454039 0
    outer loop
      vertex 35.2909 -19.3 4.6
      vertex 35.4715 -19.6544 2.15
      vertex 35.4715 -19.6544 4.6
    endloop
  endfacet
  facet normal 0.0522949 -0.998632 0
    outer loop
      vertex 31.6028 -17.4208 2.15
      vertex 32 -17.4 4.6
      vertex 31.6028 -17.4208 4.6
    endloop
  endfacet
  facet normal 0.0522949 -0.998632 0
    outer loop
      vertex 32 -17.4 4.6
      vertex 31.6028 -17.4208 2.15
      vertex 32 -17.4 2.15
    endloop
  endfacet
  facet normal 0.358305 -0.933605 0
    outer loop
      vertex 30.4544 -17.7285 2.15
      vertex 30.8257 -17.586 4.6
      vertex 30.4544 -17.7285 4.6
    endloop
  endfacet
  facet normal 0.358305 -0.933605 0
    outer loop
      vertex 30.8257 -17.586 4.6
      vertex 30.4544 -17.7285 2.15
      vertex 30.8257 -17.586 2.15
    endloop
  endfacet
  facet normal 0.544564 -0.838719 0
    outer loop
      vertex 29.7664 -18.1257 2.15
      vertex 30.1 -17.9091 4.6
      vertex 29.7664 -18.1257 4.6
    endloop
  endfacet
  facet normal 0.544564 -0.838719 0
    outer loop
      vertex 30.1 -17.9091 4.6
      vertex 29.7664 -18.1257 2.15
      vertex 30.1 -17.9091 2.15
    endloop
  endfacet
  facet normal 0.9877 -0.156363 0
    outer loop
      vertex 28.2208 -20.8028 4.6
      vertex 28.283 -20.4099 2.15
      vertex 28.283 -20.4099 4.6
    endloop
  endfacet
  facet normal 0.9877 -0.156363 0
    outer loop
      vertex 28.283 -20.4099 2.15
      vertex 28.2208 -20.8028 4.6
      vertex 28.2208 -20.8028 2.15
    endloop
  endfacet
  facet normal 0.838719 -0.544564 0
    outer loop
      vertex 28.7091 -19.3 4.6
      vertex 28.9257 -18.9664 2.15
      vertex 28.9257 -18.9664 4.6
    endloop
  endfacet
  facet normal 0.838719 -0.544564 0
    outer loop
      vertex 28.9257 -18.9664 2.15
      vertex 28.7091 -19.3 4.6
      vertex 28.7091 -19.3 2.15
    endloop
  endfacet
  facet normal 0.890982 -0.454039 0
    outer loop
      vertex 28.5285 -19.6544 4.6
      vertex 28.7091 -19.3 2.15
      vertex 28.7091 -19.3 4.6
    endloop
  endfacet
  facet normal 0.890982 -0.454039 0
    outer loop
      vertex 28.7091 -19.3 2.15
      vertex 28.5285 -19.6544 4.6
      vertex 28.5285 -19.6544 2.15
    endloop
  endfacet
  facet normal 0.933605 -0.358305 0
    outer loop
      vertex 28.386 -20.0257 4.6
      vertex 28.5285 -19.6544 2.15
      vertex 28.5285 -19.6544 4.6
    endloop
  endfacet
  facet normal 0.933605 -0.358305 0
    outer loop
      vertex 28.5285 -19.6544 2.15
      vertex 28.386 -20.0257 4.6
      vertex 28.386 -20.0257 2.15
    endloop
  endfacet
  facet normal 0.777151 -0.629314 0
    outer loop
      vertex 28.9257 -18.9664 4.6
      vertex 29.176 -18.6573 2.15
      vertex 29.176 -18.6573 4.6
    endloop
  endfacet
  facet normal 0.777151 -0.629314 0
    outer loop
      vertex 29.176 -18.6573 2.15
      vertex 28.9257 -18.9664 4.6
      vertex 28.9257 -18.9664 2.15
    endloop
  endfacet
  facet normal -0.0522949 0.998632 0
    outer loop
      vertex 32.3972 -24.9792 2.15
      vertex 32 -25 4.6
      vertex 32.3972 -24.9792 4.6
    endloop
  endfacet
  facet normal -0.0522949 0.998632 0
    outer loop
      vertex 32 -25 4.6
      vertex 32.3972 -24.9792 2.15
      vertex 32 -25 2.15
    endloop
  endfacet
  facet normal -0.9877 -0.156363 0
    outer loop
      vertex 35.7792 -20.8028 2.15
      vertex 35.717 -20.4099 4.6
      vertex 35.717 -20.4099 2.15
    endloop
  endfacet
  facet normal -0.9877 -0.156363 0
    outer loop
      vertex 35.717 -20.4099 4.6
      vertex 35.7792 -20.8028 2.15
      vertex 35.7792 -20.8028 4.6
    endloop
  endfacet
  facet normal -0.965892 -0.258946 0
    outer loop
      vertex 35.717 -20.4099 2.15
      vertex 35.614 -20.0257 4.6
      vertex 35.614 -20.0257 2.15
    endloop
  endfacet
  facet normal -0.965892 -0.258946 0
    outer loop
      vertex 35.614 -20.0257 4.6
      vertex 35.717 -20.4099 2.15
      vertex 35.717 -20.4099 4.6
    endloop
  endfacet
  facet normal -0.358305 -0.933605 0
    outer loop
      vertex 33.1743 -17.586 2.15
      vertex 33.5456 -17.7285 4.6
      vertex 33.1743 -17.586 4.6
    endloop
  endfacet
  facet normal -0.358305 -0.933605 -0
    outer loop
      vertex 33.5456 -17.7285 4.6
      vertex 33.1743 -17.586 2.15
      vertex 33.5456 -17.7285 2.15
    endloop
  endfacet
  facet normal -0.707107 -0.707107 0
    outer loop
      vertex 34.5427 -18.376 2.15
      vertex 34.824 -18.6573 4.6
      vertex 34.5427 -18.376 4.6
    endloop
  endfacet
  facet normal -0.707107 -0.707107 -0
    outer loop
      vertex 34.824 -18.6573 4.6
      vertex 34.5427 -18.376 2.15
      vertex 34.824 -18.6573 2.15
    endloop
  endfacet
  facet normal -0.544564 -0.838719 0
    outer loop
      vertex 33.9 -17.9091 2.15
      vertex 34.2336 -18.1257 4.6
      vertex 33.9 -17.9091 4.6
    endloop
  endfacet
  facet normal -0.544564 -0.838719 -0
    outer loop
      vertex 34.2336 -18.1257 4.6
      vertex 33.9 -17.9091 2.15
      vertex 34.2336 -18.1257 2.15
    endloop
  endfacet
  facet normal -0.838719 -0.544564 0
    outer loop
      vertex 35.2909 -19.3 2.15
      vertex 35.0743 -18.9664 4.6
      vertex 35.0743 -18.9664 2.15
    endloop
  endfacet
  facet normal -0.838719 -0.544564 0
    outer loop
      vertex 35.0743 -18.9664 4.6
      vertex 35.2909 -19.3 2.15
      vertex 35.2909 -19.3 4.6
    endloop
  endfacet
  facet normal 0.258946 -0.965892 0
    outer loop
      vertex 30.8257 -17.586 2.15
      vertex 31.2099 -17.483 4.6
      vertex 30.8257 -17.586 4.6
    endloop
  endfacet
  facet normal 0.258946 -0.965892 0
    outer loop
      vertex 31.2099 -17.483 4.6
      vertex 30.8257 -17.586 2.15
      vertex 31.2099 -17.483 2.15
    endloop
  endfacet
  facet normal 0.454039 -0.890982 0
    outer loop
      vertex 30.1 -17.9091 2.15
      vertex 30.4544 -17.7285 4.6
      vertex 30.1 -17.9091 4.6
    endloop
  endfacet
  facet normal 0.454039 -0.890982 0
    outer loop
      vertex 30.4544 -17.7285 4.6
      vertex 30.1 -17.9091 2.15
      vertex 30.4544 -17.7285 2.15
    endloop
  endfacet
  facet normal 0.629314 -0.777151 0
    outer loop
      vertex 29.4573 -18.376 2.15
      vertex 29.7664 -18.1257 4.6
      vertex 29.4573 -18.376 4.6
    endloop
  endfacet
  facet normal 0.629314 -0.777151 0
    outer loop
      vertex 29.7664 -18.1257 4.6
      vertex 29.4573 -18.376 2.15
      vertex 29.7664 -18.1257 2.15
    endloop
  endfacet
  facet normal 0.965892 -0.258946 0
    outer loop
      vertex 28.283 -20.4099 4.6
      vertex 28.386 -20.0257 2.15
      vertex 28.386 -20.0257 4.6
    endloop
  endfacet
  facet normal 0.965892 -0.258946 0
    outer loop
      vertex 28.386 -20.0257 2.15
      vertex 28.283 -20.4099 4.6
      vertex 28.283 -20.4099 2.15
    endloop
  endfacet
  facet normal -0.619323 0.0324239 -0.784466
    outer loop
      vertex 38.4876 -21.8819 0
      vertex 35.8 -21.2 2.15
      vertex 38.5233 -21.2 0
    endloop
  endfacet
  facet normal -0.619322 0.0324318 -0.784467
    outer loop
      vertex 35.8 -21.2 2.15
      vertex 38.4876 -21.8819 0
      vertex 35.7792 -21.5972 2.15
    endloop
  endfacet
  facet normal 0.619322 -0.0324318 -0.784467
    outer loop
      vertex 28.2 -21.2 2.15
      vertex 25.5124 -20.5181 0
      vertex 28.2208 -20.8028 2.15
    endloop
  endfacet
  facet normal 0.619323 -0.0324239 -0.784466
    outer loop
      vertex 25.5124 -20.5181 0
      vertex 28.2 -21.2 2.15
      vertex 25.4767 -21.2 0
    endloop
  endfacet
  facet normal -0.619323 -0.0324239 -0.784466
    outer loop
      vertex 35.8 -21.2 2.15
      vertex 38.4876 -20.5181 0
      vertex 38.5233 -21.2 0
    endloop
  endfacet
  facet normal -0.619322 -0.0324318 -0.784467
    outer loop
      vertex 38.4876 -20.5181 0
      vertex 35.8 -21.2 2.15
      vertex 35.7792 -20.8028 2.15
    endloop
  endfacet
  facet normal -0.599056 -0.160425 -0.784471
    outer loop
      vertex 38.2041 -19.1842 0
      vertex 38.3147 -19.5972 0
      vertex 35.614 -20.0257 2.15
    endloop
  endfacet
  facet normal -0.552587 0.281515 -0.784472
    outer loop
      vertex 37.8435 -24.0807 0
      vertex 37.6494 -24.4617 0
      vertex 35.2909 -23.1 2.15
    endloop
  endfacet
  facet normal -0.0323441 -0.619325 -0.784468
    outer loop
      vertex 32.427 -14.699 0
      vertex 32 -17.4 2.15
      vertex 32 -14.6767 0
    endloop
  endfacet
  facet normal 0.520098 -0.337788 -0.784473
    outer loop
      vertex 26.5835 -17.5797 0
      vertex 28.7091 -19.3 2.15
      vertex 26.3506 -17.9383 0
    endloop
  endfacet
  facet normal -0.032557 0.619311 -0.78447
    outer loop
      vertex 32.427 -27.701 0
      vertex 32.3972 -24.9792 2.15
      vertex 32.6819 -27.6876 0
    endloop
  endfacet
  facet normal -0.0324314 0.619315 -0.784473
    outer loop
      vertex 32.3972 -24.9792 2.15
      vertex 32.427 -27.701 0
      vertex 32 -25 2.15
    endloop
  endfacet
  facet normal -0.481959 -0.390296 -0.784465
    outer loop
      vertex 37.0084 -17.0334 0
      vertex 37.2775 -17.3657 0
      vertex 35.0743 -18.9664 2.15
    endloop
  endfacet
  facet normal -0.481969 -0.390285 -0.784464
    outer loop
      vertex 34.824 -18.6573 2.15
      vertex 37.0084 -17.0334 0
      vertex 35.0743 -18.9664 2.15
    endloop
  endfacet
  facet normal -0.482037 -0.390197 -0.784466
    outer loop
      vertex 37.0084 -17.0334 0
      vertex 34.824 -18.6573 2.15
      vertex 36.8478 -16.835 0
    endloop
  endfacet
  facet normal 0.281632 -0.552532 -0.784469
    outer loop
      vertex 29.3467 -15.2406 0
      vertex 30.4544 -17.7285 2.15
      vertex 28.9657 -15.4348 0
    endloop
  endfacet
  facet normal 0.552587 -0.281515 -0.784472
    outer loop
      vertex 26.3506 -17.9383 0
      vertex 28.7091 -19.3 2.15
      vertex 26.1565 -18.3193 0
    endloop
  endfacet
  facet normal 0.599056 0.160425 -0.784471
    outer loop
      vertex 28.386 -22.3743 2.15
      vertex 25.7959 -23.2158 0
      vertex 25.6853 -22.8028 0
    endloop
  endfacet
  facet normal 0.619322 0.0324318 -0.784467
    outer loop
      vertex 25.5124 -21.8819 0
      vertex 28.2 -21.2 2.15
      vertex 28.2208 -21.5972 2.15
    endloop
  endfacet
  facet normal 0.619323 0.0324239 -0.784466
    outer loop
      vertex 28.2 -21.2 2.15
      vertex 25.5124 -21.8819 0
      vertex 25.4767 -21.2 0
    endloop
  endfacet
  facet normal 0.482037 0.390197 -0.784466
    outer loop
      vertex 26.9916 -25.3666 0
      vertex 29.176 -23.7427 2.15
      vertex 27.1522 -25.565 0
    endloop
  endfacet
  facet normal 0.481969 0.390285 -0.784464
    outer loop
      vertex 29.176 -23.7427 2.15
      vertex 26.9916 -25.3666 0
      vertex 28.9257 -23.4336 2.15
    endloop
  endfacet
  facet normal -0.0969484 0.612549 -0.784465
    outer loop
      vertex 33.1042 -27.6207 0
      vertex 32.7901 -24.917 2.15
      vertex 33.3563 -27.5808 0
    endloop
  endfacet
  facet normal -0.0969721 0.612546 -0.784464
    outer loop
      vertex 32.7901 -24.917 2.15
      vertex 33.1042 -27.6207 0
      vertex 32.3972 -24.9792 2.15
    endloop
  endfacet
  facet normal -0.438407 0.43865 -0.784465
    outer loop
      vertex 36.6673 -25.7454 0
      vertex 34.824 -23.7427 2.15
      vertex 36.8478 -25.565 0
    endloop
  endfacet
  facet normal -0.438452 0.438608 -0.784464
    outer loop
      vertex 34.824 -23.7427 2.15
      vertex 36.6673 -25.7454 0
      vertex 34.5427 -24.0239 2.15
    endloop
  endfacet
  facet normal -0.612549 0.0969484 -0.784465
    outer loop
      vertex 35.717 -21.9901 2.15
      vertex 38.4207 -22.3042 0
      vertex 38.3808 -22.5563 0
    endloop
  endfacet
  facet normal -0.612546 0.0969721 -0.784464
    outer loop
      vertex 38.4207 -22.3042 0
      vertex 35.717 -21.9901 2.15
      vertex 35.7792 -21.5972 2.15
    endloop
  endfacet
  facet normal -0.599056 0.160425 -0.784471
    outer loop
      vertex 38.3147 -22.8028 0
      vertex 38.2041 -23.2158 0
      vertex 35.614 -22.3743 2.15
    endloop
  endfacet
  facet normal -0.612532 -0.0970362 -0.784467
    outer loop
      vertex 38.3808 -19.8437 0
      vertex 38.4477 -20.266 0
      vertex 35.717 -20.4099 2.15
    endloop
  endfacet
  facet normal -0.599012 -0.160628 -0.784463
    outer loop
      vertex 35.717 -20.4099 2.15
      vertex 38.3147 -19.5972 0
      vertex 38.3808 -19.8437 0
    endloop
  endfacet
  facet normal -0.599023 -0.160592 -0.784463
    outer loop
      vertex 38.3147 -19.5972 0
      vertex 35.717 -20.4099 2.15
      vertex 35.614 -20.0257 2.15
    endloop
  endfacet
  facet normal -0.281632 -0.552532 -0.784469
    outer loop
      vertex 34.6533 -15.2406 0
      vertex 35.0343 -15.4348 0
      vertex 33.5456 -17.7285 2.15
    endloop
  endfacet
  facet normal -0.032557 -0.619311 -0.78447
    outer loop
      vertex 32.3972 -17.4208 2.15
      vertex 32.427 -14.699 0
      vertex 32.6819 -14.7124 0
    endloop
  endfacet
  facet normal -0.0324314 -0.619315 -0.784473
    outer loop
      vertex 32.427 -14.699 0
      vertex 32.3972 -17.4208 2.15
      vertex 32 -17.4 2.15
    endloop
  endfacet
  facet normal -0.281423 -0.552638 -0.78447
    outer loop
      vertex 33.9 -17.9091 2.15
      vertex 35.0343 -15.4348 0
      vertex 35.2617 -15.5506 0
    endloop
  endfacet
  facet normal -0.281582 -0.552562 -0.784466
    outer loop
      vertex 35.0343 -15.4348 0
      vertex 33.9 -17.9091 2.15
      vertex 33.5456 -17.7285 2.15
    endloop
  endfacet
  facet normal 0.0970362 -0.612532 -0.784467
    outer loop
      vertex 31.066 -14.7523 0
      vertex 31.2099 -17.483 2.15
      vertex 30.6437 -14.8192 0
    endloop
  endfacet
  facet normal 0.552559 -0.28158 -0.784469
    outer loop
      vertex 28.5285 -19.6544 2.15
      vertex 26.1565 -18.3193 0
      vertex 28.7091 -19.3 2.15
    endloop
  endfacet
  facet normal 0.55254 -0.281616 -0.78447
    outer loop
      vertex 26.1565 -18.3193 0
      vertex 28.5285 -19.6544 2.15
      vertex 26.0406 -18.5467 0
    endloop
  endfacet
  facet normal 0.578945 0.222325 -0.784471
    outer loop
      vertex 28.386 -22.3743 2.15
      vertex 25.9492 -23.615 0
      vertex 25.7959 -23.2158 0
    endloop
  endfacet
  facet normal 0.390296 0.481959 -0.784465
    outer loop
      vertex 29.7664 -24.2743 2.15
      vertex 28.1657 -26.4775 0
      vertex 27.8334 -26.2084 0
    endloop
  endfacet
  facet normal -0.0970361 0.612531 -0.784468
    outer loop
      vertex 33.1042 -27.6207 0
      vertex 32.6819 -27.6876 0
      vertex 32.3972 -24.9792 2.15
    endloop
  endfacet
  facet normal -0.222199 0.578994 -0.78447
    outer loop
      vertex 34.6533 -27.1594 0
      vertex 34.2541 -27.3126 0
      vertex 33.5456 -24.6715 2.15
    endloop
  endfacet
  facet normal -0.160499 0.599034 -0.784473
    outer loop
      vertex 33.3563 -27.5808 0
      vertex 33.1743 -24.814 2.15
      vertex 34.0158 -27.4041 0
    endloop
  endfacet
  facet normal -0.160591 0.599021 -0.784464
    outer loop
      vertex 33.1743 -24.814 2.15
      vertex 33.3563 -27.5808 0
      vertex 32.7901 -24.917 2.15
    endloop
  endfacet
  facet normal -0.55254 0.281616 -0.78447
    outer loop
      vertex 37.8435 -24.0807 0
      vertex 35.4715 -22.7456 2.15
      vertex 37.9594 -23.8533 0
    endloop
  endfacet
  facet normal -0.552559 0.28158 -0.784469
    outer loop
      vertex 35.4715 -22.7456 2.15
      vertex 37.8435 -24.0807 0
      vertex 35.2909 -23.1 2.15
    endloop
  endfacet
  facet normal -0.520093 0.337797 -0.784473
    outer loop
      vertex 37.2775 -25.0343 0
      vertex 35.2909 -23.1 2.15
      vertex 37.6494 -24.4617 0
    endloop
  endfacet
  facet normal -0.520153 0.337725 -0.784464
    outer loop
      vertex 35.2909 -23.1 2.15
      vertex 37.2775 -25.0343 0
      vertex 35.0743 -23.4336 2.15
    endloop
  endfacet
  facet normal -0.612531 0.0970361 -0.784468
    outer loop
      vertex 38.4876 -21.8819 0
      vertex 38.4207 -22.3042 0
      vertex 35.7792 -21.5972 2.15
    endloop
  endfacet
  facet normal -0.612542 -0.0969474 -0.78447
    outer loop
      vertex 35.7792 -20.8028 2.15
      vertex 38.4477 -20.266 0
      vertex 38.4876 -20.5181 0
    endloop
  endfacet
  facet normal -0.612538 -0.0969709 -0.78447
    outer loop
      vertex 38.4477 -20.266 0
      vertex 35.7792 -20.8028 2.15
      vertex 35.717 -20.4099 2.15
    endloop
  endfacet
  facet normal -0.578997 -0.222211 -0.784464
    outer loop
      vertex 35.4715 -19.6544 2.15
      vertex 38.0508 -18.785 0
      vertex 35.614 -20.0257 2.15
    endloop
  endfacet
  facet normal -0.57904 -0.222091 -0.784467
    outer loop
      vertex 38.0508 -18.785 0
      vertex 35.4715 -19.6544 2.15
      vertex 37.9594 -18.5467 0
    endloop
  endfacet
  facet normal -0.578945 -0.222325 -0.784471
    outer loop
      vertex 38.0508 -18.785 0
      vertex 38.2041 -19.1842 0
      vertex 35.614 -20.0257 2.15
    endloop
  endfacet
  facet normal -0.160399 -0.599064 -0.784471
    outer loop
      vertex 33.1743 -17.586 2.15
      vertex 33.7693 -14.9299 0
      vertex 34.0158 -14.9959 0
    endloop
  endfacet
  facet normal -0.16059 -0.599018 -0.784467
    outer loop
      vertex 33.7693 -14.9299 0
      vertex 33.1743 -17.586 2.15
      vertex 32.7901 -17.483 2.15
    endloop
  endfacet
  facet normal -0.222199 -0.578994 -0.78447
    outer loop
      vertex 34.2541 -15.0874 0
      vertex 34.6533 -15.2406 0
      vertex 33.5456 -17.7285 2.15
    endloop
  endfacet
  facet normal -0.160563 -0.599028 -0.784465
    outer loop
      vertex 33.3563 -14.8192 0
      vertex 33.7693 -14.9299 0
      vertex 32.7901 -17.483 2.15
    endloop
  endfacet
  facet normal -0.0970362 -0.612532 -0.784467
    outer loop
      vertex 32.934 -14.7523 0
      vertex 33.3563 -14.8192 0
      vertex 32.7901 -17.483 2.15
    endloop
  endfacet
  facet normal -0.337793 -0.520105 -0.784466
    outer loop
      vertex 35.4757 -15.6896 0
      vertex 35.8343 -15.9225 0
      vertex 34.2336 -18.1257 2.15
    endloop
  endfacet
  facet normal -0.438525 -0.438525 -0.784469
    outer loop
      vertex 34.824 -18.6573 2.15
      vertex 36.365 -16.3522 0
      vertex 36.8478 -16.835 0
    endloop
  endfacet
  facet normal -0.438525 -0.438525 -0.784469
    outer loop
      vertex 36.365 -16.3522 0
      vertex 34.824 -18.6573 2.15
      vertex 34.5427 -18.376 2.15
    endloop
  endfacet
  facet normal 0.520147 -0.337722 -0.784469
    outer loop
      vertex 26.5835 -17.5797 0
      vertex 28.9257 -18.9664 2.15
      vertex 28.7091 -19.3 2.15
    endloop
  endfacet
  facet normal 0.52009 -0.337815 -0.784466
    outer loop
      vertex 28.9257 -18.9664 2.15
      vertex 26.5835 -17.5797 0
      vertex 26.7225 -17.3657 0
    endloop
  endfacet
  facet normal 0.612532 -0.0970362 -0.784467
    outer loop
      vertex 25.6192 -19.8437 0
      vertex 28.283 -20.4099 2.15
      vertex 25.5523 -20.266 0
    endloop
  endfacet
  facet normal 0.599056 -0.160425 -0.784471
    outer loop
      vertex 25.7959 -19.1842 0
      vertex 28.386 -20.0257 2.15
      vertex 25.6853 -19.5972 0
    endloop
  endfacet
  facet normal 0.612538 -0.0969709 -0.78447
    outer loop
      vertex 28.2208 -20.8028 2.15
      vertex 25.5523 -20.266 0
      vertex 28.283 -20.4099 2.15
    endloop
  endfacet
  facet normal 0.612542 -0.0969474 -0.78447
    outer loop
      vertex 25.5523 -20.266 0
      vertex 28.2208 -20.8028 2.15
      vertex 25.5124 -20.5181 0
    endloop
  endfacet
  facet normal 0.390292 -0.481955 -0.784469
    outer loop
      vertex 27.9673 -16.0831 0
      vertex 29.4573 -18.376 2.15
      vertex 27.635 -16.3522 0
    endloop
  endfacet
  facet normal 0.281582 -0.552562 -0.784466
    outer loop
      vertex 30.1 -17.9091 2.15
      vertex 28.9657 -15.4348 0
      vertex 30.4544 -17.7285 2.15
    endloop
  endfacet
  facet normal 0.281423 -0.552638 -0.78447
    outer loop
      vertex 28.9657 -15.4348 0
      vertex 30.1 -17.9091 2.15
      vertex 28.7383 -15.5506 0
    endloop
  endfacet
  facet normal 0.337793 -0.520105 -0.784466
    outer loop
      vertex 28.5243 -15.6896 0
      vertex 29.7664 -18.1257 2.15
      vertex 28.1657 -15.9225 0
    endloop
  endfacet
  facet normal 0.612531 0.0970361 -0.784468
    outer loop
      vertex 28.2208 -21.5972 2.15
      vertex 25.5793 -22.3042 0
      vertex 25.5124 -21.8819 0
    endloop
  endfacet
  facet normal 0.0969721 0.612546 -0.784464
    outer loop
      vertex 30.8958 -27.6207 0
      vertex 31.2099 -24.917 2.15
      vertex 31.6028 -24.9792 2.15
    endloop
  endfacet
  facet normal 0.0969484 0.612549 -0.784465
    outer loop
      vertex 31.2099 -24.917 2.15
      vertex 30.8958 -27.6207 0
      vertex 30.6437 -27.5808 0
    endloop
  endfacet
  facet normal 0.337717 0.520141 -0.784475
    outer loop
      vertex 28.7383 -26.8494 0
      vertex 29.7664 -24.2743 2.15
      vertex 30.1 -24.4909 2.15
    endloop
  endfacet
  facet normal 0.337801 0.5201 -0.784466
    outer loop
      vertex 29.7664 -24.2743 2.15
      vertex 28.7383 -26.8494 0
      vertex 28.1657 -26.4775 0
    endloop
  endfacet
  facet normal 0.520153 0.337725 -0.784464
    outer loop
      vertex 26.7225 -25.0343 0
      vertex 28.7091 -23.1 2.15
      vertex 28.9257 -23.4336 2.15
    endloop
  endfacet
  facet normal 0.520093 0.337797 -0.784473
    outer loop
      vertex 28.7091 -23.1 2.15
      vertex 26.7225 -25.0343 0
      vertex 26.3506 -24.4617 0
    endloop
  endfacet
  facet normal 0.57904 0.222091 -0.784467
    outer loop
      vertex 25.9492 -23.615 0
      vertex 28.5285 -22.7456 2.15
      vertex 26.0406 -23.8533 0
    endloop
  endfacet
  facet normal 0.578997 0.222211 -0.784464
    outer loop
      vertex 28.5285 -22.7456 2.15
      vertex 25.9492 -23.615 0
      vertex 28.386 -22.3743 2.15
    endloop
  endfacet
  facet normal -0.390296 0.481959 -0.784465
    outer loop
      vertex 36.1666 -26.2084 0
      vertex 35.8343 -26.4775 0
      vertex 34.2336 -24.2743 2.15
    endloop
  endfacet
  facet normal -0.438592 0.438447 -0.784475
    outer loop
      vertex 36.6673 -25.7454 0
      vertex 36.365 -26.0478 0
      vertex 34.5427 -24.0239 2.15
    endloop
  endfacet
  facet normal -0.281423 0.552638 -0.78447
    outer loop
      vertex 35.0343 -26.9652 0
      vertex 33.9 -24.4909 2.15
      vertex 35.2617 -26.8494 0
    endloop
  endfacet
  facet normal -0.281582 0.552562 -0.784466
    outer loop
      vertex 33.9 -24.4909 2.15
      vertex 35.0343 -26.9652 0
      vertex 33.5456 -24.6715 2.15
    endloop
  endfacet
  facet normal -0.222301 0.578953 -0.784471
    outer loop
      vertex 33.1743 -24.814 2.15
      vertex 34.2541 -27.3126 0
      vertex 34.0158 -27.4041 0
    endloop
  endfacet
  facet normal -0.222209 0.578991 -0.784469
    outer loop
      vertex 34.2541 -27.3126 0
      vertex 33.1743 -24.814 2.15
      vertex 33.5456 -24.6715 2.15
    endloop
  endfacet
  facet normal -0.578945 0.222325 -0.784471
    outer loop
      vertex 38.2041 -23.2158 0
      vertex 38.0508 -23.615 0
      vertex 35.614 -22.3743 2.15
    endloop
  endfacet
  facet normal -0.599012 0.160628 -0.784463
    outer loop
      vertex 38.3147 -22.8028 0
      vertex 35.717 -21.9901 2.15
      vertex 38.3808 -22.5563 0
    endloop
  endfacet
  facet normal -0.599023 0.160592 -0.784463
    outer loop
      vertex 35.717 -21.9901 2.15
      vertex 38.3147 -22.8028 0
      vertex 35.614 -22.3743 2.15
    endloop
  endfacet
  facet normal -0.482037 0.390197 -0.784466
    outer loop
      vertex 34.824 -23.7427 2.15
      vertex 37.0084 -25.3666 0
      vertex 36.8478 -25.565 0
    endloop
  endfacet
  facet normal -0.481969 0.390285 -0.784464
    outer loop
      vertex 37.0084 -25.3666 0
      vertex 34.824 -23.7427 2.15
      vertex 35.0743 -23.4336 2.15
    endloop
  endfacet
  facet normal -0.481959 0.390296 -0.784465
    outer loop
      vertex 37.2775 -25.0343 0
      vertex 37.0084 -25.3666 0
      vertex 35.0743 -23.4336 2.15
    endloop
  endfacet
  facet normal -0.520147 -0.337722 -0.784469
    outer loop
      vertex 35.0743 -18.9664 2.15
      vertex 37.4165 -17.5797 0
      vertex 35.2909 -19.3 2.15
    endloop
  endfacet
  facet normal -0.52009 -0.337815 -0.784466
    outer loop
      vertex 37.4165 -17.5797 0
      vertex 35.0743 -18.9664 2.15
      vertex 37.2775 -17.3657 0
    endloop
  endfacet
  facet normal -0.55254 -0.281616 -0.78447
    outer loop
      vertex 35.4715 -19.6544 2.15
      vertex 37.8435 -18.3193 0
      vertex 37.9594 -18.5467 0
    endloop
  endfacet
  facet normal -0.552559 -0.28158 -0.784469
    outer loop
      vertex 37.8435 -18.3193 0
      vertex 35.4715 -19.6544 2.15
      vertex 35.2909 -19.3 2.15
    endloop
  endfacet
  facet normal -0.0969709 -0.612538 -0.78447
    outer loop
      vertex 32.3972 -17.4208 2.15
      vertex 32.934 -14.7523 0
      vertex 32.7901 -17.483 2.15
    endloop
  endfacet
  facet normal -0.0969474 -0.612542 -0.78447
    outer loop
      vertex 32.934 -14.7523 0
      vertex 32.3972 -17.4208 2.15
      vertex 32.6819 -14.7124 0
    endloop
  endfacet
  facet normal -0.222209 -0.578991 -0.784469
    outer loop
      vertex 33.1743 -17.586 2.15
      vertex 34.2541 -15.0874 0
      vertex 33.5456 -17.7285 2.15
    endloop
  endfacet
  facet normal -0.222301 -0.578953 -0.784471
    outer loop
      vertex 34.2541 -15.0874 0
      vertex 33.1743 -17.586 2.15
      vertex 34.0158 -14.9959 0
    endloop
  endfacet
  facet normal -0.337721 -0.520146 -0.78447
    outer loop
      vertex 33.9 -17.9091 2.15
      vertex 35.4757 -15.6896 0
      vertex 34.2336 -18.1257 2.15
    endloop
  endfacet
  facet normal -0.337811 -0.520084 -0.784472
    outer loop
      vertex 35.4757 -15.6896 0
      vertex 33.9 -17.9091 2.15
      vertex 35.2617 -15.5506 0
    endloop
  endfacet
  facet normal -0.390292 -0.481955 -0.784469
    outer loop
      vertex 36.0327 -16.0831 0
      vertex 36.365 -16.3522 0
      vertex 34.5427 -18.376 2.15
    endloop
  endfacet
  facet normal -0.39028 -0.481963 -0.78447
    outer loop
      vertex 34.2336 -18.1257 2.15
      vertex 36.0327 -16.0831 0
      vertex 34.5427 -18.376 2.15
    endloop
  endfacet
  facet normal -0.390196 -0.482035 -0.784468
    outer loop
      vertex 36.0327 -16.0831 0
      vertex 34.2336 -18.1257 2.15
      vertex 35.8343 -15.9225 0
    endloop
  endfacet
  facet normal 0.578945 -0.222325 -0.784471
    outer loop
      vertex 25.9492 -18.785 0
      vertex 28.386 -20.0257 2.15
      vertex 25.7959 -19.1842 0
    endloop
  endfacet
  facet normal 0.599023 -0.160592 -0.784463
    outer loop
      vertex 28.283 -20.4099 2.15
      vertex 25.6853 -19.5972 0
      vertex 28.386 -20.0257 2.15
    endloop
  endfacet
  facet normal 0.599012 -0.160628 -0.784463
    outer loop
      vertex 25.6853 -19.5972 0
      vertex 28.283 -20.4099 2.15
      vertex 25.6192 -19.8437 0
    endloop
  endfacet
  facet normal 0.481969 -0.390285 -0.784464
    outer loop
      vertex 26.9916 -17.0334 0
      vertex 29.176 -18.6573 2.15
      vertex 28.9257 -18.9664 2.15
    endloop
  endfacet
  facet normal 0.482037 -0.390197 -0.784466
    outer loop
      vertex 29.176 -18.6573 2.15
      vertex 26.9916 -17.0334 0
      vertex 27.1522 -16.835 0
    endloop
  endfacet
  facet normal 0.481959 -0.390296 -0.784465
    outer loop
      vertex 26.9916 -17.0334 0
      vertex 28.9257 -18.9664 2.15
      vertex 26.7225 -17.3657 0
    endloop
  endfacet
  facet normal 0.160563 -0.599028 -0.784465
    outer loop
      vertex 30.6437 -14.8192 0
      vertex 31.2099 -17.483 2.15
      vertex 30.2307 -14.9299 0
    endloop
  endfacet
  facet normal 0.222199 -0.578994 -0.78447
    outer loop
      vertex 29.7459 -15.0874 0
      vertex 30.4544 -17.7285 2.15
      vertex 29.3467 -15.2406 0
    endloop
  endfacet
  facet normal 0.39028 -0.481963 -0.78447
    outer loop
      vertex 27.9673 -16.0831 0
      vertex 29.7664 -18.1257 2.15
      vertex 29.4573 -18.376 2.15
    endloop
  endfacet
  facet normal 0.390196 -0.482035 -0.784468
    outer loop
      vertex 29.7664 -18.1257 2.15
      vertex 27.9673 -16.0831 0
      vertex 28.1657 -15.9225 0
    endloop
  endfacet
  facet normal 0.599023 0.160592 -0.784463
    outer loop
      vertex 25.6853 -22.8028 0
      vertex 28.283 -21.9901 2.15
      vertex 28.386 -22.3743 2.15
    endloop
  endfacet
  facet normal 0.599012 0.160628 -0.784463
    outer loop
      vertex 28.283 -21.9901 2.15
      vertex 25.6853 -22.8028 0
      vertex 25.6192 -22.5563 0
    endloop
  endfacet
  facet normal 0.0324318 0.619323 -0.784466
    outer loop
      vertex 32 -27.7233 0
      vertex 31.6028 -24.9792 2.15
      vertex 32 -25 2.15
    endloop
  endfacet
  facet normal 0.0324238 0.619322 -0.784467
    outer loop
      vertex 31.6028 -24.9792 2.15
      vertex 32 -27.7233 0
      vertex 31.3181 -27.6876 0
    endloop
  endfacet
  facet normal 0.0970361 0.612531 -0.784468
    outer loop
      vertex 31.6028 -24.9792 2.15
      vertex 31.3181 -27.6876 0
      vertex 30.8958 -27.6207 0
    endloop
  endfacet
  facet normal -0.0323441 0.619325 -0.784468
    outer loop
      vertex 32.427 -27.701 0
      vertex 32 -27.7233 0
      vertex 32 -25 2.15
    endloop
  endfacet
  facet normal 0.222301 0.578953 -0.784471
    outer loop
      vertex 29.7459 -27.3126 0
      vertex 30.8257 -24.814 2.15
      vertex 29.9842 -27.4041 0
    endloop
  endfacet
  facet normal 0.222209 0.578991 -0.784469
    outer loop
      vertex 30.8257 -24.814 2.15
      vertex 29.7459 -27.3126 0
      vertex 30.4544 -24.6715 2.15
    endloop
  endfacet
  facet normal 0.390374 0.481887 -0.78447
    outer loop
      vertex 27.8334 -26.2084 0
      vertex 29.4573 -24.0239 2.15
      vertex 29.7664 -24.2743 2.15
    endloop
  endfacet
  facet normal 0.39019 0.482028 -0.784475
    outer loop
      vertex 29.4573 -24.0239 2.15
      vertex 27.8334 -26.2084 0
      vertex 27.635 -26.0478 0
    endloop
  endfacet
  facet normal 0.438592 0.438447 -0.784475
    outer loop
      vertex 29.4573 -24.0239 2.15
      vertex 27.635 -26.0478 0
      vertex 27.3327 -25.7454 0
    endloop
  endfacet
  facet normal 0.222199 0.578994 -0.78447
    outer loop
      vertex 30.4544 -24.6715 2.15
      vertex 29.7459 -27.3126 0
      vertex 29.3467 -27.1594 0
    endloop
  endfacet
  facet normal 0.481959 0.390296 -0.784465
    outer loop
      vertex 28.9257 -23.4336 2.15
      vertex 26.9916 -25.3666 0
      vertex 26.7225 -25.0343 0
    endloop
  endfacet
  facet normal 0.438452 0.438608 -0.784464
    outer loop
      vertex 27.3327 -25.7454 0
      vertex 29.176 -23.7427 2.15
      vertex 29.4573 -24.0239 2.15
    endloop
  endfacet
  facet normal 0.438407 0.43865 -0.784465
    outer loop
      vertex 29.176 -23.7427 2.15
      vertex 27.3327 -25.7454 0
      vertex 27.1522 -25.565 0
    endloop
  endfacet
  facet normal 0.552559 0.28158 -0.784469
    outer loop
      vertex 26.1565 -24.0807 0
      vertex 28.5285 -22.7456 2.15
      vertex 28.7091 -23.1 2.15
    endloop
  endfacet
  facet normal 0.55254 0.281616 -0.78447
    outer loop
      vertex 28.5285 -22.7456 2.15
      vertex 26.1565 -24.0807 0
      vertex 26.0406 -23.8533 0
    endloop
  endfacet
  facet normal 0.552587 0.281515 -0.784472
    outer loop
      vertex 28.7091 -23.1 2.15
      vertex 26.3506 -24.4617 0
      vertex 26.1565 -24.0807 0
    endloop
  endfacet
  facet normal -0.39019 0.482028 -0.784475
    outer loop
      vertex 36.1666 -26.2084 0
      vertex 34.5427 -24.0239 2.15
      vertex 36.365 -26.0478 0
    endloop
  endfacet
  facet normal -0.390374 0.481887 -0.78447
    outer loop
      vertex 34.5427 -24.0239 2.15
      vertex 36.1666 -26.2084 0
      vertex 34.2336 -24.2743 2.15
    endloop
  endfacet
  facet normal -0.281632 0.552532 -0.784469
    outer loop
      vertex 35.0343 -26.9652 0
      vertex 34.6533 -27.1594 0
      vertex 33.5456 -24.6715 2.15
    endloop
  endfacet
  facet normal -0.57904 0.222091 -0.784467
    outer loop
      vertex 35.4715 -22.7456 2.15
      vertex 38.0508 -23.615 0
      vertex 37.9594 -23.8533 0
    endloop
  endfacet
  facet normal -0.578997 0.222211 -0.784464
    outer loop
      vertex 38.0508 -23.615 0
      vertex 35.4715 -22.7456 2.15
      vertex 35.614 -22.3743 2.15
    endloop
  endfacet
  facet normal -0.552587 -0.281515 -0.784472
    outer loop
      vertex 37.6494 -17.9383 0
      vertex 37.8435 -18.3193 0
      vertex 35.2909 -19.3 2.15
    endloop
  endfacet
  facet normal -0.520098 -0.337788 -0.784473
    outer loop
      vertex 37.4165 -17.5797 0
      vertex 37.6494 -17.9383 0
      vertex 35.2909 -19.3 2.15
    endloop
  endfacet
  facet normal 0.578997 -0.222211 -0.784464
    outer loop
      vertex 25.9492 -18.785 0
      vertex 28.5285 -19.6544 2.15
      vertex 28.386 -20.0257 2.15
    endloop
  endfacet
  facet normal 0.57904 -0.222091 -0.784467
    outer loop
      vertex 28.5285 -19.6544 2.15
      vertex 25.9492 -18.785 0
      vertex 26.0406 -18.5467 0
    endloop
  endfacet
  facet normal 0.438525 -0.438525 -0.784469
    outer loop
      vertex 29.176 -18.6573 2.15
      vertex 27.635 -16.3522 0
      vertex 29.4573 -18.376 2.15
    endloop
  endfacet
  facet normal 0.438525 -0.438525 -0.784469
    outer loop
      vertex 27.635 -16.3522 0
      vertex 29.176 -18.6573 2.15
      vertex 27.1522 -16.835 0
    endloop
  endfacet
  facet normal 0.0324318 -0.619323 -0.784466
    outer loop
      vertex 31.6028 -17.4208 2.15
      vertex 32 -14.6767 0
      vertex 32 -17.4 2.15
    endloop
  endfacet
  facet normal 0.0324238 -0.619322 -0.784467
    outer loop
      vertex 32 -14.6767 0
      vertex 31.6028 -17.4208 2.15
      vertex 31.3181 -14.7124 0
    endloop
  endfacet
  facet normal 0.16059 -0.599018 -0.784467
    outer loop
      vertex 30.8257 -17.586 2.15
      vertex 30.2307 -14.9299 0
      vertex 31.2099 -17.483 2.15
    endloop
  endfacet
  facet normal 0.160399 -0.599064 -0.784471
    outer loop
      vertex 30.2307 -14.9299 0
      vertex 30.8257 -17.586 2.15
      vertex 29.9842 -14.9959 0
    endloop
  endfacet
  facet normal 0.222209 -0.578991 -0.784469
    outer loop
      vertex 29.7459 -15.0874 0
      vertex 30.8257 -17.586 2.15
      vertex 30.4544 -17.7285 2.15
    endloop
  endfacet
  facet normal 0.222301 -0.578953 -0.784471
    outer loop
      vertex 30.8257 -17.586 2.15
      vertex 29.7459 -15.0874 0
      vertex 29.9842 -14.9959 0
    endloop
  endfacet
  facet normal 0.337721 -0.520146 -0.78447
    outer loop
      vertex 28.5243 -15.6896 0
      vertex 30.1 -17.9091 2.15
      vertex 29.7664 -18.1257 2.15
    endloop
  endfacet
  facet normal 0.337811 -0.520084 -0.784472
    outer loop
      vertex 30.1 -17.9091 2.15
      vertex 28.5243 -15.6896 0
      vertex 28.7383 -15.5506 0
    endloop
  endfacet
  facet normal 0.612549 0.0969484 -0.784465
    outer loop
      vertex 25.5793 -22.3042 0
      vertex 28.283 -21.9901 2.15
      vertex 25.6192 -22.5563 0
    endloop
  endfacet
  facet normal 0.612546 0.0969721 -0.784464
    outer loop
      vertex 28.283 -21.9901 2.15
      vertex 25.5793 -22.3042 0
      vertex 28.2208 -21.5972 2.15
    endloop
  endfacet
  facet normal 0.160591 0.599021 -0.784464
    outer loop
      vertex 30.6437 -27.5808 0
      vertex 30.8257 -24.814 2.15
      vertex 31.2099 -24.917 2.15
    endloop
  endfacet
  facet normal 0.160499 0.599034 -0.784473
    outer loop
      vertex 30.8257 -24.814 2.15
      vertex 30.6437 -27.5808 0
      vertex 29.9842 -27.4041 0
    endloop
  endfacet
  facet normal 0.281582 0.552562 -0.784466
    outer loop
      vertex 28.9657 -26.9652 0
      vertex 30.1 -24.4909 2.15
      vertex 30.4544 -24.6715 2.15
    endloop
  endfacet
  facet normal 0.281423 0.552638 -0.78447
    outer loop
      vertex 30.1 -24.4909 2.15
      vertex 28.9657 -26.9652 0
      vertex 28.7383 -26.8494 0
    endloop
  endfacet
  facet normal -0.337801 0.5201 -0.784466
    outer loop
      vertex 35.2617 -26.8494 0
      vertex 34.2336 -24.2743 2.15
      vertex 35.8343 -26.4775 0
    endloop
  endfacet
  facet normal -0.337717 0.520141 -0.784475
    outer loop
      vertex 34.2336 -24.2743 2.15
      vertex 35.2617 -26.8494 0
      vertex 33.9 -24.4909 2.15
    endloop
  endfacet
  facet normal 0.0969709 -0.612538 -0.78447
    outer loop
      vertex 31.066 -14.7523 0
      vertex 31.6028 -17.4208 2.15
      vertex 31.2099 -17.483 2.15
    endloop
  endfacet
  facet normal 0.0969474 -0.612542 -0.78447
    outer loop
      vertex 31.6028 -17.4208 2.15
      vertex 31.066 -14.7523 0
      vertex 31.3181 -14.7124 0
    endloop
  endfacet
  facet normal 0.281632 0.552532 -0.784469
    outer loop
      vertex 30.4544 -24.6715 2.15
      vertex 29.3467 -27.1594 0
      vertex 28.9657 -26.9652 0
    endloop
  endfacet
  facet normal -1 0 0
    outer loop
      vertex 0 -37.4 0
      vertex 0 -5 5
      vertex 0 -5 0
    endloop
  endfacet
  facet normal -1 -0 0
    outer loop
      vertex 0 -5 5
      vertex 0 -37.4 0
      vertex 0 -37.4 5
    endloop
  endfacet
  facet normal 0 0 1
    outer loop
      vertex 45.3 -5 5
      vertex 44.05 -6.25 5
      vertex 45.3 -37.4 5
    endloop
  endfacet
  facet normal 0 0 1
    outer loop
      vertex 45.3 -5 5
      vertex 1.25 -6.25 5
      vertex 44.05 -6.25 5
    endloop
  endfacet
  facet normal 0 0 1
    outer loop
      vertex 1.25 -6.25 5
      vertex 0 -5 5
      vertex 1.25 -36.15 5
    endloop
  endfacet
  facet normal -0 0 1
    outer loop
      vertex 0 -5 5
      vertex 1.25 -6.25 5
      vertex 45.3 -5 5
    endloop
  endfacet
  facet normal -0 0 1
    outer loop
      vertex 44.05 -36.15 5
      vertex 45.3 -37.4 5
      vertex 44.05 -6.25 5
    endloop
  endfacet
  facet normal -0 0 1
    outer loop
      vertex 1.25 -36.15 5
      vertex 45.3 -37.4 5
      vertex 44.05 -36.15 5
    endloop
  endfacet
  facet normal 0 0 1
    outer loop
      vertex 1.25 -36.15 5
      vertex 0 -37.4 5
      vertex 45.3 -37.4 5
    endloop
  endfacet
  facet normal 0 0 1
    outer loop
      vertex 0 -37.4 5
      vertex 1.25 -36.15 5
      vertex 0 -5 5
    endloop
  endfacet
  facet normal 1 -0 0
    outer loop
      vertex 45.3 -37.4 5
      vertex 45.3 -5 0
      vertex 45.3 -5 5
    endloop
  endfacet
  facet normal 1 0 0
    outer loop
      vertex 45.3 -5 0
      vertex 45.3 -37.4 5
      vertex 45.3 -37.4 0
    endloop
  endfacet
  facet normal 0 1 -0
    outer loop
      vertex 45.3 -5 0
      vertex 0 -5 5
      vertex 45.3 -5 5
    endloop
  endfacet
  facet normal 0 1 0
    outer loop
      vertex 0 -5 5
      vertex 45.3 -5 0
      vertex 0 -5 0
    endloop
  endfacet
  facet normal 0 -1 0
    outer loop
      vertex 0 -37.4 0
      vertex 45.3 -37.4 5
      vertex 0 -37.4 5
    endloop
  endfacet
  facet normal 0 -1 -0
    outer loop
      vertex 45.3 -37.4 5
      vertex 0 -37.4 0
      vertex 45.3 -37.4 0
    endloop
  endfacet
  facet normal -1 0 0
    outer loop
      vertex 1.25 -36.15 5
      vertex 1.25 -6.25 10
      vertex 1.25 -6.25 5
    endloop
  endfacet
  facet normal -1 -0 0
    outer loop
      vertex 1.25 -6.25 10
      vertex 1.25 -36.15 5
      vertex 1.25 -36.15 10
    endloop
  endfacet
  facet normal 1 -0 0
    outer loop
      vertex 44.05 -36.15 10
      vertex 44.05 -6.25 5
      vertex 44.05 -6.25 10
    endloop
  endfacet
  facet normal 1 0 0
    outer loop
      vertex 44.05 -6.25 5
      vertex 44.05 -36.15 10
      vertex 44.05 -36.15 5
    endloop
  endfacet
  facet normal 0 1 -0
    outer loop
      vertex 44.05 -6.25 5
      vertex 1.25 -6.25 10
      vertex 44.05 -6.25 10
    endloop
  endfacet
  facet normal 0 1 0
    outer loop
      vertex 1.25 -6.25 10
      vertex 44.05 -6.25 5
      vertex 1.25 -6.25 5
    endloop
  endfacet
  facet normal 0 -1 0
    outer loop
      vertex 1.25 -36.15 5
      vertex 44.05 -36.15 10
      vertex 1.25 -36.15 10
    endloop
  endfacet
  facet normal 0 -1 -0
    outer loop
      vertex 44.05 -36.15 10
      vertex 1.25 -36.15 5
      vertex 44.05 -36.15 5
    endloop
  endfacet
  facet normal 0 0 -1
    outer loop
      vertex 45.3 -37.4 0
      vertex 38.5233 -21.2 0
      vertex 45.3 -5 0
    endloop
  endfacet
  facet normal 0 0 -1
    outer loop
      vertex 45.3 -37.4 0
      vertex 38.4876 -21.8819 0
      vertex 38.5233 -21.2 0
    endloop
  endfacet
  facet normal 0 0 -1
    outer loop
      vertex 45.3 -37.4 0
      vertex 38.4207 -22.3042 0
      vertex 38.4876 -21.8819 0
    endloop
  endfacet
  facet normal 0 0 -1
    outer loop
      vertex 45.3 -37.4 0
      vertex 38.3808 -22.5563 0
      vertex 38.4207 -22.3042 0
    endloop
  endfacet
  facet normal 0 0 -1
    outer loop
      vertex 45.3 -37.4 0
      vertex 38.3147 -22.8028 0
      vertex 38.3808 -22.5563 0
    endloop
  endfacet
  facet normal 0 0 -1
    outer loop
      vertex 45.3 -37.4 0
      vertex 38.2041 -23.2158 0
      vertex 38.3147 -22.8028 0
    endloop
  endfacet
  facet normal 0 0 -1
    outer loop
      vertex 45.3 -37.4 0
      vertex 38.0508 -23.615 0
      vertex 38.2041 -23.2158 0
    endloop
  endfacet
  facet normal 0 0 -1
    outer loop
      vertex 45.3 -37.4 0
      vertex 37.9594 -23.8533 0
      vertex 38.0508 -23.615 0
    endloop
  endfacet
  facet normal 0 0 -1
    outer loop
      vertex 45.3 -37.4 0
      vertex 37.8435 -24.0807 0
      vertex 37.9594 -23.8533 0
    endloop
  endfacet
  facet normal 0 0 -1
    outer loop
      vertex 45.3 -37.4 0
      vertex 37.6494 -24.4617 0
      vertex 37.8435 -24.0807 0
    endloop
  endfacet
  facet normal 0 0 -1
    outer loop
      vertex 45.3 -37.4 0
      vertex 37.2775 -25.0343 0
      vertex 37.6494 -24.4617 0
    endloop
  endfacet
  facet normal 0 0 -1
    outer loop
      vertex 45.3 -37.4 0
      vertex 37.0084 -25.3666 0
      vertex 37.2775 -25.0343 0
    endloop
  endfacet
  facet normal 0 0 -1
    outer loop
      vertex 45.3 -37.4 0
      vertex 36.8478 -25.565 0
      vertex 37.0084 -25.3666 0
    endloop
  endfacet
  facet normal 0 0 -1
    outer loop
      vertex 45.3 -37.4 0
      vertex 36.6673 -25.7454 0
      vertex 36.8478 -25.565 0
    endloop
  endfacet
  facet normal 0 0 -1
    outer loop
      vertex 45.3 -37.4 0
      vertex 36.365 -26.0478 0
      vertex 36.6673 -25.7454 0
    endloop
  endfacet
  facet normal 0 0 -1
    outer loop
      vertex 45.3 -37.4 0
      vertex 36.1666 -26.2084 0
      vertex 36.365 -26.0478 0
    endloop
  endfacet
  facet normal 0 0 -1
    outer loop
      vertex 45.3 -37.4 0
      vertex 35.8343 -26.4775 0
      vertex 36.1666 -26.2084 0
    endloop
  endfacet
  facet normal 0 0 -1
    outer loop
      vertex 45.3 -37.4 0
      vertex 35.2617 -26.8494 0
      vertex 35.8343 -26.4775 0
    endloop
  endfacet
  facet normal 0 0 -1
    outer loop
      vertex 45.3 -37.4 0
      vertex 35.0343 -26.9652 0
      vertex 35.2617 -26.8494 0
    endloop
  endfacet
  facet normal 0 0 -1
    outer loop
      vertex 45.3 -37.4 0
      vertex 34.6533 -27.1594 0
      vertex 35.0343 -26.9652 0
    endloop
  endfacet
  facet normal 0 0 -1
    outer loop
      vertex 45.3 -37.4 0
      vertex 34.2541 -27.3126 0
      vertex 34.6533 -27.1594 0
    endloop
  endfacet
  facet normal 0 0 -1
    outer loop
      vertex 45.3 -37.4 0
      vertex 34.0158 -27.4041 0
      vertex 34.2541 -27.3126 0
    endloop
  endfacet
  facet normal 0 0 -1
    outer loop
      vertex 45.3 -37.4 0
      vertex 33.3563 -27.5808 0
      vertex 34.0158 -27.4041 0
    endloop
  endfacet
  facet normal 0 0 -1
    outer loop
      vertex 45.3 -37.4 0
      vertex 33.1042 -27.6207 0
      vertex 33.3563 -27.5808 0
    endloop
  endfacet
  facet normal 0 0 -1
    outer loop
      vertex 45.3 -37.4 0
      vertex 32.6819 -27.6876 0
      vertex 33.1042 -27.6207 0
    endloop
  endfacet
  facet normal 0 0 -1
    outer loop
      vertex 45.3 -37.4 0
      vertex 32.427 -27.701 0
      vertex 32.6819 -27.6876 0
    endloop
  endfacet
  facet normal 0 0 -1
    outer loop
      vertex 45.3 -37.4 0
      vertex 32 -27.7233 0
      vertex 32.427 -27.701 0
    endloop
  endfacet
  facet normal 0 0 -1
    outer loop
      vertex 45.3 -37.4 0
      vertex 31.3181 -27.6876 0
      vertex 32 -27.7233 0
    endloop
  endfacet
  facet normal 0 0 -1
    outer loop
      vertex 45.3 -37.4 0
      vertex 30.8958 -27.6207 0
      vertex 31.3181 -27.6876 0
    endloop
  endfacet
  facet normal 0 0 -1
    outer loop
      vertex 45.3 -37.4 0
      vertex 30.6437 -27.5808 0
      vertex 30.8958 -27.6207 0
    endloop
  endfacet
  facet normal 0 0 -1
    outer loop
      vertex 45.3 -37.4 0
      vertex 29.9842 -27.4041 0
      vertex 30.6437 -27.5808 0
    endloop
  endfacet
  facet normal 0 0 -1
    outer loop
      vertex 0 -37.4 0
      vertex 29.9842 -27.4041 0
      vertex 45.3 -37.4 0
    endloop
  endfacet
  facet normal -0 0 -1
    outer loop
      vertex 29.9842 -27.4041 0
      vertex 0 -37.4 0
      vertex 29.7459 -27.3126 0
    endloop
  endfacet
  facet normal -0 0 -1
    outer loop
      vertex 29.7459 -27.3126 0
      vertex 0 -37.4 0
      vertex 29.3467 -27.1594 0
    endloop
  endfacet
  facet normal -0 0 -1
    outer loop
      vertex 29.3467 -27.1594 0
      vertex 0 -37.4 0
      vertex 28.9657 -26.9652 0
    endloop
  endfacet
  facet normal 0 0 -1
    outer loop
      vertex 0 -37.4 0
      vertex 27.3327 -25.7454 0
      vertex 27.635 -26.0478 0
    endloop
  endfacet
  facet normal -0 0 -1
    outer loop
      vertex 25.5124 -21.8819 0
      vertex 0 -37.4 0
      vertex 25.4767 -21.2 0
    endloop
  endfacet
  facet normal -0 0 -1
    outer loop
      vertex 25.5793 -22.3042 0
      vertex 0 -37.4 0
      vertex 25.5124 -21.8819 0
    endloop
  endfacet
  facet normal -0 0 -1
    outer loop
      vertex 25.6192 -22.5563 0
      vertex 0 -37.4 0
      vertex 25.5793 -22.3042 0
    endloop
  endfacet
  facet normal -0 0 -1
    outer loop
      vertex 25.6853 -22.8028 0
      vertex 0 -37.4 0
      vertex 25.6192 -22.5563 0
    endloop
  endfacet
  facet normal -0 0 -1
    outer loop
      vertex 25.7959 -23.2158 0
      vertex 0 -37.4 0
      vertex 25.6853 -22.8028 0
    endloop
  endfacet
  facet normal -0 0 -1
    outer loop
      vertex 25.9492 -23.615 0
      vertex 0 -37.4 0
      vertex 25.7959 -23.2158 0
    endloop
  endfacet
  facet normal -0 0 -1
    outer loop
      vertex 26.0406 -23.8533 0
      vertex 0 -37.4 0
      vertex 25.9492 -23.615 0
    endloop
  endfacet
  facet normal -0 0 -1
    outer loop
      vertex 26.1565 -24.0807 0
      vertex 0 -37.4 0
      vertex 26.0406 -23.8533 0
    endloop
  endfacet
  facet normal -0 0 -1
    outer loop
      vertex 26.3506 -24.4617 0
      vertex 0 -37.4 0
      vertex 26.1565 -24.0807 0
    endloop
  endfacet
  facet normal -0 0 -1
    outer loop
      vertex 26.7225 -25.0343 0
      vertex 0 -37.4 0
      vertex 26.3506 -24.4617 0
    endloop
  endfacet
  facet normal -0 0 -1
    outer loop
      vertex 26.9916 -25.3666 0
      vertex 0 -37.4 0
      vertex 26.7225 -25.0343 0
    endloop
  endfacet
  facet normal -0 0 -1
    outer loop
      vertex 27.1522 -25.565 0
      vertex 0 -37.4 0
      vertex 26.9916 -25.3666 0
    endloop
  endfacet
  facet normal -0 0 -1
    outer loop
      vertex 27.3327 -25.7454 0
      vertex 0 -37.4 0
      vertex 27.1522 -25.565 0
    endloop
  endfacet
  facet normal -0 0 -1
    outer loop
      vertex 27.8334 -26.2084 0
      vertex 0 -37.4 0
      vertex 27.635 -26.0478 0
    endloop
  endfacet
  facet normal -0 0 -1
    outer loop
      vertex 28.1657 -26.4775 0
      vertex 0 -37.4 0
      vertex 27.8334 -26.2084 0
    endloop
  endfacet
  facet normal -0 0 -1
    outer loop
      vertex 28.7383 -26.8494 0
      vertex 0 -37.4 0
      vertex 28.1657 -26.4775 0
    endloop
  endfacet
  facet normal -0 0 -1
    outer loop
      vertex 28.9657 -26.9652 0
      vertex 0 -37.4 0
      vertex 28.7383 -26.8494 0
    endloop
  endfacet
  facet normal 0 0 -1
    outer loop
      vertex 38.4876 -20.5181 0
      vertex 45.3 -5 0
      vertex 38.5233 -21.2 0
    endloop
  endfacet
  facet normal 0 0 -1
    outer loop
      vertex 38.4477 -20.266 0
      vertex 45.3 -5 0
      vertex 38.4876 -20.5181 0
    endloop
  endfacet
  facet normal 0 0 -1
    outer loop
      vertex 38.3808 -19.8437 0
      vertex 45.3 -5 0
      vertex 38.4477 -20.266 0
    endloop
  endfacet
  facet normal 0 0 -1
    outer loop
      vertex 38.3147 -19.5972 0
      vertex 45.3 -5 0
      vertex 38.3808 -19.8437 0
    endloop
  endfacet
  facet normal 0 0 -1
    outer loop
      vertex 38.2041 -19.1842 0
      vertex 45.3 -5 0
      vertex 38.3147 -19.5972 0
    endloop
  endfacet
  facet normal 0 0 -1
    outer loop
      vertex 38.0508 -18.785 0
      vertex 45.3 -5 0
      vertex 38.2041 -19.1842 0
    endloop
  endfacet
  facet normal 0 0 -1
    outer loop
      vertex 37.9594 -18.5467 0
      vertex 45.3 -5 0
      vertex 38.0508 -18.785 0
    endloop
  endfacet
  facet normal 0 0 -1
    outer loop
      vertex 37.8435 -18.3193 0
      vertex 45.3 -5 0
      vertex 37.9594 -18.5467 0
    endloop
  endfacet
  facet normal 0 0 -1
    outer loop
      vertex 37.6494 -17.9383 0
      vertex 45.3 -5 0
      vertex 37.8435 -18.3193 0
    endloop
  endfacet
  facet normal 0 0 -1
    outer loop
      vertex 37.4165 -17.5797 0
      vertex 45.3 -5 0
      vertex 37.6494 -17.9383 0
    endloop
  endfacet
  facet normal 0 0 -1
    outer loop
      vertex 37.2775 -17.3657 0
      vertex 45.3 -5 0
      vertex 37.4165 -17.5797 0
    endloop
  endfacet
  facet normal 0 0 -1
    outer loop
      vertex 37.0084 -17.0334 0
      vertex 45.3 -5 0
      vertex 37.2775 -17.3657 0
    endloop
  endfacet
  facet normal 0 0 -1
    outer loop
      vertex 36.8478 -16.835 0
      vertex 45.3 -5 0
      vertex 37.0084 -17.0334 0
    endloop
  endfacet
  facet normal 0 0 -1
    outer loop
      vertex 36.365 -16.3522 0
      vertex 45.3 -5 0
      vertex 36.8478 -16.835 0
    endloop
  endfacet
  facet normal 0 0 -1
    outer loop
      vertex 36.0327 -16.0831 0
      vertex 45.3 -5 0
      vertex 36.365 -16.3522 0
    endloop
  endfacet
  facet normal 0 0 -1
    outer loop
      vertex 35.8343 -15.9225 0
      vertex 45.3 -5 0
      vertex 36.0327 -16.0831 0
    endloop
  endfacet
  facet normal 0 0 -1
    outer loop
      vertex 35.4757 -15.6896 0
      vertex 45.3 -5 0
      vertex 35.8343 -15.9225 0
    endloop
  endfacet
  facet normal 0 0 -1
    outer loop
      vertex 35.2617 -15.5506 0
      vertex 45.3 -5 0
      vertex 35.4757 -15.6896 0
    endloop
  endfacet
  facet normal 0 0 -1
    outer loop
      vertex 35.0343 -15.4348 0
      vertex 45.3 -5 0
      vertex 35.2617 -15.5506 0
    endloop
  endfacet
  facet normal 0 0 -1
    outer loop
      vertex 34.6533 -15.2406 0
      vertex 45.3 -5 0
      vertex 35.0343 -15.4348 0
    endloop
  endfacet
  facet normal 0 0 -1
    outer loop
      vertex 34.2541 -15.0874 0
      vertex 45.3 -5 0
      vertex 34.6533 -15.2406 0
    endloop
  endfacet
  facet normal 0 0 -1
    outer loop
      vertex 34.0158 -14.9959 0
      vertex 45.3 -5 0
      vertex 34.2541 -15.0874 0
    endloop
  endfacet
  facet normal 0 0 -1
    outer loop
      vertex 33.7693 -14.9299 0
      vertex 45.3 -5 0
      vertex 34.0158 -14.9959 0
    endloop
  endfacet
  facet normal 0 0 -1
    outer loop
      vertex 33.3563 -14.8192 0
      vertex 45.3 -5 0
      vertex 33.7693 -14.9299 0
    endloop
  endfacet
  facet normal 0 0 -1
    outer loop
      vertex 32.934 -14.7523 0
      vertex 45.3 -5 0
      vertex 33.3563 -14.8192 0
    endloop
  endfacet
  facet normal 0 0 -1
    outer loop
      vertex 32.6819 -14.7124 0
      vertex 45.3 -5 0
      vertex 32.934 -14.7523 0
    endloop
  endfacet
  facet normal 0 0 -1
    outer loop
      vertex 32.427 -14.699 0
      vertex 45.3 -5 0
      vertex 32.6819 -14.7124 0
    endloop
  endfacet
  facet normal 0 0 -1
    outer loop
      vertex 32 -14.6767 0
      vertex 45.3 -5 0
      vertex 32.427 -14.699 0
    endloop
  endfacet
  facet normal 0 0 -1
    outer loop
      vertex 31.3181 -14.7124 0
      vertex 45.3 -5 0
      vertex 32 -14.6767 0
    endloop
  endfacet
  facet normal 0 0 -1
    outer loop
      vertex 31.066 -14.7523 0
      vertex 45.3 -5 0
      vertex 31.3181 -14.7124 0
    endloop
  endfacet
  facet normal 0 0 -1
    outer loop
      vertex 30.6437 -14.8192 0
      vertex 45.3 -5 0
      vertex 31.066 -14.7523 0
    endloop
  endfacet
  facet normal 0 0 -1
    outer loop
      vertex 30.2307 -14.9299 0
      vertex 45.3 -5 0
      vertex 30.6437 -14.8192 0
    endloop
  endfacet
  facet normal 0 0 -1
    outer loop
      vertex 29.9842 -14.9959 0
      vertex 45.3 -5 0
      vertex 30.2307 -14.9299 0
    endloop
  endfacet
  facet normal 0 0 -1
    outer loop
      vertex 0 -5 0
      vertex 29.9842 -14.9959 0
      vertex 29.7459 -15.0874 0
    endloop
  endfacet
  facet normal 0 0 -1
    outer loop
      vertex 0 -5 0
      vertex 29.7459 -15.0874 0
      vertex 29.3467 -15.2406 0
    endloop
  endfacet
  facet normal 0 0 -1
    outer loop
      vertex 0 -5 0
      vertex 29.3467 -15.2406 0
      vertex 28.9657 -15.4348 0
    endloop
  endfacet
  facet normal 0 0 -1
    outer loop
      vertex 0 -5 0
      vertex 28.9657 -15.4348 0
      vertex 28.7383 -15.5506 0
    endloop
  endfacet
  facet normal 0 0 -1
    outer loop
      vertex 0 -5 0
      vertex 27.9673 -16.0831 0
      vertex 27.635 -16.3522 0
    endloop
  endfacet
  facet normal 0 0 -1
    outer loop
      vertex 0 -5 0
      vertex 26.1565 -18.3193 0
      vertex 26.0406 -18.5467 0
    endloop
  endfacet
  facet normal 0 0 -1
    outer loop
      vertex 0 -5 0
      vertex 25.5523 -20.266 0
      vertex 25.5124 -20.5181 0
    endloop
  endfacet
  facet normal 0 0 -1
    outer loop
      vertex 0 -5 0
      vertex 25.4767 -21.2 0
      vertex 0 -37.4 0
    endloop
  endfacet
  facet normal 0 0 -1
    outer loop
      vertex 25.4767 -21.2 0
      vertex 0 -5 0
      vertex 25.5124 -20.5181 0
    endloop
  endfacet
  facet normal 0 0 -1
    outer loop
      vertex 25.5523 -20.266 0
      vertex 0 -5 0
      vertex 25.6192 -19.8437 0
    endloop
  endfacet
  facet normal 0 0 -1
    outer loop
      vertex 25.6192 -19.8437 0
      vertex 0 -5 0
      vertex 25.6853 -19.5972 0
    endloop
  endfacet
  facet normal 0 0 -1
    outer loop
      vertex 25.6853 -19.5972 0
      vertex 0 -5 0
      vertex 25.7959 -19.1842 0
    endloop
  endfacet
  facet normal 0 0 -1
    outer loop
      vertex 25.7959 -19.1842 0
      vertex 0 -5 0
      vertex 25.9492 -18.785 0
    endloop
  endfacet
  facet normal 0 0 -1
    outer loop
      vertex 25.9492 -18.785 0
      vertex 0 -5 0
      vertex 26.0406 -18.5467 0
    endloop
  endfacet
  facet normal 0 0 -1
    outer loop
      vertex 26.1565 -18.3193 0
      vertex 0 -5 0
      vertex 26.3506 -17.9383 0
    endloop
  endfacet
  facet normal 0 0 -1
    outer loop
      vertex 26.3506 -17.9383 0
      vertex 0 -5 0
      vertex 26.5835 -17.5797 0
    endloop
  endfacet
  facet normal 0 0 -1
    outer loop
      vertex 26.5835 -17.5797 0
      vertex 0 -5 0
      vertex 26.7225 -17.3657 0
    endloop
  endfacet
  facet normal 0 0 -1
    outer loop
      vertex 26.7225 -17.3657 0
      vertex 0 -5 0
      vertex 26.9916 -17.0334 0
    endloop
  endfacet
  facet normal 0 0 -1
    outer loop
      vertex 26.9916 -17.0334 0
      vertex 0 -5 0
      vertex 27.1522 -16.835 0
    endloop
  endfacet
  facet normal 0 0 -1
    outer loop
      vertex 27.1522 -16.835 0
      vertex 0 -5 0
      vertex 27.635 -16.3522 0
    endloop
  endfacet
  facet normal 0 0 -1
    outer loop
      vertex 29.9842 -14.9959 0
      vertex 0 -5 0
      vertex 45.3 -5 0
    endloop
  endfacet
  facet normal 0 0 -1
    outer loop
      vertex 28.5243 -15.6896 0
      vertex 0 -5 0
      vertex 28.7383 -15.5506 0
    endloop
  endfacet
  facet normal 0 0 -1
    outer loop
      vertex 28.1657 -15.9225 0
      vertex 0 -5 0
      vertex 28.5243 -15.6896 0
    endloop
  endfacet
  facet normal 0 0 -1
    outer loop
      vertex 27.9673 -16.0831 0
      vertex 0 -5 0
      vertex 28.1657 -15.9225 0
    endloop
  endfacet
endsolid OpenSCAD_Model
