<?xml version="1.0" encoding="UTF-8" standalone="no"?>
<svg
   height="276.80mm"
   viewBox="0.0 0.0 291.10 276.80"
   width="291.10mm"
   version="1.1"
   id="svg982"
   sodipodi:docname="Dach.svg"
   inkscape:version="1.1 (c68e22c387, 2021-05-23)"
   xmlns:inkscape="http://www.inkscape.org/namespaces/inkscape"
   xmlns:sodipodi="http://sodipodi.sourceforge.net/DTD/sodipodi-0.dtd"
   xmlns="http://www.w3.org/2000/svg"
   xmlns:svg="http://www.w3.org/2000/svg"
   xmlns:rdf="http://www.w3.org/1999/02/22-rdf-syntax-ns#"
   xmlns:cc="http://creativecommons.org/ns#"
   xmlns:dc="http://purl.org/dc/elements/1.1/">
  <defs
     id="defs986" />
  <sodipodi:namedview
     id="namedview984"
     pagecolor="#ffffff"
     bordercolor="#666666"
     borderopacity="1.0"
     inkscape:pageshadow="2"
     inkscape:pageopacity="0.0"
     inkscape:pagecheckerboard="0"
     inkscape:document-units="mm"
     showgrid="false"
     inkscape:snap-global="false"
     inkscape:zoom="0.53463564"
     inkscape:cx="493.79425"
     inkscape:cy="610.69629"
     inkscape:window-width="1920"
     inkscape:window-height="1017"
     inkscape:window-x="-8"
     inkscape:window-y="-8"
     inkscape:window-maximized="1"
     inkscape:current-layer="svg982" />
  <!--
ABox - A simple Box


This box is kept simple on purpose. If you need more features have a look at the UniversalBox.


Created with Boxes.py (https://festi.info/boxes.py)
Creation date: 2024-03-09 15:32:54
Command line (remove spaces between dashes): boxes ABox - -x=140 - -y=120 - -h=60 - -thickness=4
Url: http://festi.info/boxes.py/ABox?FingerJoint_angle=90.0&FingerJoint_style=rectangular&FingerJoint_surroundingspaces=2.0&FingerJoint_bottom_lip=0.0&FingerJoint_edge_width=1.0&FingerJoint_extra_length=0.0&FingerJoint_finger=2.0&FingerJoint_play=0.0&FingerJoint_space=2.0&FingerJoint_width=1.0&Lid_handle=none&Lid_style=none&Lid_handle_height=8.0&Lid_height=4.0&Lid_play=0.1&x=140&y=120&h=60&outside=0&outside=1&bottom_edge=h&thickness=4&format=svg&tabs=0.0&qr_code=0&debug=0&labels=0&labels=1&reference=100&inner_corners=loop&burn=0.1&language=de&render=1
Url short: http://festi.info/boxes.py/ABox?x=140&y=120&h=60&thickness=4
SettingsUrl: http://festi.info/boxes.py/ABox?FingerJoint_angle=90.0&FingerJoint_style=rectangular&FingerJoint_surroundingspaces=2.0&FingerJoint_bottom_lip=0.0&FingerJoint_edge_width=1.0&FingerJoint_extra_length=0.0&FingerJoint_finger=2.0&FingerJoint_play=0.0&FingerJoint_space=2.0&FingerJoint_width=1.0&Lid_handle=none&Lid_style=none&Lid_handle_height=8.0&Lid_height=4.0&Lid_play=0.1&x=140&y=120&h=60&outside=0&outside=1&bottom_edge=h&thickness=4&format=svg&tabs=0.0&qr_code=0&debug=0&labels=0&labels=1&reference=100&inner_corners=loop&burn=0.1&language=de
SettingsUrl short: http://festi.info/boxes.py/ABox?x=140&y=120&h=60&thickness=4
-->
  <title
     id="title906">ABox</title>
  <metadata
     id="metadata908">
    <rdf:RDF>
      <cc:Work>
        <dc:title>Box - ABox</dc:title>
        <dc:date>2024-03-09 15:32:54</dc:date>
        <dc:source>http://festi.info/boxes.py/ABox?FingerJoint_angle=90.0&amp;FingerJoint_style=rectangular&amp;FingerJoint_surroundingspaces=2.0&amp;FingerJoint_bottom_lip=0.0&amp;FingerJoint_edge_width=1.0&amp;FingerJoint_extra_length=0.0&amp;FingerJoint_finger=2.0&amp;FingerJoint_play=0.0&amp;FingerJoint_space=2.0&amp;FingerJoint_width=1.0&amp;Lid_handle=none&amp;Lid_style=none&amp;Lid_handle_height=8.0&amp;Lid_height=4.0&amp;Lid_play=0.1&amp;x=140&amp;y=120&amp;h=60&amp;outside=0&amp;outside=1&amp;bottom_edge=h&amp;thickness=4&amp;format=svg&amp;tabs=0.0&amp;qr_code=0&amp;debug=0&amp;labels=0&amp;labels=1&amp;reference=100&amp;inner_corners=loop&amp;burn=0.1&amp;language=de&amp;render=1</dc:source>
        <dc:source>http://festi.info/boxes.py/ABox?x=140&amp;y=120&amp;h=60&amp;thickness=4</dc:source>
        <dc:description>A simple Box

This box is kept simple on purpose. If you need more features have a look at the UniversalBox.

Created with Boxes.py (https://festi.info/boxes.py)
Command line: boxes ABox --FingerJoint_angle=90.0 --FingerJoint_style=rectangular --FingerJoint_surroundingspaces=2.0 --FingerJoint_bottom_lip=0.0 --FingerJoint_edge_width=1.0 --FingerJoint_extra_length=0.0 --FingerJoint_finger=2.0 --FingerJoint_play=0.0 --FingerJoint_space=2.0 --FingerJoint_width=1.0 --Lid_handle=none --Lid_style=none --Lid_handle_height=8.0 --Lid_height=4.0 --Lid_play=0.1 --x=140 --y=120 --h=60 --outside=0 --outside=1 --bottom_edge=h --thickness=4 --format=svg --tabs=0.0 --qr_code=0 --debug=0 --labels=0 --labels=1 --reference=100 --inner_corners=loop --burn=0.1
Command line short: boxes ABox --x=140 --y=120 --h=60 --thickness=4
Url: http://festi.info/boxes.py/ABox?FingerJoint_angle=90.0&amp;FingerJoint_style=rectangular&amp;FingerJoint_surroundingspaces=2.0&amp;FingerJoint_bottom_lip=0.0&amp;FingerJoint_edge_width=1.0&amp;FingerJoint_extra_length=0.0&amp;FingerJoint_finger=2.0&amp;FingerJoint_play=0.0&amp;FingerJoint_space=2.0&amp;FingerJoint_width=1.0&amp;Lid_handle=none&amp;Lid_style=none&amp;Lid_handle_height=8.0&amp;Lid_height=4.0&amp;Lid_play=0.1&amp;x=140&amp;y=120&amp;h=60&amp;outside=0&amp;outside=1&amp;bottom_edge=h&amp;thickness=4&amp;format=svg&amp;tabs=0.0&amp;qr_code=0&amp;debug=0&amp;labels=0&amp;labels=1&amp;reference=100&amp;inner_corners=loop&amp;burn=0.1&amp;language=de&amp;render=1
Url short: http://festi.info/boxes.py/ABox?x=140&amp;y=120&amp;h=60&amp;thickness=4
SettingsUrl: http://festi.info/boxes.py/ABox?FingerJoint_angle=90.0&amp;FingerJoint_style=rectangular&amp;FingerJoint_surroundingspaces=2.0&amp;FingerJoint_bottom_lip=0.0&amp;FingerJoint_edge_width=1.0&amp;FingerJoint_extra_length=0.0&amp;FingerJoint_finger=2.0&amp;FingerJoint_play=0.0&amp;FingerJoint_space=2.0&amp;FingerJoint_width=1.0&amp;Lid_handle=none&amp;Lid_style=none&amp;Lid_handle_height=8.0&amp;Lid_height=4.0&amp;Lid_play=0.1&amp;x=140&amp;y=120&amp;h=60&amp;outside=0&amp;outside=1&amp;bottom_edge=h&amp;thickness=4&amp;format=svg&amp;tabs=0.0&amp;qr_code=0&amp;debug=0&amp;labels=0&amp;labels=1&amp;reference=100&amp;inner_corners=loop&amp;burn=0.1&amp;language=de
SettingsUrl short: http://festi.info/boxes.py/ABox?x=140&amp;y=120&amp;h=60&amp;thickness=4
</dc:description>
      </cc:Work>
    </rdf:RDF>
  </metadata>
  <g
     id="p-2"
     style="fill:none;stroke-linecap:round;stroke-linejoin:round"
     transform="translate(0.17496839,0.34993677)">
    <path
       d="m 40.8,188.2 h -3.9 c -0.1,0 0,0.1 0,0 v -3.8 c 0,-0.1 -0.1,0 0,0 h 7.8 c 0.1,0 0,-0.1 0,0 v 3.8 c 0,0.1 0.1,0 0,0 z"
       stroke="#0000ff"
       stroke-width="0.2"
       id="path932" />
    <path
       d="m 56.8,188.2 h -3.9 c -0.1,0 0,0.1 0,0 v -3.8 c 0,-0.1 -0.1,0 0,0 h 7.8 c 0.1,0 0,-0.1 0,0 v 3.8 c 0,0.1 0.1,0 0,0 z"
       stroke="#0000ff"
       stroke-width="0.2"
       id="path934" />
    <path
       d="m 72.8,188.2 h -3.9 c -0.1,0 0,0.1 0,0 v -3.8 c 0,-0.1 -0.1,0 0,0 h 7.8 c 0.1,0 0,-0.1 0,0 v 3.8 c 0,0.1 0.1,0 0,0 z"
       stroke="#0000ff"
       stroke-width="0.2"
       id="path936" />
    <path
       d="m 88.8,188.2 h -3.9 c -0.1,0 0,0.1 0,0 v -3.8 c 0,-0.1 -0.1,0 0,0 h 7.8 c 0.1,0 0,-0.1 0,0 v 3.8 c 0,0.1 0.1,0 0,0 z"
       stroke="#0000ff"
       stroke-width="0.2"
       id="path938" />
    <path
       d="m 104.8,188.2 h -3.9 c -0.1,0 0,0.1 0,0 v -3.8 c 0,-0.1 -0.1,0 0,0 h 7.8 c 0.1,0 0,-0.1 0,0 v 3.8 c 0,0.1 0.1,0 0,0 z"
       stroke="#0000ff"
       stroke-width="0.2"
       id="path940" />
    <path
       d="m 120.8,188.2 h -3.9 c -0.1,0 0,0.1 0,0 v -3.8 c 0,-0.1 -0.1,0 0,0 h 7.8 c 0.1,0 0,-0.1 0,0 v 3.8 c 0,0.1 0.1,0 0,0 z"
       stroke="#0000ff"
       stroke-width="0.2"
       id="path942" />
    <path
       d="m 136.8,188.2 h -3.9 c -0.1,0 0,0.1 0,0 v -3.8 c 0,-0.1 -0.1,0 0,0 h 7.8 c 0.1,0 0,-0.1 0,0 v 3.8 c 0,0.1 0.1,0 0,0 z"
       stroke="#0000ff"
       stroke-width="0.2"
       id="path944" />
  </g>
  <g
     id="p-3"
     style="fill:none;stroke-linecap:round;stroke-linejoin:round;">
    <path
       d="M 22.800 126.200 H 36.700 C 36.800 126.200 36.700 126.100 36.700 126.200 V 130.100 C 36.700 130.155 36.745 130.200 36.800 130.200 H 44.800 C 44.855 130.200 44.900 130.155 44.900 130.100 V 126.200 C 44.900 126.100 44.800 126.200 44.900 126.200 H 52.700 C 52.800 126.200 52.700 126.100 52.700 126.200 V 130.100 C 52.700 130.155 52.745 130.200 52.800 130.200 H 60.800 C 60.855 130.200 60.900 130.155 60.900 130.100 V 126.200 C 60.900 126.100 60.800 126.200 60.900 126.200 H 68.700 C 68.800 126.200 68.700 126.100 68.700 126.200 V 130.100 C 68.700 130.155 68.745 130.200 68.800 130.200 H 76.800 C 76.855 130.200 76.900 130.155 76.900 130.100 V 126.200 C 76.900 126.100 76.800 126.200 76.900 126.200 H 84.700 C 84.800 126.200 84.700 126.100 84.700 126.200 V 130.100 C 84.700 130.155 84.745 130.200 84.800 130.200 H 92.800 C 92.855 130.200 92.900 130.155 92.900 130.100 V 126.200 C 92.900 126.100 92.800 126.200 92.900 126.200 H 100.700 C 100.800 126.200 100.700 126.100 100.700 126.200 V 130.100 C 100.700 130.155 100.745 130.200 100.800 130.200 H 108.800 C 108.855 130.200 108.900 130.155 108.900 130.100 V 126.200 C 108.900 126.100 108.800 126.200 108.900 126.200 H 116.700 C 116.800 126.200 116.700 126.100 116.700 126.200 V 130.100 C 116.700 130.155 116.745 130.200 116.800 130.200 H 124.800 C 124.855 130.200 124.900 130.155 124.900 130.100 V 126.200 C 124.900 126.100 124.800 126.200 124.900 126.200 H 132.700 C 132.800 126.200 132.700 126.100 132.700 126.200 V 130.100 C 132.700 130.155 132.745 130.200 132.800 130.200 H 140.800 C 140.855 130.200 140.900 130.155 140.900 130.100 V 126.200 C 140.900 126.100 140.800 126.200 140.900 126.200 H 154.800 C 154.855 126.200 154.900 126.155 154.900 126.100 V 114.200 C 154.900 114.100 154.800 114.200 154.900 114.200 H 158.800 C 158.855 114.200 158.900 114.155 158.900 114.100 V 106.100 C 158.900 106.045 158.855 106.000 158.800 106.000 H 154.900 C 154.800 106.000 154.900 106.100 154.900 106.000 V 98.200 C 154.900 98.100 154.800 98.200 154.900 98.200 H 158.800 C 158.855 98.200 158.900 98.155 158.900 98.100 V 90.100 C 158.900 90.045 158.855 90.000 158.800 90.000 H 154.900 C 154.800 90.000 154.900 90.100 154.900 90.000 V 82.200 C 154.900 82.100 154.800 82.200 154.900 82.200 H 158.800 C 158.855 82.200 158.900 82.155 158.900 82.100 V 74.100 C 158.900 74.045 158.855 74.000 158.800 74.000 H 154.900 C 154.800 74.000 154.900 74.100 154.900 74.000 V 66.200 C 154.900 66.100 154.800 66.200 154.900 66.200 H 158.800 C 158.855 66.200 158.900 66.155 158.900 66.100 V 58.100 C 158.900 58.045 158.855 58.000 158.800 58.000 H 154.900 C 154.800 58.000 154.900 58.100 154.900 58.000 V 50.200 C 154.900 50.100 154.800 50.200 154.900 50.200 H 158.800 C 158.855 50.200 158.900 50.155 158.900 50.100 V 42.100 C 158.900 42.045 158.855 42.000 158.800 42.000 H 154.900 C 154.800 42.000 154.900 42.100 154.900 42.000 V 34.200 C 154.900 34.100 154.800 34.200 154.900 34.200 H 158.800 C 158.855 34.200 158.900 34.155 158.900 34.100 V 26.100 C 158.900 26.045 158.855 26.000 158.800 26.000 H 154.900 C 154.800 26.000 154.900 26.100 154.900 26.000 V 14.100 C 154.900 14.045 154.855 14.000 154.800 14.000 H 140.900 C 140.800 14.000 140.900 14.100 140.900 14.000 V 10.100 C 140.900 10.045 140.855 10.000 140.800 10.000 H 132.800 C 132.745 10.000 132.700 10.045 132.700 10.100 V 14.000 C 132.700 14.100 132.800 14.000 132.700 14.000 H 124.900 C 124.800 14.000 124.900 14.100 124.900 14.000 V 10.100 C 124.900 10.045 124.855 10.000 124.800 10.000 H 116.800 C 116.745 10.000 116.700 10.045 116.700 10.100 V 14.000 C 116.700 14.100 116.800 14.000 116.700 14.000 H 108.900 C 108.800 14.000 108.900 14.100 108.900 14.000 V 10.100 C 108.900 10.045 108.855 10.000 108.800 10.000 H 100.800 C 100.745 10.000 100.700 10.045 100.700 10.100 V 14.000 C 100.700 14.100 100.800 14.000 100.700 14.000 H 92.900 C 92.800 14.000 92.900 14.100 92.900 14.000 V 10.100 C 92.900 10.045 92.855 10.000 92.800 10.000 H 84.800 C 84.745 10.000 84.700 10.045 84.700 10.100 V 14.000 C 84.700 14.100 84.800 14.000 84.700 14.000 H 76.900 C 76.800 14.000 76.900 14.100 76.900 14.000 V 10.100 C 76.900 10.045 76.855 10.000 76.800 10.000 H 68.800 C 68.745 10.000 68.700 10.045 68.700 10.100 V 14.000 C 68.700 14.100 68.800 14.000 68.700 14.000 H 60.900 C 60.800 14.000 60.900 14.100 60.900 14.000 V 10.100 C 60.900 10.045 60.855 10.000 60.800 10.000 H 52.800 C 52.745 10.000 52.700 10.045 52.700 10.100 V 14.000 C 52.700 14.100 52.800 14.000 52.700 14.000 H 44.900 C 44.800 14.000 44.900 14.100 44.900 14.000 V 10.100 C 44.900 10.045 44.855 10.000 44.800 10.000 H 36.800 C 36.745 10.000 36.700 10.045 36.700 10.100 V 14.000 C 36.700 14.100 36.800 14.000 36.700 14.000 H 22.800 C 22.745 14.000 22.700 14.045 22.700 14.100 V 26.000 C 22.700 26.100 22.800 26.000 22.700 26.000 H 18.800 C 18.745 26.000 18.700 26.045 18.700 26.100 V 34.100 C 18.700 34.155 18.745 34.200 18.800 34.200 H 22.700 C 22.800 34.200 22.700 34.100 22.700 34.200 V 42.000 C 22.700 42.100 22.800 42.000 22.700 42.000 H 18.800 C 18.745 42.000 18.700 42.045 18.700 42.100 V 50.100 C 18.700 50.155 18.745 50.200 18.800 50.200 H 22.700 C 22.800 50.200 22.700 50.100 22.700 50.200 V 58.000 C 22.700 58.100 22.800 58.000 22.700 58.000 H 18.800 C 18.745 58.000 18.700 58.045 18.700 58.100 V 66.100 C 18.700 66.155 18.745 66.200 18.800 66.200 H 22.700 C 22.800 66.200 22.700 66.100 22.700 66.200 V 74.000 C 22.700 74.100 22.800 74.000 22.700 74.000 H 18.800 C 18.745 74.000 18.700 74.045 18.700 74.100 V 82.100 C 18.700 82.155 18.745 82.200 18.800 82.200 H 22.700 C 22.800 82.200 22.700 82.100 22.700 82.200 V 90.000 C 22.700 90.100 22.800 90.000 22.700 90.000 H 18.800 C 18.745 90.000 18.700 90.045 18.700 90.100 V 98.100 C 18.700 98.155 18.745 98.200 18.800 98.200 H 22.700 C 22.800 98.200 22.700 98.100 22.700 98.200 V 106.000 C 22.700 106.100 22.800 106.000 22.700 106.000 H 18.800 C 18.745 106.000 18.700 106.045 18.700 106.100 V 114.100 C 18.700 114.155 18.745 114.200 18.800 114.200 H 22.700 C 22.800 114.200 22.700 114.100 22.700 114.200 V 126.100 C 22.700 126.155 22.745 126.200 22.800 126.200 Z"
       stroke="rgb(0,0,0)"
       stroke-width="0.20"
       id="path949" />
  </g>
  <g
     id="p-4"
     style="fill:none;stroke-linecap:round;stroke-linejoin:round;">
    <path
       d="M 181.000 250.400 H 177.100 C 177.000 250.400 177.100 250.500 177.100 250.400 V 246.600 C 177.100 246.500 177.000 246.600 177.100 246.600 H 184.900 C 185.000 246.600 184.900 246.500 184.900 246.600 V 250.400 C 184.900 250.500 185.000 250.400 184.900 250.400 H 181.000 Z"
       stroke="rgb(0,0,255)"
       stroke-width="0.20"
       id="path952" />
    <path
       d="M 197.000 250.400 H 193.100 C 193.000 250.400 193.100 250.500 193.100 250.400 V 246.600 C 193.100 246.500 193.000 246.600 193.100 246.600 H 200.900 C 201.000 246.600 200.900 246.500 200.900 246.600 V 250.400 C 200.900 250.500 201.000 250.400 200.900 250.400 H 197.000 Z"
       stroke="rgb(0,0,255)"
       stroke-width="0.20"
       id="path954" />
    <path
       d="M 213.000 250.400 H 209.100 C 209.000 250.400 209.100 250.500 209.100 250.400 V 246.600 C 209.100 246.500 209.000 246.600 209.100 246.600 H 216.900 C 217.000 246.600 216.900 246.500 216.900 246.600 V 250.400 C 216.900 250.500 217.000 250.400 216.900 250.400 H 213.000 Z"
       stroke="rgb(0,0,255)"
       stroke-width="0.20"
       id="path956" />
    <path
       d="M 229.000 250.400 H 225.100 C 225.000 250.400 225.100 250.500 225.100 250.400 V 246.600 C 225.100 246.500 225.000 246.600 225.100 246.600 H 232.900 C 233.000 246.600 232.900 246.500 232.900 246.600 V 250.400 C 232.900 250.500 233.000 250.400 232.900 250.400 H 229.000 Z"
       stroke="rgb(0,0,255)"
       stroke-width="0.20"
       id="path958" />
    <path
       d="M 245.000 250.400 H 241.100 C 241.000 250.400 241.100 250.500 241.100 250.400 V 246.600 C 241.100 246.500 241.000 246.600 241.100 246.600 H 248.900 C 249.000 246.600 248.900 246.500 248.900 246.600 V 250.400 C 248.900 250.500 249.000 250.400 248.900 250.400 H 245.000 Z"
       stroke="rgb(0,0,255)"
       stroke-width="0.20"
       id="path960" />
    <path
       d="M 261.000 250.400 H 257.100 C 257.000 250.400 257.100 250.500 257.100 250.400 V 246.600 C 257.100 246.500 257.000 246.600 257.100 246.600 H 264.900 C 265.000 246.600 264.900 246.500 264.900 246.600 V 250.400 C 264.900 250.500 265.000 250.400 264.900 250.400 H 261.000 Z"
       stroke="rgb(0,0,255)"
       stroke-width="0.20"
       id="path962" />
    <path
       d="M 165.000 254.600 H 277.000 C 277.055 254.600 277.100 254.555 277.100 254.500 V 244.600 C 277.100 244.500 277.000 244.600 277.100 244.600 H 281.000 C 281.055 244.600 281.100 244.555 281.100 244.500 V 236.500 C 281.100 236.445 281.055 236.400 281.000 236.400 H 277.100 C 277.000 236.400 277.100 236.500 277.100 236.400 V 228.600 C 277.100 228.500 277.000 228.600 277.100 228.600 H 281.000 C 281.055 228.600 281.100 228.555 281.100 228.500 V 220.500 C 281.100 220.445 281.055 220.400 281.000 220.400 H 277.100 C 277.000 220.400 277.100 220.500 277.100 220.400 V 212.600 C 277.100 212.500 277.000 212.600 277.100 212.600 H 281.000 C 281.055 212.600 281.100 212.555 281.100 212.500 V 204.500 C 281.100 204.445 281.055 204.400 281.000 204.400 H 277.100 C 277.000 204.400 277.100 204.500 277.100 204.400 V 194.500 C 277.100 194.445 277.055 194.400 277.000 194.400 H 165.000 C 164.945 194.400 164.900 194.445 164.900 194.500 V 204.400 C 164.900 204.500 165.000 204.400 164.900 204.400 H 161.000 C 160.945 204.400 160.900 204.445 160.900 204.500 V 212.500 C 160.900 212.555 160.945 212.600 161.000 212.600 H 164.900 C 165.000 212.600 164.900 212.500 164.900 212.600 V 220.400 C 164.900 220.500 165.000 220.400 164.900 220.400 H 161.000 C 160.945 220.400 160.900 220.445 160.900 220.500 V 228.500 C 160.900 228.555 160.945 228.600 161.000 228.600 H 164.900 C 165.000 228.600 164.900 228.500 164.900 228.600 V 236.400 C 164.900 236.500 165.000 236.400 164.900 236.400 H 161.000 C 160.945 236.400 160.900 236.445 160.900 236.500 V 244.500 C 160.900 244.555 160.945 244.600 161.000 244.600 H 164.900 C 165.000 244.600 164.900 244.500 164.900 244.600 V 254.500 C 164.900 254.555 164.945 254.600 165.000 254.600 Z"
       stroke="rgb(0,0,0)"
       stroke-width="0.20"
       id="path964" />
  </g>
  <g
     id="p-5"
     style="fill:none;stroke-linecap:round;stroke-linejoin:round;">
    <path
       d="M 181.000 188.200 H 177.100 C 177.000 188.200 177.100 188.300 177.100 188.200 V 184.400 C 177.100 184.300 177.000 184.400 177.100 184.400 H 184.900 C 185.000 184.400 184.900 184.300 184.900 184.400 V 188.200 C 184.900 188.300 185.000 188.200 184.900 188.200 H 181.000 Z"
       stroke="rgb(0,0,255)"
       stroke-width="0.20"
       id="path967" />
    <path
       d="M 197.000 188.200 H 193.100 C 193.000 188.200 193.100 188.300 193.100 188.200 V 184.400 C 193.100 184.300 193.000 184.400 193.100 184.400 H 200.900 C 201.000 184.400 200.900 184.300 200.900 184.400 V 188.200 C 200.900 188.300 201.000 188.200 200.900 188.200 H 197.000 Z"
       stroke="rgb(0,0,255)"
       stroke-width="0.20"
       id="path969" />
    <path
       d="M 213.000 188.200 H 209.100 C 209.000 188.200 209.100 188.300 209.100 188.200 V 184.400 C 209.100 184.300 209.000 184.400 209.100 184.400 H 216.900 C 217.000 184.400 216.900 184.300 216.900 184.400 V 188.200 C 216.900 188.300 217.000 188.200 216.900 188.200 H 213.000 Z"
       stroke="rgb(0,0,255)"
       stroke-width="0.20"
       id="path971" />
    <path
       d="M 229.000 188.200 H 225.100 C 225.000 188.200 225.100 188.300 225.100 188.200 V 184.400 C 225.100 184.300 225.000 184.400 225.100 184.400 H 232.900 C 233.000 184.400 232.900 184.300 232.900 184.400 V 188.200 C 232.900 188.300 233.000 188.200 232.900 188.200 H 229.000 Z"
       stroke="rgb(0,0,255)"
       stroke-width="0.20"
       id="path973" />
    <path
       d="M 245.000 188.200 H 241.100 C 241.000 188.200 241.100 188.300 241.100 188.200 V 184.400 C 241.100 184.300 241.000 184.400 241.100 184.400 H 248.900 C 249.000 184.400 248.900 184.300 248.900 184.400 V 188.200 C 248.900 188.300 249.000 188.200 248.900 188.200 H 245.000 Z"
       stroke="rgb(0,0,255)"
       stroke-width="0.20"
       id="path975" />
    <path
       d="M 261.000 188.200 H 257.100 C 257.000 188.200 257.100 188.300 257.100 188.200 V 184.400 C 257.100 184.300 257.000 184.400 257.100 184.400 H 264.900 C 265.000 184.400 264.900 184.300 264.900 184.400 V 188.200 C 264.900 188.300 265.000 188.200 264.900 188.200 H 261.000 Z"
       stroke="rgb(0,0,255)"
       stroke-width="0.20"
       id="path977" />
    <path
       d="M 165.000 192.400 H 277.000 C 277.055 192.400 277.100 192.355 277.100 192.300 V 182.400 C 277.100 182.300 277.000 182.400 277.100 182.400 H 281.000 C 281.055 182.400 281.100 182.355 281.100 182.300 V 174.300 C 281.100 174.245 281.055 174.200 281.000 174.200 H 277.100 C 277.000 174.200 277.100 174.300 277.100 174.200 V 166.400 C 277.100 166.300 277.000 166.400 277.100 166.400 H 281.000 C 281.055 166.400 281.100 166.355 281.100 166.300 V 158.300 C 281.100 158.245 281.055 158.200 281.000 158.200 H 277.100 C 277.000 158.200 277.100 158.300 277.100 158.200 V 150.400 C 277.100 150.300 277.000 150.400 277.100 150.400 H 281.000 C 281.055 150.400 281.100 150.355 281.100 150.300 V 142.300 C 281.100 142.245 281.055 142.200 281.000 142.200 H 277.100 C 277.000 142.200 277.100 142.300 277.100 142.200 V 132.300 C 277.100 132.245 277.055 132.200 277.000 132.200 H 165.000 C 164.945 132.200 164.900 132.245 164.900 132.300 V 142.200 C 164.900 142.300 165.000 142.200 164.900 142.200 H 161.000 C 160.945 142.200 160.900 142.245 160.900 142.300 V 150.300 C 160.900 150.355 160.945 150.400 161.000 150.400 H 164.900 C 165.000 150.400 164.900 150.300 164.900 150.400 V 158.200 C 164.900 158.300 165.000 158.200 164.900 158.200 H 161.000 C 160.945 158.200 160.900 158.245 160.900 158.300 V 166.300 C 160.900 166.355 160.945 166.400 161.000 166.400 H 164.900 C 165.000 166.400 164.900 166.300 164.900 166.400 V 174.200 C 164.900 174.300 165.000 174.200 164.900 174.200 H 161.000 C 160.945 174.200 160.900 174.245 160.900 174.300 V 182.300 C 160.900 182.355 160.945 182.400 161.000 182.400 H 164.900 C 165.000 182.400 164.900 182.300 164.900 182.400 V 192.300 C 164.900 192.355 164.945 192.400 165.000 192.400 Z"
       stroke="rgb(0,0,0)"
       stroke-width="0.20"
       id="path979" />
  </g>
  <path
     style="opacity:0.760532;fill:none;stroke:#000000;stroke-width:0.2;stroke-linecap:round;stroke-linejoin:round;stroke-miterlimit:4;stroke-dasharray:none;stroke-opacity:1"
     d="m 18.864032,132.86865 140.210938,51.27509 v 8.5062 c 0,0.055 -0.045,0.1 -0.1,0.1 h -4 -132.000002 -4 c -0.055,0 -0.1,-0.045 -0.1,-0.1 v -10 c 0,-0.055 0.045,-0.1 0.1,-0.1 h 3.9 c 0.1,0 0,0.1 0,0 v -7.8 c 0,-0.1 0.1,0 0,0 h -3.9 c -0.055,0 -0.1,-0.045 -0.1,-0.1 v -8 c 0,-0.055 0.045,-0.1 0.1,-0.1 h 3.9 c 0.1,0 0,0.1 0,0 v -7.8 c 0,-0.1 0.1,0 0,0 h -3.9 c -0.055,0 -0.1,-0.045 -0.1,-0.1 v -8 c 0,-0.055 0.045,-0.1 0.1,-0.1 h 3.9 c 0.1,0 0,0.1 0,0 v -7.8 c 0,-0.1 0.1,0 0,0 h -3.9 c -0.055,0 -0.09994,-0.045 -0.1,-0.1 l -0.01094,-9.78129"
     id="path1181"
     sodipodi:nodetypes="ccssccssssssssssssssssssssssssssc" />
  <g
     id="p-2-9"
     style="fill:none;stroke-linecap:round;stroke-linejoin:round"
     transform="translate(-1.1998275,65.68278)">
    <path
       d="m 40.8,188.2 h -3.9 c -0.1,0 0,0.1 0,0 v -3.8 c 0,-0.1 -0.1,0 0,0 h 7.8 c 0.1,0 0,-0.1 0,0 v 3.8 c 0,0.1 0.1,0 0,0 z"
       stroke="#0000ff"
       stroke-width="0.2"
       id="path932-0" />
    <path
       d="m 56.8,188.2 h -3.9 c -0.1,0 0,0.1 0,0 v -3.8 c 0,-0.1 -0.1,0 0,0 h 7.8 c 0.1,0 0,-0.1 0,0 v 3.8 c 0,0.1 0.1,0 0,0 z"
       stroke="#0000ff"
       stroke-width="0.2"
       id="path934-5" />
    <path
       d="m 72.8,188.2 h -3.9 c -0.1,0 0,0.1 0,0 v -3.8 c 0,-0.1 -0.1,0 0,0 h 7.8 c 0.1,0 0,-0.1 0,0 v 3.8 c 0,0.1 0.1,0 0,0 z"
       stroke="#0000ff"
       stroke-width="0.2"
       id="path936-8" />
    <path
       d="m 88.8,188.2 h -3.9 c -0.1,0 0,0.1 0,0 v -3.8 c 0,-0.1 -0.1,0 0,0 h 7.8 c 0.1,0 0,-0.1 0,0 v 3.8 c 0,0.1 0.1,0 0,0 z"
       stroke="#0000ff"
       stroke-width="0.2"
       id="path938-0" />
    <path
       d="m 104.8,188.2 h -3.9 c -0.1,0 0,0.1 0,0 v -3.8 c 0,-0.1 -0.1,0 0,0 h 7.8 c 0.1,0 0,-0.1 0,0 v 3.8 c 0,0.1 0.1,0 0,0 z"
       stroke="#0000ff"
       stroke-width="0.2"
       id="path940-0" />
    <path
       d="m 120.8,188.2 h -3.9 c -0.1,0 0,0.1 0,0 v -3.8 c 0,-0.1 -0.1,0 0,0 h 7.8 c 0.1,0 0,-0.1 0,0 v 3.8 c 0,0.1 0.1,0 0,0 z"
       stroke="#0000ff"
       stroke-width="0.2"
       id="path942-3" />
    <path
       d="m 136.8,188.2 h -3.9 c -0.1,0 0,0.1 0,0 v -3.8 c 0,-0.1 -0.1,0 0,0 h 7.8 c 0.1,0 0,-0.1 0,0 v 3.8 c 0,0.1 0.1,0 0,0 z"
       stroke="#0000ff"
       stroke-width="0.2"
       id="path944-4" />
  </g>
  <path
     style="opacity:0.760532;fill:none;stroke:#000000;stroke-width:0.2;stroke-linecap:round;stroke-linejoin:round;stroke-miterlimit:4;stroke-dasharray:none;stroke-opacity:1"
     d="m 17.489237,198.20149 140.210933,51.27509 v 8.5062 c 0,0.055 -0.045,0.1 -0.1,0.1 h -4 -131.999997 -4 c -0.055,0 -0.1,-0.045 -0.1,-0.1 v -10 c 0,-0.055 0.045,-0.1 0.1,-0.1 h 3.9 c 0.1,0 0,0.1 0,0 v -7.8 c 0,-0.1 0.1,0 0,0 h -3.9 c -0.055,0 -0.1,-0.045 -0.1,-0.1 v -8 c 0,-0.055 0.045,-0.1 0.1,-0.1 h 3.9 c 0.1,0 0,0.1 0,0 v -7.8 c 0,-0.1 0.1,0 0,0 h -3.9 c -0.055,0 -0.1,-0.045 -0.1,-0.1 v -8 c 0,-0.055 0.045,-0.1 0.1,-0.1 h 3.9 c 0.1,0 0,0.1 0,0 v -7.8 c 0,-0.1 0.1,0 0,0 h -3.9 c -0.055,0 -0.09994,-0.045 -0.1,-0.1 l -0.01094,-9.78129"
     id="path1181-4"
     sodipodi:nodetypes="ccssccssssssssssssssssssssssssssc" />
</svg>
