<?xml version="1.0" encoding="UTF-8" standalone="no"?>
<svg
   height="833.20mm"
   viewBox="0.0 0.0 291.10 833.20"
   width="291.10mm"
   version="1.1"
   id="svg34"
   sodipodi:docname="Haus.svg"
   inkscape:version="1.3 (0e150ed6c4, 2023-07-21)"
   xmlns:inkscape="http://www.inkscape.org/namespaces/inkscape"
   xmlns:sodipodi="http://sodipodi.sourceforge.net/DTD/sodipodi-0.dtd"
   xmlns="http://www.w3.org/2000/svg"
   xmlns:svg="http://www.w3.org/2000/svg"
   xmlns:rdf="http://www.w3.org/1999/02/22-rdf-syntax-ns#"
   xmlns:cc="http://creativecommons.org/ns#"
   xmlns:dc="http://purl.org/dc/elements/1.1/">
  <defs
     id="defs34" />
  <sodipodi:namedview
     id="namedview34"
     pagecolor="#ffffff"
     bordercolor="#666666"
     borderopacity="1.0"
     inkscape:showpageshadow="2"
     inkscape:pageopacity="0.0"
     inkscape:pagecheckerboard="0"
     inkscape:deskcolor="#d1d1d1"
     inkscape:document-units="mm"
     inkscape:zoom="1.012352"
     inkscape:cx="443.02774"
     inkscape:cy="1246.1081"
     inkscape:window-width="1920"
     inkscape:window-height="1017"
     inkscape:window-x="-8"
     inkscape:window-y="-8"
     inkscape:window-maximized="1"
     inkscape:current-layer="svg34" />
  <!--
ABox - A simple Box


This box is kept simple on purpose. If you need more features have a look at the UniversalBox.


Created with Boxes.py (https://festi.info/boxes.py)
Creation date: 2024-03-09 15:22:39
Command line (remove spaces between dashes): boxes ABox - -Lid_style=flat - -x=140 - -y=120 - -h=220 - -thickness=4
Url: http://festi.info/boxes.py/ABox?FingerJoint_angle=90.0&FingerJoint_style=rectangular&FingerJoint_surroundingspaces=2.0&FingerJoint_bottom_lip=0.0&FingerJoint_edge_width=1.0&FingerJoint_extra_length=0.0&FingerJoint_finger=2.0&FingerJoint_play=0.0&FingerJoint_space=2.0&FingerJoint_width=1.0&Lid_handle=none&Lid_style=flat&Lid_handle_height=8.0&Lid_height=4.0&Lid_play=0.1&x=140&y=120&h=220&outside=0&outside=1&bottom_edge=h&thickness=4&format=svg&tabs=0.0&qr_code=0&debug=0&labels=0&labels=1&reference=100&inner_corners=loop&burn=0.1&language=de&render=1
Url short: http://festi.info/boxes.py/ABox?Lid_style=flat&x=140&y=120&h=220&thickness=4
SettingsUrl: http://festi.info/boxes.py/ABox?FingerJoint_angle=90.0&FingerJoint_style=rectangular&FingerJoint_surroundingspaces=2.0&FingerJoint_bottom_lip=0.0&FingerJoint_edge_width=1.0&FingerJoint_extra_length=0.0&FingerJoint_finger=2.0&FingerJoint_play=0.0&FingerJoint_space=2.0&FingerJoint_width=1.0&Lid_handle=none&Lid_style=flat&Lid_handle_height=8.0&Lid_height=4.0&Lid_play=0.1&x=140&y=120&h=220&outside=0&outside=1&bottom_edge=h&thickness=4&format=svg&tabs=0.0&qr_code=0&debug=0&labels=0&labels=1&reference=100&inner_corners=loop&burn=0.1&language=de
SettingsUrl short: http://festi.info/boxes.py/ABox?Lid_style=flat&x=140&y=120&h=220&thickness=4
-->
  <title
     id="title1">ABox</title>
  <metadata
     id="metadata1">
    <rdf:RDF>
      <cc:Work>
        <dc:title>Box - ABox</dc:title>
        <dc:date>2024-03-09 15:22:39</dc:date>
        <dc:source>http://festi.info/boxes.py/ABox?FingerJoint_angle=90.0&amp;FingerJoint_style=rectangular&amp;FingerJoint_surroundingspaces=2.0&amp;FingerJoint_bottom_lip=0.0&amp;FingerJoint_edge_width=1.0&amp;FingerJoint_extra_length=0.0&amp;FingerJoint_finger=2.0&amp;FingerJoint_play=0.0&amp;FingerJoint_space=2.0&amp;FingerJoint_width=1.0&amp;Lid_handle=none&amp;Lid_style=flat&amp;Lid_handle_height=8.0&amp;Lid_height=4.0&amp;Lid_play=0.1&amp;x=140&amp;y=120&amp;h=220&amp;outside=0&amp;outside=1&amp;bottom_edge=h&amp;thickness=4&amp;format=svg&amp;tabs=0.0&amp;qr_code=0&amp;debug=0&amp;labels=0&amp;labels=1&amp;reference=100&amp;inner_corners=loop&amp;burn=0.1&amp;language=de&amp;render=1</dc:source>
        <dc:source>http://festi.info/boxes.py/ABox?Lid_style=flat&amp;x=140&amp;y=120&amp;h=220&amp;thickness=4</dc:source>
        <dc:description>A simple Box&#10;&#10;This box is kept simple on purpose. If you need more features have a look at the UniversalBox.&#10;&#10;Created with Boxes.py (https://festi.info/boxes.py)&#10;Command line: boxes ABox --FingerJoint_angle=90.0 --FingerJoint_style=rectangular --FingerJoint_surroundingspaces=2.0 --FingerJoint_bottom_lip=0.0 --FingerJoint_edge_width=1.0 --FingerJoint_extra_length=0.0 --FingerJoint_finger=2.0 --FingerJoint_play=0.0 --FingerJoint_space=2.0 --FingerJoint_width=1.0 --Lid_handle=none --Lid_style=flat --Lid_handle_height=8.0 --Lid_height=4.0 --Lid_play=0.1 --x=140 --y=120 --h=220 --outside=0 --outside=1 --bottom_edge=h --thickness=4 --format=svg --tabs=0.0 --qr_code=0 --debug=0 --labels=0 --labels=1 --reference=100 --inner_corners=loop --burn=0.1&#10;Command line short: boxes ABox --Lid_style=flat --x=140 --y=120 --h=220 --thickness=4&#10;Url: http://festi.info/boxes.py/ABox?FingerJoint_angle=90.0&amp;FingerJoint_style=rectangular&amp;FingerJoint_surroundingspaces=2.0&amp;FingerJoint_bottom_lip=0.0&amp;FingerJoint_edge_width=1.0&amp;FingerJoint_extra_length=0.0&amp;FingerJoint_finger=2.0&amp;FingerJoint_play=0.0&amp;FingerJoint_space=2.0&amp;FingerJoint_width=1.0&amp;Lid_handle=none&amp;Lid_style=flat&amp;Lid_handle_height=8.0&amp;Lid_height=4.0&amp;Lid_play=0.1&amp;x=140&amp;y=120&amp;h=220&amp;outside=0&amp;outside=1&amp;bottom_edge=h&amp;thickness=4&amp;format=svg&amp;tabs=0.0&amp;qr_code=0&amp;debug=0&amp;labels=0&amp;labels=1&amp;reference=100&amp;inner_corners=loop&amp;burn=0.1&amp;language=de&amp;render=1&#10;Url short: http://festi.info/boxes.py/ABox?Lid_style=flat&amp;x=140&amp;y=120&amp;h=220&amp;thickness=4&#10;SettingsUrl: http://festi.info/boxes.py/ABox?FingerJoint_angle=90.0&amp;FingerJoint_style=rectangular&amp;FingerJoint_surroundingspaces=2.0&amp;FingerJoint_bottom_lip=0.0&amp;FingerJoint_edge_width=1.0&amp;FingerJoint_extra_length=0.0&amp;FingerJoint_finger=2.0&amp;FingerJoint_play=0.0&amp;FingerJoint_space=2.0&amp;FingerJoint_width=1.0&amp;Lid_handle=none&amp;Lid_style=flat&amp;Lid_handle_height=8.0&amp;Lid_height=4.0&amp;Lid_play=0.1&amp;x=140&amp;y=120&amp;h=220&amp;outside=0&amp;outside=1&amp;bottom_edge=h&amp;thickness=4&amp;format=svg&amp;tabs=0.0&amp;qr_code=0&amp;debug=0&amp;labels=0&amp;labels=1&amp;reference=100&amp;inner_corners=loop&amp;burn=0.1&amp;language=de&#10;SettingsUrl short: http://festi.info/boxes.py/ABox?Lid_style=flat&amp;x=140&amp;y=120&amp;h=220&amp;thickness=4&#10;</dc:description>
      </cc:Work>
    </rdf:RDF>
  </metadata>
  <g
     id="p-0"
     style="fill:none;stroke-linecap:round;stroke-linejoin:round;">
    <path
       d="M 18.800 823.200 H 118.800 V 813.200 H 18.800 V 823.200 Z"
       stroke="rgb(0,0,0)"
       stroke-width="0.20"
       id="path1" />
    <text
       dominant-baseline="hanging"
       font-size="8px"
       style="font-family: sans-serif ; font-weight: normal; font-style: normal; fill: rgb(255,0,0)"
       text-anchor="middle"
       transform="matrix( 1.000 0.000 0.000 1.000 68.800 814.200 )"
       id="text1">100.00mm, burn:0.10mm</text>
  </g>
  <g
     id="p-1"
     style="fill:none;stroke-linecap:round;stroke-linejoin:round;">
    <path
       d="M 40.800 806.800 H 36.900 C 36.800 806.800 36.900 806.900 36.900 806.800 V 803.000 C 36.900 802.900 36.800 803.000 36.900 803.000 H 44.700 C 44.800 803.000 44.700 802.900 44.700 803.000 V 806.800 C 44.700 806.900 44.800 806.800 44.700 806.800 H 40.800 Z"
       stroke="rgb(0,0,255)"
       stroke-width="0.20"
       id="path2" />
    <path
       d="M 56.800 806.800 H 52.900 C 52.800 806.800 52.900 806.900 52.900 806.800 V 803.000 C 52.900 802.900 52.800 803.000 52.900 803.000 H 60.700 C 60.800 803.000 60.700 802.900 60.700 803.000 V 806.800 C 60.700 806.900 60.800 806.800 60.700 806.800 H 56.800 Z"
       stroke="rgb(0,0,255)"
       stroke-width="0.20"
       id="path3" />
    <path
       d="M 72.800 806.800 H 68.900 C 68.800 806.800 68.900 806.900 68.900 806.800 V 803.000 C 68.900 802.900 68.800 803.000 68.900 803.000 H 76.700 C 76.800 803.000 76.700 802.900 76.700 803.000 V 806.800 C 76.700 806.900 76.800 806.800 76.700 806.800 H 72.800 Z"
       stroke="rgb(0,0,255)"
       stroke-width="0.20"
       id="path4" />
    <path
       d="M 88.800 806.800 H 84.900 C 84.800 806.800 84.900 806.900 84.900 806.800 V 803.000 C 84.900 802.900 84.800 803.000 84.900 803.000 H 92.700 C 92.800 803.000 92.700 802.900 92.700 803.000 V 806.800 C 92.700 806.900 92.800 806.800 92.700 806.800 H 88.800 Z"
       stroke="rgb(0,0,255)"
       stroke-width="0.20"
       id="path5" />
    <path
       d="M 104.800 806.800 H 100.900 C 100.800 806.800 100.900 806.900 100.900 806.800 V 803.000 C 100.900 802.900 100.800 803.000 100.900 803.000 H 108.700 C 108.800 803.000 108.700 802.900 108.700 803.000 V 806.800 C 108.700 806.900 108.800 806.800 108.700 806.800 H 104.800 Z"
       stroke="rgb(0,0,255)"
       stroke-width="0.20"
       id="path6" />
    <path
       d="M 120.800 806.800 H 116.900 C 116.800 806.800 116.900 806.900 116.900 806.800 V 803.000 C 116.900 802.900 116.800 803.000 116.900 803.000 H 124.700 C 124.800 803.000 124.700 802.900 124.700 803.000 V 806.800 C 124.700 806.900 124.800 806.800 124.700 806.800 H 120.800 Z"
       stroke="rgb(0,0,255)"
       stroke-width="0.20"
       id="path7" />
    <path
       d="M 136.800 806.800 H 132.900 C 132.800 806.800 132.900 806.900 132.900 806.800 V 803.000 C 132.900 802.900 132.800 803.000 132.900 803.000 H 140.700 C 140.800 803.000 140.700 802.900 140.700 803.000 V 806.800 C 140.700 806.900 140.800 806.800 140.700 806.800 H 136.800 Z"
       stroke="rgb(0,0,255)"
       stroke-width="0.20"
       id="path8" />
    <path
       d="M 22.800 811.000 H 154.800 H 158.800 C 158.855 811.000 158.900 810.955 158.900 810.900 V 800.900 C 158.900 800.845 158.855 800.800 158.800 800.800 H 154.900 C 154.800 800.800 154.900 800.900 154.900 800.800 V 793.000 C 154.900 792.900 154.800 793.000 154.900 793.000 H 158.800 C 158.855 793.000 158.900 792.955 158.900 792.900 V 784.900 C 158.900 784.845 158.855 784.800 158.800 784.800 H 154.900 C 154.800 784.800 154.900 784.900 154.900 784.800 V 777.000 C 154.900 776.900 154.800 777.000 154.900 777.000 H 158.800 C 158.855 777.000 158.900 776.955 158.900 776.900 V 768.900 C 158.900 768.845 158.855 768.800 158.800 768.800 H 154.900 C 154.800 768.800 154.900 768.900 154.900 768.800 V 761.000 C 154.900 760.900 154.800 761.000 154.900 761.000 H 158.800 C 158.855 761.000 158.900 760.955 158.900 760.900 V 752.900 C 158.900 752.845 158.855 752.800 158.800 752.800 H 154.900 C 154.800 752.800 154.900 752.900 154.900 752.800 V 745.000 C 154.900 744.900 154.800 745.000 154.900 745.000 H 158.800 C 158.855 745.000 158.900 744.955 158.900 744.900 V 736.900 C 158.900 736.845 158.855 736.800 158.800 736.800 H 154.900 C 154.800 736.800 154.900 736.900 154.900 736.800 V 729.000 C 154.900 728.900 154.800 729.000 154.900 729.000 H 158.800 C 158.855 729.000 158.900 728.955 158.900 728.900 V 720.900 C 158.900 720.845 158.855 720.800 158.800 720.800 H 154.900 C 154.800 720.800 154.900 720.900 154.900 720.800 V 713.000 C 154.900 712.900 154.800 713.000 154.900 713.000 H 158.800 C 158.855 713.000 158.900 712.955 158.900 712.900 V 704.900 C 158.900 704.845 158.855 704.800 158.800 704.800 H 154.900 C 154.800 704.800 154.900 704.900 154.900 704.800 V 697.000 C 154.900 696.900 154.800 697.000 154.900 697.000 H 158.800 C 158.855 697.000 158.900 696.955 158.900 696.900 V 688.900 C 158.900 688.845 158.855 688.800 158.800 688.800 H 154.900 C 154.800 688.800 154.900 688.900 154.900 688.800 V 681.000 C 154.900 680.900 154.800 681.000 154.900 681.000 H 158.800 C 158.855 681.000 158.900 680.955 158.900 680.900 V 672.900 C 158.900 672.845 158.855 672.800 158.800 672.800 H 154.900 C 154.800 672.800 154.900 672.900 154.900 672.800 V 665.000 C 154.900 664.900 154.800 665.000 154.900 665.000 H 158.800 C 158.855 665.000 158.900 664.955 158.900 664.900 V 656.900 C 158.900 656.845 158.855 656.800 158.800 656.800 H 154.900 C 154.800 656.800 154.900 656.900 154.900 656.800 V 649.000 C 154.900 648.900 154.800 649.000 154.900 649.000 H 158.800 C 158.855 649.000 158.900 648.955 158.900 648.900 V 640.900 C 158.900 640.845 158.855 640.800 158.800 640.800 H 154.900 C 154.800 640.800 154.900 640.900 154.900 640.800 V 633.000 C 154.900 632.900 154.800 633.000 154.900 633.000 H 158.800 C 158.855 633.000 158.900 632.955 158.900 632.900 V 624.900 C 158.900 624.845 158.855 624.800 158.800 624.800 H 154.900 C 154.800 624.800 154.900 624.900 154.900 624.800 V 617.000 C 154.900 616.900 154.800 617.000 154.900 617.000 H 158.800 C 158.855 617.000 158.900 616.955 158.900 616.900 V 608.900 C 158.900 608.845 158.855 608.800 158.800 608.800 H 154.900 C 154.800 608.800 154.900 608.900 154.900 608.800 V 601.000 C 154.900 600.900 154.800 601.000 154.900 601.000 H 158.800 C 158.855 601.000 158.900 600.955 158.900 600.900 V 590.900 C 158.900 590.845 158.855 590.800 158.800 590.800 H 154.800 H 22.800 H 18.800 C 18.745 590.800 18.700 590.845 18.700 590.900 V 600.900 C 18.700 600.955 18.745 601.000 18.800 601.000 H 22.700 C 22.800 601.000 22.700 600.900 22.700 601.000 V 608.800 C 22.700 608.900 22.800 608.800 22.700 608.800 H 18.800 C 18.745 608.800 18.700 608.845 18.700 608.900 V 616.900 C 18.700 616.955 18.745 617.000 18.800 617.000 H 22.700 C 22.800 617.000 22.700 616.900 22.700 617.000 V 624.800 C 22.700 624.900 22.800 624.800 22.700 624.800 H 18.800 C 18.745 624.800 18.700 624.845 18.700 624.900 V 632.900 C 18.700 632.955 18.745 633.000 18.800 633.000 H 22.700 C 22.800 633.000 22.700 632.900 22.700 633.000 V 640.800 C 22.700 640.900 22.800 640.800 22.700 640.800 H 18.800 C 18.745 640.800 18.700 640.845 18.700 640.900 V 648.900 C 18.700 648.955 18.745 649.000 18.800 649.000 H 22.700 C 22.800 649.000 22.700 648.900 22.700 649.000 V 656.800 C 22.700 656.900 22.800 656.800 22.700 656.800 H 18.800 C 18.745 656.800 18.700 656.845 18.700 656.900 V 664.900 C 18.700 664.955 18.745 665.000 18.800 665.000 H 22.700 C 22.800 665.000 22.700 664.900 22.700 665.000 V 672.800 C 22.700 672.900 22.800 672.800 22.700 672.800 H 18.800 C 18.745 672.800 18.700 672.845 18.700 672.900 V 680.900 C 18.700 680.955 18.745 681.000 18.800 681.000 H 22.700 C 22.800 681.000 22.700 680.900 22.700 681.000 V 688.800 C 22.700 688.900 22.800 688.800 22.700 688.800 H 18.800 C 18.745 688.800 18.700 688.845 18.700 688.900 V 696.900 C 18.700 696.955 18.745 697.000 18.800 697.000 H 22.700 C 22.800 697.000 22.700 696.900 22.700 697.000 V 704.800 C 22.700 704.900 22.800 704.800 22.700 704.800 H 18.800 C 18.745 704.800 18.700 704.845 18.700 704.900 V 712.900 C 18.700 712.955 18.745 713.000 18.800 713.000 H 22.700 C 22.800 713.000 22.700 712.900 22.700 713.000 V 720.800 C 22.700 720.900 22.800 720.800 22.700 720.800 H 18.800 C 18.745 720.800 18.700 720.845 18.700 720.900 V 728.900 C 18.700 728.955 18.745 729.000 18.800 729.000 H 22.700 C 22.800 729.000 22.700 728.900 22.700 729.000 V 736.800 C 22.700 736.900 22.800 736.800 22.700 736.800 H 18.800 C 18.745 736.800 18.700 736.845 18.700 736.900 V 744.900 C 18.700 744.955 18.745 745.000 18.800 745.000 H 22.700 C 22.800 745.000 22.700 744.900 22.700 745.000 V 752.800 C 22.700 752.900 22.800 752.800 22.700 752.800 H 18.800 C 18.745 752.800 18.700 752.845 18.700 752.900 V 760.900 C 18.700 760.955 18.745 761.000 18.800 761.000 H 22.700 C 22.800 761.000 22.700 760.900 22.700 761.000 V 768.800 C 22.700 768.900 22.800 768.800 22.700 768.800 H 18.800 C 18.745 768.800 18.700 768.845 18.700 768.900 V 776.900 C 18.700 776.955 18.745 777.000 18.800 777.000 H 22.700 C 22.800 777.000 22.700 776.900 22.700 777.000 V 784.800 C 22.700 784.900 22.800 784.800 22.700 784.800 H 18.800 C 18.745 784.800 18.700 784.845 18.700 784.900 V 792.900 C 18.700 792.955 18.745 793.000 18.800 793.000 H 22.700 C 22.800 793.000 22.700 792.900 22.700 793.000 V 800.800 C 22.700 800.900 22.800 800.800 22.700 800.800 H 18.800 C 18.745 800.800 18.700 800.845 18.700 800.900 V 810.900 C 18.700 810.955 18.745 811.000 18.800 811.000 H 22.800 Z"
       stroke="rgb(0,0,0)"
       stroke-width="0.20"
       id="path9" />
  </g>
  <g
     id="p-2"
     style="fill:none;stroke-linecap:round;stroke-linejoin:round;">
    <path
       d="M 40.800 584.600 H 36.900 C 36.800 584.600 36.900 584.700 36.900 584.600 V 580.800 C 36.900 580.700 36.800 580.800 36.900 580.800 H 44.700 C 44.800 580.800 44.700 580.700 44.700 580.800 V 584.600 C 44.700 584.700 44.800 584.600 44.700 584.600 H 40.800 Z"
       stroke="rgb(0,0,255)"
       stroke-width="0.20"
       id="path10" />
    <path
       d="M 56.800 584.600 H 52.900 C 52.800 584.600 52.900 584.700 52.900 584.600 V 580.800 C 52.900 580.700 52.800 580.800 52.900 580.800 H 60.700 C 60.800 580.800 60.700 580.700 60.700 580.800 V 584.600 C 60.700 584.700 60.800 584.600 60.700 584.600 H 56.800 Z"
       stroke="rgb(0,0,255)"
       stroke-width="0.20"
       id="path11" />
    <path
       d="M 72.800 584.600 H 68.900 C 68.800 584.600 68.900 584.700 68.900 584.600 V 580.800 C 68.900 580.700 68.800 580.800 68.900 580.800 H 76.700 C 76.800 580.800 76.700 580.700 76.700 580.800 V 584.600 C 76.700 584.700 76.800 584.600 76.700 584.600 H 72.800 Z"
       stroke="rgb(0,0,255)"
       stroke-width="0.20"
       id="path12" />
    <path
       d="M 88.800 584.600 H 84.900 C 84.800 584.600 84.900 584.700 84.900 584.600 V 580.800 C 84.900 580.700 84.800 580.800 84.900 580.800 H 92.700 C 92.800 580.800 92.700 580.700 92.700 580.800 V 584.600 C 92.700 584.700 92.800 584.600 92.700 584.600 H 88.800 Z"
       stroke="rgb(0,0,255)"
       stroke-width="0.20"
       id="path13" />
    <path
       d="M 104.800 584.600 H 100.900 C 100.800 584.600 100.900 584.700 100.900 584.600 V 580.800 C 100.900 580.700 100.800 580.800 100.900 580.800 H 108.700 C 108.800 580.800 108.700 580.700 108.700 580.800 V 584.600 C 108.700 584.700 108.800 584.600 108.700 584.600 H 104.800 Z"
       stroke="rgb(0,0,255)"
       stroke-width="0.20"
       id="path14" />
    <path
       d="M 120.800 584.600 H 116.900 C 116.800 584.600 116.900 584.700 116.900 584.600 V 580.800 C 116.900 580.700 116.800 580.800 116.900 580.800 H 124.700 C 124.800 580.800 124.700 580.700 124.700 580.800 V 584.600 C 124.700 584.700 124.800 584.600 124.700 584.600 H 120.800 Z"
       stroke="rgb(0,0,255)"
       stroke-width="0.20"
       id="path15" />
    <path
       d="M 136.800 584.600 H 132.900 C 132.800 584.600 132.900 584.700 132.900 584.600 V 580.800 C 132.900 580.700 132.800 580.800 132.900 580.800 H 140.700 C 140.800 580.800 140.700 580.700 140.700 580.800 V 584.600 C 140.700 584.700 140.800 584.600 140.700 584.600 H 136.800 Z"
       stroke="rgb(0,0,255)"
       stroke-width="0.20"
       id="path16" />
    <path
       d="M 22.800 588.800 H 154.800 H 158.800 C 158.855 588.800 158.900 588.755 158.900 588.700 V 578.700 C 158.900 578.645 158.855 578.600 158.800 578.600 H 154.900 C 154.800 578.600 154.900 578.700 154.900 578.600 V 570.800 C 154.900 570.700 154.800 570.800 154.900 570.800 H 158.800 C 158.855 570.800 158.900 570.755 158.900 570.700 V 562.700 C 158.900 562.645 158.855 562.600 158.800 562.600 H 154.900 C 154.800 562.600 154.900 562.700 154.900 562.600 V 554.800 C 154.900 554.700 154.800 554.800 154.900 554.800 H 158.800 C 158.855 554.800 158.900 554.755 158.900 554.700 V 546.700 C 158.900 546.645 158.855 546.600 158.800 546.600 H 154.900 C 154.800 546.600 154.900 546.700 154.900 546.600 V 538.800 C 154.900 538.700 154.800 538.800 154.900 538.800 H 158.800 C 158.855 538.800 158.900 538.755 158.900 538.700 V 530.700 C 158.900 530.645 158.855 530.600 158.800 530.600 H 154.900 C 154.800 530.600 154.900 530.700 154.900 530.600 V 522.800 C 154.900 522.700 154.800 522.800 154.900 522.800 H 158.800 C 158.855 522.800 158.900 522.755 158.900 522.700 V 514.700 C 158.900 514.645 158.855 514.600 158.800 514.600 H 154.900 C 154.800 514.600 154.900 514.700 154.900 514.600 V 506.800 C 154.900 506.700 154.800 506.800 154.900 506.800 H 158.800 C 158.855 506.800 158.900 506.755 158.900 506.700 V 498.700 C 158.900 498.645 158.855 498.600 158.800 498.600 H 154.900 C 154.800 498.600 154.900 498.700 154.900 498.600 V 490.800 C 154.900 490.700 154.800 490.800 154.900 490.800 H 158.800 C 158.855 490.800 158.900 490.755 158.900 490.700 V 482.700 C 158.900 482.645 158.855 482.600 158.800 482.600 H 154.900 C 154.800 482.600 154.900 482.700 154.900 482.600 V 474.800 C 154.900 474.700 154.800 474.800 154.900 474.800 H 158.800 C 158.855 474.800 158.900 474.755 158.900 474.700 V 466.700 C 158.900 466.645 158.855 466.600 158.800 466.600 H 154.900 C 154.800 466.600 154.900 466.700 154.900 466.600 V 458.800 C 154.900 458.700 154.800 458.800 154.900 458.800 H 158.800 C 158.855 458.800 158.900 458.755 158.900 458.700 V 450.700 C 158.900 450.645 158.855 450.600 158.800 450.600 H 154.900 C 154.800 450.600 154.900 450.700 154.900 450.600 V 442.800 C 154.900 442.700 154.800 442.800 154.900 442.800 H 158.800 C 158.855 442.800 158.900 442.755 158.900 442.700 V 434.700 C 158.900 434.645 158.855 434.600 158.800 434.600 H 154.900 C 154.800 434.600 154.900 434.700 154.900 434.600 V 426.800 C 154.900 426.700 154.800 426.800 154.900 426.800 H 158.800 C 158.855 426.800 158.900 426.755 158.900 426.700 V 418.700 C 158.900 418.645 158.855 418.600 158.800 418.600 H 154.900 C 154.800 418.600 154.900 418.700 154.900 418.600 V 410.800 C 154.900 410.700 154.800 410.800 154.900 410.800 H 158.800 C 158.855 410.800 158.900 410.755 158.900 410.700 V 402.700 C 158.900 402.645 158.855 402.600 158.800 402.600 H 154.900 C 154.800 402.600 154.900 402.700 154.900 402.600 V 394.800 C 154.900 394.700 154.800 394.800 154.900 394.800 H 158.800 C 158.855 394.800 158.900 394.755 158.900 394.700 V 386.700 C 158.900 386.645 158.855 386.600 158.800 386.600 H 154.900 C 154.800 386.600 154.900 386.700 154.900 386.600 V 378.800 C 154.900 378.700 154.800 378.800 154.900 378.800 H 158.800 C 158.855 378.800 158.900 378.755 158.900 378.700 V 368.700 C 158.900 368.645 158.855 368.600 158.800 368.600 H 154.800 H 22.800 H 18.800 C 18.745 368.600 18.700 368.645 18.700 368.700 V 378.700 C 18.700 378.755 18.745 378.800 18.800 378.800 H 22.700 C 22.800 378.800 22.700 378.700 22.700 378.800 V 386.600 C 22.700 386.700 22.800 386.600 22.700 386.600 H 18.800 C 18.745 386.600 18.700 386.645 18.700 386.700 V 394.700 C 18.700 394.755 18.745 394.800 18.800 394.800 H 22.700 C 22.800 394.800 22.700 394.700 22.700 394.800 V 402.600 C 22.700 402.700 22.800 402.600 22.700 402.600 H 18.800 C 18.745 402.600 18.700 402.645 18.700 402.700 V 410.700 C 18.700 410.755 18.745 410.800 18.800 410.800 H 22.700 C 22.800 410.800 22.700 410.700 22.700 410.800 V 418.600 C 22.700 418.700 22.800 418.600 22.700 418.600 H 18.800 C 18.745 418.600 18.700 418.645 18.700 418.700 V 426.700 C 18.700 426.755 18.745 426.800 18.800 426.800 H 22.700 C 22.800 426.800 22.700 426.700 22.700 426.800 V 434.600 C 22.700 434.700 22.800 434.600 22.700 434.600 H 18.800 C 18.745 434.600 18.700 434.645 18.700 434.700 V 442.700 C 18.700 442.755 18.745 442.800 18.800 442.800 H 22.700 C 22.800 442.800 22.700 442.700 22.700 442.800 V 450.600 C 22.700 450.700 22.800 450.600 22.700 450.600 H 18.800 C 18.745 450.600 18.700 450.645 18.700 450.700 V 458.700 C 18.700 458.755 18.745 458.800 18.800 458.800 H 22.700 C 22.800 458.800 22.700 458.700 22.700 458.800 V 466.600 C 22.700 466.700 22.800 466.600 22.700 466.600 H 18.800 C 18.745 466.600 18.700 466.645 18.700 466.700 V 474.700 C 18.700 474.755 18.745 474.800 18.800 474.800 H 22.700 C 22.800 474.800 22.700 474.700 22.700 474.800 V 482.600 C 22.700 482.700 22.800 482.600 22.700 482.600 H 18.800 C 18.745 482.600 18.700 482.645 18.700 482.700 V 490.700 C 18.700 490.755 18.745 490.800 18.800 490.800 H 22.700 C 22.800 490.800 22.700 490.700 22.700 490.800 V 498.600 C 22.700 498.700 22.800 498.600 22.700 498.600 H 18.800 C 18.745 498.600 18.700 498.645 18.700 498.700 V 506.700 C 18.700 506.755 18.745 506.800 18.800 506.800 H 22.700 C 22.800 506.800 22.700 506.700 22.700 506.800 V 514.600 C 22.700 514.700 22.800 514.600 22.700 514.600 H 18.800 C 18.745 514.600 18.700 514.645 18.700 514.700 V 522.700 C 18.700 522.755 18.745 522.800 18.800 522.800 H 22.700 C 22.800 522.800 22.700 522.700 22.700 522.800 V 530.600 C 22.700 530.700 22.800 530.600 22.700 530.600 H 18.800 C 18.745 530.600 18.700 530.645 18.700 530.700 V 538.700 C 18.700 538.755 18.745 538.800 18.800 538.800 H 22.700 C 22.800 538.800 22.700 538.700 22.700 538.800 V 546.600 C 22.700 546.700 22.800 546.600 22.700 546.600 H 18.800 C 18.745 546.600 18.700 546.645 18.700 546.700 V 554.700 C 18.700 554.755 18.745 554.800 18.800 554.800 H 22.700 C 22.800 554.800 22.700 554.700 22.700 554.800 V 562.600 C 22.700 562.700 22.800 562.600 22.700 562.600 H 18.800 C 18.745 562.600 18.700 562.645 18.700 562.700 V 570.700 C 18.700 570.755 18.745 570.800 18.800 570.800 H 22.700 C 22.800 570.800 22.700 570.700 22.700 570.800 V 578.600 C 22.700 578.700 22.800 578.600 22.700 578.600 H 18.800 C 18.745 578.600 18.700 578.645 18.700 578.700 V 588.700 C 18.700 588.755 18.745 588.800 18.800 588.800 H 22.800 Z"
       stroke="rgb(0,0,0)"
       stroke-width="0.20"
       id="path17" />
  </g>
  <g
     id="p-3"
     style="fill:none;stroke-linecap:round;stroke-linejoin:round;">
    <path
       d="m 22.8,362.6 h 13.9 c 0.1,0 0,-0.1 0,0 v 3.9 c 0,0.055 0.045,0.1 0.1,0.1 h 8 c 0.055,0 0.1,-0.045 0.1,-0.1 v -3.9 c 0,-0.1 -0.1,0 0,0 h 7.8 c 0.1,0 0,-0.1 0,0 v 3.9 c 0,0.055 0.045,0.1 0.1,0.1 h 8 c 0.055,0 0.1,-0.045 0.1,-0.1 v -3.9 c 0,-0.1 -0.1,0 0,0 h 7.8 c 0.1,0 0,-0.1 0,0 v 3.9 c 0,0.055 0.045,0.1 0.1,0.1 h 8 c 0.055,0 0.1,-0.045 0.1,-0.1 v -3.9 c 0,-0.1 -0.1,0 0,0 h 7.8 c 0.1,0 0,-0.1 0,0 v 3.9 c 0,0.055 0.045,0.1 0.1,0.1 h 8 c 0.055,0 0.1,-0.045 0.1,-0.1 v -3.9 c 0,-0.1 -0.1,0 0,0 h 7.8 c 0.1,0 0,-0.1 0,0 v 3.9 c 0,0.055 0.045,0.1 0.1,0.1 h 8 c 0.055,0 0.1,-0.045 0.1,-0.1 v -3.9 c 0,-0.1 -0.1,0 0,0 h 7.8 c 0.1,0 0,-0.1 0,0 v 3.9 c 0,0.055 0.045,0.1 0.1,0.1 h 8 c 0.055,0 0.1,-0.045 0.1,-0.1 v -3.9 c 0,-0.1 -0.1,0 0,0 h 7.8 c 0.1,0 0,-0.1 0,0 v 3.9 c 0,0.055 0.045,0.1 0.1,0.1 h 8 c 0.055,0 0.1,-0.045 0.1,-0.1 v -3.9 c 0,-0.1 -0.1,0 0,0 h 13.9 c 0.055,0 0.1,-0.045 0.1,-0.1 v -112 c 0,-0.055 -0.045,-0.1 -0.1,-0.1 h -13.9 c -0.1,0 0,0.1 0,0 v -3.9 c 0,-0.055 -0.045,-0.1 -0.1,-0.1 h -8 c -0.055,0 -0.1,0.045 -0.1,0.1 v 3.9 c 0,0.1 0.1,0 0,0 h -7.8 c -0.1,0 0,0.1 0,0 v -3.9 c 0,-0.055 -0.045,-0.1 -0.1,-0.1 h -8 c -0.055,0 -0.1,0.045 -0.1,0.1 v 3.9 c 0,0.1 0.1,0 0,0 h -7.8 c -0.1,0 0,0.1 0,0 v -3.9 c 0,-0.055 -0.045,-0.1 -0.1,-0.1 h -8 c -0.055,0 -0.1,0.045 -0.1,0.1 v 3.9 c 0,0.1 0.1,0 0,0 h -7.8 c -0.1,0 0,0.1 0,0 v -3.9 c 0,-0.055 -0.045,-0.1 -0.1,-0.1 h -8 c -0.055,0 -0.1,0.045 -0.1,0.1 v 3.9 c 0,0.1 0.1,0 0,0 h -7.8 c -0.1,0 0,0.1 0,0 v -3.9 c 0,-0.055 -0.045,-0.1 -0.1,-0.1 h -8 c -0.055,0 -0.1,0.045 -0.1,0.1 v 3.9 c 0,0.1 0.1,0 0,0 h -7.8 c -0.1,0 0,0.1 0,0 v -3.9 c 0,-0.055 -0.045,-0.1 -0.1,-0.1 h -8 c -0.055,0 -0.1,0.045 -0.1,0.1 v 3.9 c 0,0.1 0.1,0 0,0 h -7.8 c -0.1,0 0,0.1 0,0 v -3.9 c 0,-0.055 -0.045,-0.1 -0.1,-0.1 h -8 c -0.055,0 -0.1,0.045 -0.1,0.1 v 3.9 c 0,0.1 0.1,0 0,0 H 22.8 c -0.055,0 -0.1,0.045 -0.1,0.1 v 11.9 c 0,0.1 0.1,0 0,0 h -3.9 c -0.055,0 -0.1,0.045 -0.1,0.1 v 8 c 0,0.055 0.045,0.1 0.1,0.1 h 3.9 c 0.1,0 0,-0.1 0,0 v 7.8 c 0,0.1 0.1,0 0,0 h -3.9 c -0.055,0 -0.1,0.045 -0.1,0.1 v 8 c 0,0.055 0.045,0.1 0.1,0.1 h 3.9 c 0.1,0 0,-0.1 0,0 v 7.8 c 0,0.1 0.1,0 0,0 h -3.9 c -0.055,0 -0.1,0.045 -0.1,0.1 v 8 c 0,0.055 0.045,0.1 0.1,0.1 h 3.9 c 0.1,0 0,-0.1 0,0 v 7.8 c 0,0.1 0.1,0 0,0 h -3.9 c -0.055,0 -0.1,0.045 -0.1,0.1 v 8 c 0,0.055 0.045,0.1 0.1,0.1 h 3.9 c 0.1,0 0,-0.1 0,0 v 7.8 c 0,0.1 0.1,0 0,0 h -3.9 c -0.055,0 -0.1,0.045 -0.1,0.1 v 8 c 0,0.055 0.045,0.1 0.1,0.1 h 3.9 c 0.1,0 0,-0.1 0,0 v 7.8 c 0,0.1 0.1,0 0,0 h -3.9 c -0.055,0 -0.1,0.045 -0.1,0.1 v 8 c 0,0.055 0.045,0.1 0.1,0.1 h 3.9 c 0.1,0 0,-0.1 0,0 v 11.9 c 0,0.055 0.045,0.1 0.1,0.1 z"
       stroke="#000000"
       stroke-width="0.2"
       id="path18"
       sodipodi:nodetypes="sssssssssssssssssssssssssssssssssssssssssssssssssssssssssssssssssssssssssssssssssssssssssssssssssssssssssssssssssssssssssssssssssssssssssssssssssssssssssssssssssssssssss" />
  </g>
  <g
     id="p-4"
     style="fill:none;stroke-linecap:round;stroke-linejoin:round;">
    <text
       dominant-baseline="hanging"
       font-size="4px"
       style="font-family: sans-serif ; font-weight: normal; font-style: normal; fill: rgb(255,0,0)"
       text-anchor="middle"
       transform="matrix( 1.000 0.000 0.000 1.000 84.800 186.400 )"
       id="text18">lid bottom</text>
    <path
       d="M 18.800 244.400 H 150.800 C 150.855 244.400 150.900 244.355 150.900 244.300 V 132.300 C 150.900 132.245 150.855 132.200 150.800 132.200 H 18.800 C 18.745 132.200 18.700 132.245 18.700 132.300 V 244.300 C 18.700 244.355 18.745 244.400 18.800 244.400"
       stroke="rgb(0,0,0)"
       stroke-width="0.20"
       id="path19" />
  </g>
  <g
     id="p-5"
     style="fill:none;stroke-linecap:round;stroke-linejoin:round;">
    <text
       dominant-baseline="hanging"
       font-size="4px"
       style="font-family: sans-serif ; font-weight: normal; font-style: normal; fill: rgb(255,0,0)"
       text-anchor="middle"
       transform="matrix( 1.000 0.000 0.000 1.000 88.800 68.200 )"
       id="text19">lid top</text>
    <path
       d="M 22.800 130.200 H 154.800 H 158.800 C 158.855 130.200 158.900 130.155 158.900 130.100 V 126.100 V 14.100 V 10.100 C 158.900 10.045 158.855 10.000 158.800 10.000 H 154.800 H 22.800 H 18.800 C 18.745 10.000 18.700 10.045 18.700 10.100 V 14.100 V 126.100 V 130.100 C 18.700 130.155 18.745 130.200 18.800 130.200 H 22.800"
       stroke="rgb(0,0,0)"
       stroke-width="0.20"
       id="path20" />
  </g>
  <g
     id="p-6"
     style="fill:none;stroke-linecap:round;stroke-linejoin:round;">
    <path
       d="M 181.000 806.800 H 177.100 C 177.000 806.800 177.100 806.900 177.100 806.800 V 803.000 C 177.100 802.900 177.000 803.000 177.100 803.000 H 184.900 C 185.000 803.000 184.900 802.900 184.900 803.000 V 806.800 C 184.900 806.900 185.000 806.800 184.900 806.800 H 181.000 Z"
       stroke="rgb(0,0,255)"
       stroke-width="0.20"
       id="path21" />
    <path
       d="M 197.000 806.800 H 193.100 C 193.000 806.800 193.100 806.900 193.100 806.800 V 803.000 C 193.100 802.900 193.000 803.000 193.100 803.000 H 200.900 C 201.000 803.000 200.900 802.900 200.900 803.000 V 806.800 C 200.900 806.900 201.000 806.800 200.900 806.800 H 197.000 Z"
       stroke="rgb(0,0,255)"
       stroke-width="0.20"
       id="path22" />
    <path
       d="M 213.000 806.800 H 209.100 C 209.000 806.800 209.100 806.900 209.100 806.800 V 803.000 C 209.100 802.900 209.000 803.000 209.100 803.000 H 216.900 C 217.000 803.000 216.900 802.900 216.900 803.000 V 806.800 C 216.900 806.900 217.000 806.800 216.900 806.800 H 213.000 Z"
       stroke="rgb(0,0,255)"
       stroke-width="0.20"
       id="path23" />
    <path
       d="M 229.000 806.800 H 225.100 C 225.000 806.800 225.100 806.900 225.100 806.800 V 803.000 C 225.100 802.900 225.000 803.000 225.100 803.000 H 232.900 C 233.000 803.000 232.900 802.900 232.900 803.000 V 806.800 C 232.900 806.900 233.000 806.800 232.900 806.800 H 229.000 Z"
       stroke="rgb(0,0,255)"
       stroke-width="0.20"
       id="path24" />
    <path
       d="M 245.000 806.800 H 241.100 C 241.000 806.800 241.100 806.900 241.100 806.800 V 803.000 C 241.100 802.900 241.000 803.000 241.100 803.000 H 248.900 C 249.000 803.000 248.900 802.900 248.900 803.000 V 806.800 C 248.900 806.900 249.000 806.800 248.900 806.800 H 245.000 Z"
       stroke="rgb(0,0,255)"
       stroke-width="0.20"
       id="path25" />
    <path
       d="M 261.000 806.800 H 257.100 C 257.000 806.800 257.100 806.900 257.100 806.800 V 803.000 C 257.100 802.900 257.000 803.000 257.100 803.000 H 264.900 C 265.000 803.000 264.900 802.900 264.900 803.000 V 806.800 C 264.900 806.900 265.000 806.800 264.900 806.800 H 261.000 Z"
       stroke="rgb(0,0,255)"
       stroke-width="0.20"
       id="path26" />
    <path
       d="M 165.000 811.000 H 277.000 C 277.055 811.000 277.100 810.955 277.100 810.900 V 801.000 C 277.100 800.900 277.000 801.000 277.100 801.000 H 281.000 C 281.055 801.000 281.100 800.955 281.100 800.900 V 792.900 C 281.100 792.845 281.055 792.800 281.000 792.800 H 277.100 C 277.000 792.800 277.100 792.900 277.100 792.800 V 785.000 C 277.100 784.900 277.000 785.000 277.100 785.000 H 281.000 C 281.055 785.000 281.100 784.955 281.100 784.900 V 776.900 C 281.100 776.845 281.055 776.800 281.000 776.800 H 277.100 C 277.000 776.800 277.100 776.900 277.100 776.800 V 769.000 C 277.100 768.900 277.000 769.000 277.100 769.000 H 281.000 C 281.055 769.000 281.100 768.955 281.100 768.900 V 760.900 C 281.100 760.845 281.055 760.800 281.000 760.800 H 277.100 C 277.000 760.800 277.100 760.900 277.100 760.800 V 753.000 C 277.100 752.900 277.000 753.000 277.100 753.000 H 281.000 C 281.055 753.000 281.100 752.955 281.100 752.900 V 744.900 C 281.100 744.845 281.055 744.800 281.000 744.800 H 277.100 C 277.000 744.800 277.100 744.900 277.100 744.800 V 737.000 C 277.100 736.900 277.000 737.000 277.100 737.000 H 281.000 C 281.055 737.000 281.100 736.955 281.100 736.900 V 728.900 C 281.100 728.845 281.055 728.800 281.000 728.800 H 277.100 C 277.000 728.800 277.100 728.900 277.100 728.800 V 721.000 C 277.100 720.900 277.000 721.000 277.100 721.000 H 281.000 C 281.055 721.000 281.100 720.955 281.100 720.900 V 712.900 C 281.100 712.845 281.055 712.800 281.000 712.800 H 277.100 C 277.000 712.800 277.100 712.900 277.100 712.800 V 705.000 C 277.100 704.900 277.000 705.000 277.100 705.000 H 281.000 C 281.055 705.000 281.100 704.955 281.100 704.900 V 696.900 C 281.100 696.845 281.055 696.800 281.000 696.800 H 277.100 C 277.000 696.800 277.100 696.900 277.100 696.800 V 689.000 C 277.100 688.900 277.000 689.000 277.100 689.000 H 281.000 C 281.055 689.000 281.100 688.955 281.100 688.900 V 680.900 C 281.100 680.845 281.055 680.800 281.000 680.800 H 277.100 C 277.000 680.800 277.100 680.900 277.100 680.800 V 673.000 C 277.100 672.900 277.000 673.000 277.100 673.000 H 281.000 C 281.055 673.000 281.100 672.955 281.100 672.900 V 664.900 C 281.100 664.845 281.055 664.800 281.000 664.800 H 277.100 C 277.000 664.800 277.100 664.900 277.100 664.800 V 657.000 C 277.100 656.900 277.000 657.000 277.100 657.000 H 281.000 C 281.055 657.000 281.100 656.955 281.100 656.900 V 648.900 C 281.100 648.845 281.055 648.800 281.000 648.800 H 277.100 C 277.000 648.800 277.100 648.900 277.100 648.800 V 641.000 C 277.100 640.900 277.000 641.000 277.100 641.000 H 281.000 C 281.055 641.000 281.100 640.955 281.100 640.900 V 632.900 C 281.100 632.845 281.055 632.800 281.000 632.800 H 277.100 C 277.000 632.800 277.100 632.900 277.100 632.800 V 625.000 C 277.100 624.900 277.000 625.000 277.100 625.000 H 281.000 C 281.055 625.000 281.100 624.955 281.100 624.900 V 616.900 C 281.100 616.845 281.055 616.800 281.000 616.800 H 277.100 C 277.000 616.800 277.100 616.900 277.100 616.800 V 609.000 C 277.100 608.900 277.000 609.000 277.100 609.000 H 281.000 C 281.055 609.000 281.100 608.955 281.100 608.900 V 600.900 C 281.100 600.845 281.055 600.800 281.000 600.800 H 277.100 C 277.000 600.800 277.100 600.900 277.100 600.800 V 590.900 C 277.100 590.845 277.055 590.800 277.000 590.800 H 165.000 C 164.945 590.800 164.900 590.845 164.900 590.900 V 600.800 C 164.900 600.900 165.000 600.800 164.900 600.800 H 161.000 C 160.945 600.800 160.900 600.845 160.900 600.900 V 608.900 C 160.900 608.955 160.945 609.000 161.000 609.000 H 164.900 C 165.000 609.000 164.900 608.900 164.900 609.000 V 616.800 C 164.900 616.900 165.000 616.800 164.900 616.800 H 161.000 C 160.945 616.800 160.900 616.845 160.900 616.900 V 624.900 C 160.900 624.955 160.945 625.000 161.000 625.000 H 164.900 C 165.000 625.000 164.900 624.900 164.900 625.000 V 632.800 C 164.900 632.900 165.000 632.800 164.900 632.800 H 161.000 C 160.945 632.800 160.900 632.845 160.900 632.900 V 640.900 C 160.900 640.955 160.945 641.000 161.000 641.000 H 164.900 C 165.000 641.000 164.900 640.900 164.900 641.000 V 648.800 C 164.900 648.900 165.000 648.800 164.900 648.800 H 161.000 C 160.945 648.800 160.900 648.845 160.900 648.900 V 656.900 C 160.900 656.955 160.945 657.000 161.000 657.000 H 164.900 C 165.000 657.000 164.900 656.900 164.900 657.000 V 664.800 C 164.900 664.900 165.000 664.800 164.900 664.800 H 161.000 C 160.945 664.800 160.900 664.845 160.900 664.900 V 672.900 C 160.900 672.955 160.945 673.000 161.000 673.000 H 164.900 C 165.000 673.000 164.900 672.900 164.900 673.000 V 680.800 C 164.900 680.900 165.000 680.800 164.900 680.800 H 161.000 C 160.945 680.800 160.900 680.845 160.900 680.900 V 688.900 C 160.900 688.955 160.945 689.000 161.000 689.000 H 164.900 C 165.000 689.000 164.900 688.900 164.900 689.000 V 696.800 C 164.900 696.900 165.000 696.800 164.900 696.800 H 161.000 C 160.945 696.800 160.900 696.845 160.900 696.900 V 704.900 C 160.900 704.955 160.945 705.000 161.000 705.000 H 164.900 C 165.000 705.000 164.900 704.900 164.900 705.000 V 712.800 C 164.900 712.900 165.000 712.800 164.900 712.800 H 161.000 C 160.945 712.800 160.900 712.845 160.900 712.900 V 720.900 C 160.900 720.955 160.945 721.000 161.000 721.000 H 164.900 C 165.000 721.000 164.900 720.900 164.900 721.000 V 728.800 C 164.900 728.900 165.000 728.800 164.900 728.800 H 161.000 C 160.945 728.800 160.900 728.845 160.900 728.900 V 736.900 C 160.900 736.955 160.945 737.000 161.000 737.000 H 164.900 C 165.000 737.000 164.900 736.900 164.900 737.000 V 744.800 C 164.900 744.900 165.000 744.800 164.900 744.800 H 161.000 C 160.945 744.800 160.900 744.845 160.900 744.900 V 752.900 C 160.900 752.955 160.945 753.000 161.000 753.000 H 164.900 C 165.000 753.000 164.900 752.900 164.900 753.000 V 760.800 C 164.900 760.900 165.000 760.800 164.900 760.800 H 161.000 C 160.945 760.800 160.900 760.845 160.900 760.900 V 768.900 C 160.900 768.955 160.945 769.000 161.000 769.000 H 164.900 C 165.000 769.000 164.900 768.900 164.900 769.000 V 776.800 C 164.900 776.900 165.000 776.800 164.900 776.800 H 161.000 C 160.945 776.800 160.900 776.845 160.900 776.900 V 784.900 C 160.900 784.955 160.945 785.000 161.000 785.000 H 164.900 C 165.000 785.000 164.900 784.900 164.900 785.000 V 792.800 C 164.900 792.900 165.000 792.800 164.900 792.800 H 161.000 C 160.945 792.800 160.900 792.845 160.900 792.900 V 800.900 C 160.900 800.955 160.945 801.000 161.000 801.000 H 164.900 C 165.000 801.000 164.900 800.900 164.900 801.000 V 810.900 C 164.900 810.955 164.945 811.000 165.000 811.000 Z"
       stroke="rgb(0,0,0)"
       stroke-width="0.20"
       id="path27" />
  </g>
  <g
     id="p-7"
     style="fill:none;stroke-linecap:round;stroke-linejoin:round;">
    <path
       d="M 181.000 584.600 H 177.100 C 177.000 584.600 177.100 584.700 177.100 584.600 V 580.800 C 177.100 580.700 177.000 580.800 177.100 580.800 H 184.900 C 185.000 580.800 184.900 580.700 184.900 580.800 V 584.600 C 184.900 584.700 185.000 584.600 184.900 584.600 H 181.000 Z"
       stroke="rgb(0,0,255)"
       stroke-width="0.20"
       id="path28" />
    <path
       d="M 197.000 584.600 H 193.100 C 193.000 584.600 193.100 584.700 193.100 584.600 V 580.800 C 193.100 580.700 193.000 580.800 193.100 580.800 H 200.900 C 201.000 580.800 200.900 580.700 200.900 580.800 V 584.600 C 200.900 584.700 201.000 584.600 200.900 584.600 H 197.000 Z"
       stroke="rgb(0,0,255)"
       stroke-width="0.20"
       id="path29" />
    <path
       d="M 213.000 584.600 H 209.100 C 209.000 584.600 209.100 584.700 209.100 584.600 V 580.800 C 209.100 580.700 209.000 580.800 209.100 580.800 H 216.900 C 217.000 580.800 216.900 580.700 216.900 580.800 V 584.600 C 216.900 584.700 217.000 584.600 216.900 584.600 H 213.000 Z"
       stroke="rgb(0,0,255)"
       stroke-width="0.20"
       id="path30" />
    <path
       d="M 229.000 584.600 H 225.100 C 225.000 584.600 225.100 584.700 225.100 584.600 V 580.800 C 225.100 580.700 225.000 580.800 225.100 580.800 H 232.900 C 233.000 580.800 232.900 580.700 232.900 580.800 V 584.600 C 232.900 584.700 233.000 584.600 232.900 584.600 H 229.000 Z"
       stroke="rgb(0,0,255)"
       stroke-width="0.20"
       id="path31" />
    <path
       d="M 245.000 584.600 H 241.100 C 241.000 584.600 241.100 584.700 241.100 584.600 V 580.800 C 241.100 580.700 241.000 580.800 241.100 580.800 H 248.900 C 249.000 580.800 248.900 580.700 248.900 580.800 V 584.600 C 248.900 584.700 249.000 584.600 248.900 584.600 H 245.000 Z"
       stroke="rgb(0,0,255)"
       stroke-width="0.20"
       id="path32" />
    <path
       d="M 261.000 584.600 H 257.100 C 257.000 584.600 257.100 584.700 257.100 584.600 V 580.800 C 257.100 580.700 257.000 580.800 257.100 580.800 H 264.900 C 265.000 580.800 264.900 580.700 264.900 580.800 V 584.600 C 264.900 584.700 265.000 584.600 264.900 584.600 H 261.000 Z"
       stroke="rgb(0,0,255)"
       stroke-width="0.20"
       id="path33" />
    <path
       d="M 165.000 588.800 H 277.000 C 277.055 588.800 277.100 588.755 277.100 588.700 V 578.800 C 277.100 578.700 277.000 578.800 277.100 578.800 H 281.000 C 281.055 578.800 281.100 578.755 281.100 578.700 V 570.700 C 281.100 570.645 281.055 570.600 281.000 570.600 H 277.100 C 277.000 570.600 277.100 570.700 277.100 570.600 V 562.800 C 277.100 562.700 277.000 562.800 277.100 562.800 H 281.000 C 281.055 562.800 281.100 562.755 281.100 562.700 V 554.700 C 281.100 554.645 281.055 554.600 281.000 554.600 H 277.100 C 277.000 554.600 277.100 554.700 277.100 554.600 V 546.800 C 277.100 546.700 277.000 546.800 277.100 546.800 H 281.000 C 281.055 546.800 281.100 546.755 281.100 546.700 V 538.700 C 281.100 538.645 281.055 538.600 281.000 538.600 H 277.100 C 277.000 538.600 277.100 538.700 277.100 538.600 V 530.800 C 277.100 530.700 277.000 530.800 277.100 530.800 H 281.000 C 281.055 530.800 281.100 530.755 281.100 530.700 V 522.700 C 281.100 522.645 281.055 522.600 281.000 522.600 H 277.100 C 277.000 522.600 277.100 522.700 277.100 522.600 V 514.800 C 277.100 514.700 277.000 514.800 277.100 514.800 H 281.000 C 281.055 514.800 281.100 514.755 281.100 514.700 V 506.700 C 281.100 506.645 281.055 506.600 281.000 506.600 H 277.100 C 277.000 506.600 277.100 506.700 277.100 506.600 V 498.800 C 277.100 498.700 277.000 498.800 277.100 498.800 H 281.000 C 281.055 498.800 281.100 498.755 281.100 498.700 V 490.700 C 281.100 490.645 281.055 490.600 281.000 490.600 H 277.100 C 277.000 490.600 277.100 490.700 277.100 490.600 V 482.800 C 277.100 482.700 277.000 482.800 277.100 482.800 H 281.000 C 281.055 482.800 281.100 482.755 281.100 482.700 V 474.700 C 281.100 474.645 281.055 474.600 281.000 474.600 H 277.100 C 277.000 474.600 277.100 474.700 277.100 474.600 V 466.800 C 277.100 466.700 277.000 466.800 277.100 466.800 H 281.000 C 281.055 466.800 281.100 466.755 281.100 466.700 V 458.700 C 281.100 458.645 281.055 458.600 281.000 458.600 H 277.100 C 277.000 458.600 277.100 458.700 277.100 458.600 V 450.800 C 277.100 450.700 277.000 450.800 277.100 450.800 H 281.000 C 281.055 450.800 281.100 450.755 281.100 450.700 V 442.700 C 281.100 442.645 281.055 442.600 281.000 442.600 H 277.100 C 277.000 442.600 277.100 442.700 277.100 442.600 V 434.800 C 277.100 434.700 277.000 434.800 277.100 434.800 H 281.000 C 281.055 434.800 281.100 434.755 281.100 434.700 V 426.700 C 281.100 426.645 281.055 426.600 281.000 426.600 H 277.100 C 277.000 426.600 277.100 426.700 277.100 426.600 V 418.800 C 277.100 418.700 277.000 418.800 277.100 418.800 H 281.000 C 281.055 418.800 281.100 418.755 281.100 418.700 V 410.700 C 281.100 410.645 281.055 410.600 281.000 410.600 H 277.100 C 277.000 410.600 277.100 410.700 277.100 410.600 V 402.800 C 277.100 402.700 277.000 402.800 277.100 402.800 H 281.000 C 281.055 402.800 281.100 402.755 281.100 402.700 V 394.700 C 281.100 394.645 281.055 394.600 281.000 394.600 H 277.100 C 277.000 394.600 277.100 394.700 277.100 394.600 V 386.800 C 277.100 386.700 277.000 386.800 277.100 386.800 H 281.000 C 281.055 386.800 281.100 386.755 281.100 386.700 V 378.700 C 281.100 378.645 281.055 378.600 281.000 378.600 H 277.100 C 277.000 378.600 277.100 378.700 277.100 378.600 V 368.700 C 277.100 368.645 277.055 368.600 277.000 368.600 H 165.000 C 164.945 368.600 164.900 368.645 164.900 368.700 V 378.600 C 164.900 378.700 165.000 378.600 164.900 378.600 H 161.000 C 160.945 378.600 160.900 378.645 160.900 378.700 V 386.700 C 160.900 386.755 160.945 386.800 161.000 386.800 H 164.900 C 165.000 386.800 164.900 386.700 164.900 386.800 V 394.600 C 164.900 394.700 165.000 394.600 164.900 394.600 H 161.000 C 160.945 394.600 160.900 394.645 160.900 394.700 V 402.700 C 160.900 402.755 160.945 402.800 161.000 402.800 H 164.900 C 165.000 402.800 164.900 402.700 164.900 402.800 V 410.600 C 164.900 410.700 165.000 410.600 164.900 410.600 H 161.000 C 160.945 410.600 160.900 410.645 160.900 410.700 V 418.700 C 160.900 418.755 160.945 418.800 161.000 418.800 H 164.900 C 165.000 418.800 164.900 418.700 164.900 418.800 V 426.600 C 164.900 426.700 165.000 426.600 164.900 426.600 H 161.000 C 160.945 426.600 160.900 426.645 160.900 426.700 V 434.700 C 160.900 434.755 160.945 434.800 161.000 434.800 H 164.900 C 165.000 434.800 164.900 434.700 164.900 434.800 V 442.600 C 164.900 442.700 165.000 442.600 164.900 442.600 H 161.000 C 160.945 442.600 160.900 442.645 160.900 442.700 V 450.700 C 160.900 450.755 160.945 450.800 161.000 450.800 H 164.900 C 165.000 450.800 164.900 450.700 164.900 450.800 V 458.600 C 164.900 458.700 165.000 458.600 164.900 458.600 H 161.000 C 160.945 458.600 160.900 458.645 160.900 458.700 V 466.700 C 160.900 466.755 160.945 466.800 161.000 466.800 H 164.900 C 165.000 466.800 164.900 466.700 164.900 466.800 V 474.600 C 164.900 474.700 165.000 474.600 164.900 474.600 H 161.000 C 160.945 474.600 160.900 474.645 160.900 474.700 V 482.700 C 160.900 482.755 160.945 482.800 161.000 482.800 H 164.900 C 165.000 482.800 164.900 482.700 164.900 482.800 V 490.600 C 164.900 490.700 165.000 490.600 164.900 490.600 H 161.000 C 160.945 490.600 160.900 490.645 160.900 490.700 V 498.700 C 160.900 498.755 160.945 498.800 161.000 498.800 H 164.900 C 165.000 498.800 164.900 498.700 164.900 498.800 V 506.600 C 164.900 506.700 165.000 506.600 164.900 506.600 H 161.000 C 160.945 506.600 160.900 506.645 160.900 506.700 V 514.700 C 160.900 514.755 160.945 514.800 161.000 514.800 H 164.900 C 165.000 514.800 164.900 514.700 164.900 514.800 V 522.600 C 164.900 522.700 165.000 522.600 164.900 522.600 H 161.000 C 160.945 522.600 160.900 522.645 160.900 522.700 V 530.700 C 160.900 530.755 160.945 530.800 161.000 530.800 H 164.900 C 165.000 530.800 164.900 530.700 164.900 530.800 V 538.600 C 164.900 538.700 165.000 538.600 164.900 538.600 H 161.000 C 160.945 538.600 160.900 538.645 160.900 538.700 V 546.700 C 160.900 546.755 160.945 546.800 161.000 546.800 H 164.900 C 165.000 546.800 164.900 546.700 164.900 546.800 V 554.600 C 164.900 554.700 165.000 554.600 164.900 554.600 H 161.000 C 160.945 554.600 160.900 554.645 160.900 554.700 V 562.700 C 160.900 562.755 160.945 562.800 161.000 562.800 H 164.900 C 165.000 562.800 164.900 562.700 164.900 562.800 V 570.600 C 164.900 570.700 165.000 570.600 164.900 570.600 H 161.000 C 160.945 570.600 160.900 570.645 160.900 570.700 V 578.700 C 160.900 578.755 160.945 578.800 161.000 578.800 H 164.900 C 165.000 578.800 164.900 578.700 164.900 578.800 V 588.700 C 164.900 588.755 164.945 588.800 165.000 588.800 Z"
       stroke="rgb(0,0,0)"
       stroke-width="0.20"
       id="path34" />
  </g>
</svg>
